<svg width="32" height="32" viewBox="0 0 32 32" fill="none" xmlns="http://www.w3.org/2000/svg">
<path d="M31.6736 15.5985C31.6371 12.6251 30.7516 9.72414 29.1216 7.23717C27.4915 4.7502 25.1848 2.78081 22.4729 1.56092C19.7611 0.34104 16.7572 -0.0785283 13.8149 0.35163C10.8726 0.781788 8.11452 2.04376 5.86543 3.98892C3.61634 5.93408 1.96991 8.48143 1.12006 11.331C0.270203 14.1805 0.252309 17.2135 1.06848 20.0729C1.88466 22.9322 3.50091 25.4988 5.7269 27.4704C7.95288 29.442 10.6959 30.7364 13.6329 31.2012V20.1428H9.73221V15.5985H13.6329V12.1463C13.5426 11.3436 13.6297 10.5309 13.8878 9.76553C14.146 9.00014 14.569 8.30074 15.127 7.7167C15.685 7.13266 16.3644 6.67821 17.1172 6.38543C17.8701 6.09265 18.678 5.96867 19.4839 6.02225C20.6538 6.03887 21.8208 6.14318 22.9751 6.33431V10.235H21.0247C20.6884 10.1926 20.3469 10.2263 20.0253 10.3336C19.7038 10.4409 19.4105 10.6192 19.1671 10.8551C18.9237 11.091 18.7364 11.3786 18.6191 11.6966C18.5017 12.0146 18.4574 12.355 18.4893 12.6924V15.6375H22.819L22.1169 20.1818H18.5088V31.1037C22.1947 30.5207 25.5497 28.6359 27.965 25.7911C30.3804 22.9464 31.6961 19.3302 31.6736 15.5985Z" fill="#DFD3BD"/>
</svg>
