<svg width="32" height="33" viewBox="0 0 32 33" fill="none" xmlns="http://www.w3.org/2000/svg">
<path d="M9.24444 0.802734H22.4307C27.454 0.802734 31.5355 4.88419 31.5355 9.90753V23.0938C31.5355 25.5085 30.5762 27.8244 28.8688 29.5318C27.1613 31.2393 24.8454 32.1986 22.4307 32.1986H9.24444C4.22111 32.1986 0.139648 28.1171 0.139648 23.0938V9.90753C0.139648 7.49279 1.0989 5.17695 2.80638 3.46947C4.51386 1.76199 6.8297 0.802734 9.24444 0.802734ZM8.93048 3.94232C7.43168 3.94232 5.99426 4.53772 4.93444 5.59753C3.87463 6.65735 3.27923 8.09476 3.27923 9.59357V23.4077C3.27923 26.5316 5.8066 29.059 8.93048 29.059H22.7446C24.2435 29.059 25.6809 28.4636 26.7407 27.4038C27.8005 26.344 28.3959 24.9065 28.3959 23.4077V9.59357C28.3959 6.46968 25.8685 3.94232 22.7446 3.94232H8.93048ZM24.079 6.29701C24.5994 6.29701 25.0985 6.50374 25.4665 6.87173C25.8345 7.23972 26.0412 7.73883 26.0412 8.25924C26.0412 8.77966 25.8345 9.27877 25.4665 9.64676C25.0985 10.0147 24.5994 10.2215 24.079 10.2215C23.5586 10.2215 23.0594 10.0147 22.6915 9.64676C22.3235 9.27877 22.1167 8.77966 22.1167 8.25924C22.1167 7.73883 22.3235 7.23972 22.6915 6.87173C23.0594 6.50374 23.5586 6.29701 24.079 6.29701ZM15.8376 8.65169C17.9192 8.65169 19.9157 9.47863 21.3876 10.9506C22.8596 12.4226 23.6865 14.419 23.6865 16.5007C23.6865 18.5823 22.8596 20.5787 21.3876 22.0507C19.9157 23.5227 17.9192 24.3496 15.8376 24.3496C13.7559 24.3496 11.7595 23.5227 10.2875 22.0507C8.81555 20.5787 7.98861 18.5823 7.98861 16.5007C7.98861 14.419 8.81555 12.4226 10.2875 10.9506C11.7595 9.47863 13.7559 8.65169 15.8376 8.65169ZM15.8376 11.7913C14.5886 11.7913 13.3907 12.2874 12.5075 13.1706C11.6244 14.0538 11.1282 15.2516 11.1282 16.5007C11.1282 17.7497 11.6244 18.9475 12.5075 19.8307C13.3907 20.7139 14.5886 21.21 15.8376 21.21C17.0866 21.21 18.2844 20.7139 19.1676 19.8307C20.0508 18.9475 20.5469 17.7497 20.5469 16.5007C20.5469 15.2516 20.0508 14.0538 19.1676 13.1706C18.2844 12.2874 17.0866 11.7913 15.8376 11.7913Z" fill="#DFD3BD"/>
</svg>
