<svg width="19" height="25" viewBox="0 0 19 25" fill="none" xmlns="http://www.w3.org/2000/svg">
<path d="M9.5 2.25186C7.54035 2.25186 5.66095 3.08181 4.27527 4.55914C2.88958 6.03647 2.11111 8.04016 2.11111 10.1294C2.11111 13.3502 3.99211 16.4573 6.05678 18.8645C7.11248 20.0907 8.2644 21.2187 9.5 22.2361C9.68437 22.0853 9.90076 21.9015 10.1492 21.6847C11.1412 20.8162 12.0748 19.8746 12.9432 18.8668C15.0079 16.4573 16.8889 13.3513 16.8889 10.1294C16.8889 8.04016 16.1104 6.03647 14.7247 4.55914C13.339 3.08181 11.4597 2.25186 9.5 2.25186ZM9.5 25L8.9015 24.5611L8.89833 24.5589L8.892 24.5532L8.87089 24.5375L8.79172 24.4778L8.50672 24.2561C7.06258 23.099 5.72098 21.8032 4.49878 20.3849C2.34122 17.8663 0 14.2212 0 10.1283C3.75443e-08 7.4421 1.00089 4.86593 2.78249 2.96651C4.56408 1.06708 6.98044 0 9.5 0C12.0196 0 14.4359 1.06708 16.2175 2.96651C17.9991 4.86593 19 7.4421 19 10.1283C19 14.2212 16.6588 17.8674 14.5012 20.3826C13.2794 21.8009 11.9381 23.0967 10.4943 24.2539C10.3741 24.3497 10.2527 24.4438 10.1302 24.5363L10.108 24.5521L10.1017 24.5577L10.0996 24.5589L9.5 25ZM9.5 7.87869C8.9401 7.87869 8.40313 8.11582 8.00722 8.53791C7.61131 8.96 7.38889 9.53249 7.38889 10.1294C7.38889 10.7263 7.61131 11.2988 8.00722 11.7209C8.40313 12.143 8.9401 12.3801 9.5 12.3801C10.0599 12.3801 10.5969 12.143 10.9928 11.7209C11.3887 11.2988 11.6111 10.7263 11.6111 10.1294C11.6111 9.53249 11.3887 8.96 10.9928 8.53791C10.5969 8.11582 10.0599 7.87869 9.5 7.87869ZM5.27778 10.1294C5.27778 8.93555 5.72262 7.79059 6.51444 6.9464C7.30626 6.10221 8.3802 5.62795 9.5 5.62795C10.6198 5.62795 11.6937 6.10221 12.4856 6.9464C13.2774 7.79059 13.7222 8.93555 13.7222 10.1294C13.7222 11.3233 13.2774 12.4682 12.4856 13.3124C11.6937 14.1566 10.6198 14.6309 9.5 14.6309C8.3802 14.6309 7.30626 14.1566 6.51444 13.3124C5.72262 12.4682 5.27778 11.3233 5.27778 10.1294Z" fill="#DFD3BD"/>
</svg>
