<svg width="21" height="21" viewBox="0 0 21 21" fill="none" xmlns="http://www.w3.org/2000/svg">
<path fill-rule="evenodd" clip-rule="evenodd" d="M2.41587 0.653686C2.64007 0.429827 2.90928 0.25617 3.20566 0.144224C3.50205 0.0322787 3.81885 -0.0154 4.13505 0.00434775C4.45126 0.0240956 4.75966 0.110819 5.03981 0.258771C5.31997 0.406723 5.56548 0.612525 5.76009 0.862539L8.06003 3.81724C8.48159 4.35923 8.63022 5.06523 8.46365 5.73151L7.76277 8.53758C7.72679 8.68293 7.72887 8.8351 7.76882 8.97941C7.80877 9.12372 7.88524 9.25531 7.99084 9.36146L11.139 12.5096C11.2453 12.6155 11.3771 12.6921 11.5217 12.732C11.6662 12.772 11.8186 12.7739 11.9642 12.7377L14.769 12.0368C15.0978 11.9551 15.4409 11.949 15.7724 12.0189C16.104 12.0888 16.4154 12.2329 16.6832 12.4404L19.6379 14.7391C20.7001 15.5656 20.7975 17.1352 19.8468 18.0846L18.5219 19.4095C17.5738 20.3577 16.1566 20.7741 14.8356 20.309C11.4538 19.1207 8.38362 17.1848 5.85362 14.6456C3.31454 12.116 1.37872 9.04622 0.190237 5.66488C-0.273597 4.34514 0.142829 2.92673 1.091 1.97856L2.41587 0.653686Z" fill="#DFD3BD"/>
</svg>
