<svg width="19" height="14" viewBox="0 0 19 14" fill="none" xmlns="http://www.w3.org/2000/svg">
<path d="M17.7821 0.922931C18.1075 1.2305 18.2974 1.65468 18.31 2.10221C18.3227 2.54974 18.1571 2.98399 17.8497 3.30946L8.28105 13.441C8.12597 13.6049 7.93961 13.736 7.73298 13.8267C7.52635 13.9174 7.30365 13.9657 7.07803 13.9689C6.8524 13.972 6.62844 13.9299 6.41936 13.845C6.21028 13.7602 6.02034 13.6343 5.86074 13.4747L0.794994 8.40899C0.496723 8.08889 0.334342 7.66551 0.34206 7.22805C0.349778 6.79059 0.526994 6.37321 0.836372 6.06383C1.14575 5.75445 1.56313 5.57724 2.00059 5.56952C2.43805 5.5618 2.86143 5.72418 3.18153 6.02245L7.02024 9.85892L15.3956 0.990474C15.7032 0.665134 16.1274 0.475257 16.5749 0.462591C17.0224 0.449925 17.4567 0.615507 17.7821 0.922931Z" fill="#DFD3BD"/>
</svg>
