<svg width="25" height="24" viewBox="0 0 25 24" fill="none" xmlns="http://www.w3.org/2000/svg">
<path d="M16.7369 6.05261L7.05273 15.7368" stroke="#DFD3BD" stroke-width="1.5" stroke-linecap="round"/>
<path d="M15.5264 10.8948H19.8079C20.0475 10.8948 20.1904 11.1618 20.0575 11.3612L15.5264 18.1579" stroke="#DFD3BD" stroke-width="1.6" stroke-linecap="round"/>
<path d="M10.6842 5.77329H7.12101C6.87002 5.77329 6.72999 5.48344 6.88601 5.28682L10.1492 1.17425C10.3259 0.951637 10.6842 1.07654 10.6842 1.36073V5.77329ZM10.6842 5.77329V8.47369M10.6842 5.77329H11.8948" stroke="#DFD3BD" stroke-width="1.6" stroke-linecap="round"/>
<path d="M1 3.85172V3.48742C1 2.87669 1.24995 2.29256 1.69173 1.87086V1.87086V1.87086C2.13573 1.44704 2.72593 1.21057 3.33974 1.21057H3.76692H3.78075C4.21587 1.21057 4.63426 1.3782 4.94901 1.67864L4.95706 1.68633C5.08508 1.80853 5.19226 1.95082 5.27438 2.10759V2.10759C5.61052 2.74931 5.48108 3.53605 4.95706 4.03625L3.76692 5.17229L3.60821 5.32378C2.79374 6.10124 2.0587 6.95787 1.41398 7.88099V7.88099C1.23948 8.13084 1.41824 8.47373 1.72299 8.47373H5.84211" stroke="#DFD3BD" stroke-width="1.6" stroke-linecap="round"/>
<path d="M3.42114 12.7105C3.42114 18.3932 8.0279 23 13.7106 23C19.3933 23 24.0001 18.3932 24.0001 12.7105C24.0001 7.02777 19.3933 2.42102 13.7106 2.42102" stroke="#DFD3BD" stroke-width="2" stroke-linecap="round"/>
</svg>
