<svg width="32" height="31" viewBox="0 0 32 31" fill="none" xmlns="http://www.w3.org/2000/svg">
<path fill-rule="evenodd" clip-rule="evenodd" d="M22.4421 30.8062C24.836 30.8062 27.1319 29.8553 28.8246 28.1625C30.5174 26.4697 31.4684 24.1739 31.4684 21.7799V9.22161C31.4684 6.82769 30.5174 4.53182 28.8246 2.83906C27.1319 1.14629 24.836 0.195313 22.4421 0.195312H9.88372C7.4898 0.195313 5.19392 1.14629 3.50116 2.83906C1.8084 4.53182 0.857422 6.82769 0.857422 9.22161V21.7799C0.857422 24.1739 1.8084 26.4697 3.50116 28.1625C5.19392 29.8553 7.4898 30.8062 9.88372 30.8062H22.4421ZM18.8488 5.70999C18.76 5.44539 18.58 5.22095 18.3411 5.07672C18.1021 4.93249 17.8197 4.87785 17.5442 4.92254C17.2686 4.96724 17.018 5.10836 16.8369 5.32073C16.6557 5.53311 16.556 5.80292 16.5553 6.08203V20.2102C16.5553 20.9087 16.3482 21.5916 15.9601 22.1724C15.572 22.7533 15.0204 23.206 14.375 23.4733C13.7296 23.7407 13.0194 23.8106 12.3342 23.6743C11.6491 23.538 11.0197 23.2016 10.5258 22.7077C10.0318 22.2137 9.69543 21.5844 9.55914 20.8992C9.42286 20.2141 9.4928 19.5039 9.76014 18.8585C10.0275 18.2131 10.4802 17.6615 11.061 17.2734C11.6419 16.8853 12.3247 16.6781 13.0233 16.6781C13.3356 16.6781 13.635 16.5541 13.8558 16.3333C14.0766 16.1125 14.2007 15.813 14.2007 15.5008C14.2007 15.1885 14.0766 14.8891 13.8558 14.6683C13.635 14.4475 13.3356 14.3234 13.0233 14.3234C11.859 14.3234 10.7209 14.6687 9.75282 15.3155C8.78476 15.9624 8.03024 16.8818 7.58469 17.9574C7.13914 19.0331 7.02256 20.2167 7.2497 21.3586C7.47684 22.5005 8.0375 23.5494 8.86077 24.3727C9.68404 25.196 10.733 25.7566 11.8749 25.9838C13.0168 26.2109 14.2004 26.0943 15.2761 25.6488C16.3517 25.2032 17.2711 24.4487 17.9179 23.4806C18.5648 22.5126 18.91 21.3744 18.91 20.2102V9.94058C20.1141 11.0583 21.8094 11.9688 24.0118 11.9688C24.3241 11.9688 24.6236 11.8447 24.8444 11.6239C25.0652 11.4031 25.1892 11.1037 25.1892 10.7914C25.1892 10.4792 25.0652 10.1797 24.8444 9.9589C24.6236 9.7381 24.3241 9.61406 24.0118 9.61406C22.486 9.61406 21.3259 8.98615 20.4657 8.17142C19.5866 7.33629 19.056 6.33006 18.8488 5.70999Z" fill="#DFD3BD"/>
</svg>
