<svg width="22" height="22" viewBox="0 0 22 22" fill="none" xmlns="http://www.w3.org/2000/svg">
<path d="M11.0011 0.166016C16.9843 0.166016 21.8344 5.0161 21.8344 10.9993C21.8344 16.9826 16.9843 21.8327 11.0011 21.8327C9.08656 21.836 7.20571 21.3293 5.55191 20.3648L0.172075 21.8327L1.63674 16.4507C0.671446 14.7964 0.164386 12.9147 0.167741 10.9993C0.167741 5.0161 5.01783 0.166016 11.0011 0.166016ZM7.30908 5.90768L7.09241 5.91635C6.95232 5.926 6.81545 5.9628 6.68941 6.02468C6.57195 6.09132 6.46468 6.1745 6.37091 6.27168C6.24091 6.3941 6.16724 6.50027 6.08816 6.60318C5.68746 7.12416 5.47171 7.76377 5.47499 8.42102C5.47716 8.95185 5.61582 9.4686 5.83249 9.95177C6.27557 10.9289 7.00466 11.9635 7.96666 12.9223C8.19849 13.153 8.42599 13.3848 8.67083 13.6004C9.86621 14.6528 11.2906 15.4117 12.8308 15.8169L13.4462 15.9112C13.6466 15.922 13.847 15.9068 14.0485 15.8971C14.3639 15.8805 14.6719 15.7951 14.9509 15.6469C15.0927 15.5736 15.2311 15.494 15.3658 15.4085C15.3658 15.4085 15.4117 15.3775 15.5012 15.311C15.6475 15.2027 15.7374 15.1258 15.8587 14.999C15.9497 14.9051 16.0256 14.7961 16.0862 14.6719C16.1707 14.4953 16.2552 14.1583 16.2899 13.8778C16.3159 13.6633 16.3083 13.5463 16.3051 13.4737C16.3007 13.3578 16.2043 13.2375 16.0992 13.1866L15.4687 12.9038C15.4687 12.9038 14.5262 12.4933 13.9499 12.2311C13.8896 12.2048 13.825 12.1898 13.7592 12.1867C13.6851 12.1789 13.6102 12.1872 13.5395 12.2109C13.4689 12.2347 13.4042 12.2733 13.3497 12.3243C13.3443 12.3221 13.2717 12.3839 12.4885 13.3328C12.4435 13.3933 12.3816 13.4389 12.3106 13.464C12.2396 13.4891 12.1627 13.4924 12.0898 13.4737C12.0192 13.4549 11.9501 13.431 11.8829 13.4022C11.7486 13.3458 11.702 13.3242 11.6099 13.2852C10.9879 13.0142 10.4122 12.6476 9.90366 12.1986C9.76716 12.0794 9.64041 11.9494 9.51041 11.8238C9.08424 11.4156 8.71281 10.9538 8.40541 10.4501L8.34149 10.3472C8.29628 10.2776 8.2592 10.2031 8.23099 10.1251C8.18983 9.96585 8.29708 9.83802 8.29708 9.83802C8.29708 9.83802 8.56032 9.54985 8.68274 9.39385C8.80191 9.24218 8.90266 9.09485 8.96766 8.98977C9.09549 8.78393 9.13558 8.57268 9.06841 8.4091C8.76508 7.6681 8.45163 6.93107 8.12807 6.19802C8.06416 6.05285 7.87458 5.94885 7.70233 5.92827C7.64383 5.92104 7.58532 5.91527 7.52682 5.91093C7.38136 5.90259 7.23551 5.90404 7.09024 5.91527L7.30908 5.90768Z" fill="#DFD3BD"/>
</svg>
