<svg width="28" height="28" viewBox="0 0 28 28" fill="none" xmlns="http://www.w3.org/2000/svg">
<path d="M14.0012 2.33301C20.4447 2.33301 25.6678 7.55617 25.6678 13.9997C25.6678 20.4432 20.4447 25.6663 14.0012 25.6663C11.9394 25.6699 9.91384 25.1242 8.13282 24.0855L2.33916 25.6663L3.91649 19.8703C2.87694 18.0888 2.33088 16.0624 2.33449 13.9997C2.33449 7.55617 7.55766 2.33301 14.0012 2.33301ZM10.0252 8.51634L9.79182 8.52567C9.64096 8.53607 9.49356 8.57569 9.35782 8.64234C9.23133 8.7141 9.11581 8.80369 9.01482 8.90834C8.87482 9.04017 8.79549 9.15451 8.71032 9.26534C8.2788 9.82639 8.04646 10.5152 8.04999 11.223C8.05232 11.7947 8.20166 12.3512 8.43499 12.8715C8.91216 13.9238 9.69732 15.038 10.7333 16.0705C10.983 16.319 11.228 16.5687 11.4917 16.8008C12.779 17.9341 14.313 18.7515 15.9717 19.1878L16.6343 19.2893C16.8502 19.301 17.066 19.2847 17.283 19.2742C17.6227 19.2563 17.9544 19.1643 18.2548 19.0047C18.4075 18.9257 18.5566 18.8401 18.7017 18.748C18.7017 18.748 18.751 18.7146 18.8475 18.643C19.005 18.5263 19.1018 18.4435 19.2325 18.307C19.3305 18.2059 19.4122 18.0885 19.4775 17.9547C19.5685 17.7645 19.6595 17.4017 19.6968 17.0995C19.7248 16.8685 19.7167 16.7425 19.7132 16.6643C19.7085 16.5395 19.6047 16.41 19.4915 16.3552L18.8125 16.0507C18.8125 16.0507 17.7975 15.6085 17.1768 15.3262C17.1119 15.2979 17.0423 15.2817 16.9715 15.2783C16.8917 15.27 16.811 15.2789 16.7349 15.3045C16.6588 15.33 16.5891 15.3716 16.5305 15.4265C16.5247 15.4242 16.4465 15.4907 15.603 16.5127C15.5546 16.5777 15.4879 16.6269 15.4114 16.6539C15.335 16.6809 15.2522 16.6845 15.1737 16.6643C15.0976 16.6441 15.0231 16.6183 14.9508 16.5873C14.8062 16.5267 14.756 16.5033 14.6568 16.4613C13.987 16.1696 13.367 15.7747 12.8193 15.2912C12.6723 15.1628 12.5358 15.0228 12.3958 14.8875C11.9369 14.4479 11.5369 13.9507 11.2058 13.4082L11.137 13.2973C11.0883 13.2224 11.0484 13.1422 11.018 13.0582C10.9737 12.8867 11.0892 12.749 11.0892 12.749C11.0892 12.749 11.3727 12.4387 11.5045 12.2707C11.6328 12.1073 11.7413 11.9487 11.8113 11.8355C11.949 11.6138 11.9922 11.3863 11.9198 11.2102C11.5932 10.4122 11.2556 9.61845 10.9072 8.82901C10.8383 8.67267 10.6342 8.56067 10.4487 8.53851C10.3857 8.53073 10.3227 8.52451 10.2597 8.51984C10.103 8.51086 9.94593 8.51241 9.78949 8.52451L10.0252 8.51634Z" fill="#DFD3BD"/>
</svg>
