<?xml version="1.0" encoding="utf-8"?><svg width="32" height="33" fill="none" xmlns="http://www.w3.org/2000/svg" viewBox="0 0 32 33"><path d="M9.244.803h13.187c5.023 0 9.104 4.081 9.104 9.105v13.186a9.105 9.105 0 01-9.104 9.105H9.244c-5.023 0-9.104-4.082-9.104-9.105V9.908A9.105 9.105 0 019.244.803zm-.314 3.14a5.651 5.651 0 00-5.65 5.65v13.815a5.648 5.648 0 005.65 5.651h13.815a5.651 5.651 0 005.65-5.651V9.594a5.648 5.648 0 00-5.65-5.652H8.93zM24.08 6.296a1.962 1.962 0 110 3.925 1.962 1.962 0 010-3.925zm-8.241 2.355a7.849 7.849 0 110 15.697 7.849 7.849 0 010-15.697zm0 3.14a4.71 4.71 0 100 9.418 4.71 4.71 0 000-9.419z" fill="#DFD3BD"/></svg>