<?xml version="1.0" encoding="utf-8"?><svg width="16" height="16" fill="none" xmlns="http://www.w3.org/2000/svg" viewBox="0 0 16 16"><path d="M10.778 5.876l.006.006 2 2s0 0 0 0a.167.167 0 010 .236s0 0 0 0l-1.995 1.996a.167.167 0 01-.236-.236l.858-.858.853-.853H6a.167.167 0 110-.334h6.264l-.853-.853-.862-.862h0l-.006-.006a.166.166 0 01.052-.274l-.187-.458.187.458a.167.167 0 01.13 0l.194-.453-.195.454c.02.008.039.021.054.037h0zM3.215 3.882A.167.167 0 013.5 4v8a.167.167 0 01-.333 0V4c0-.044.017-.087.048-.118z" fill="#252C32" stroke="#0E73F6"/></svg>