<?xml version="1.0" encoding="utf-8"?><svg width="19" height="25" fill="none" xmlns="http://www.w3.org/2000/svg" viewBox="0 0 19 25"><path d="M9.5 2.252c-1.96 0-3.84.83-5.225 2.307C2.89 6.036 2.111 8.04 2.111 10.13c0 3.221 1.881 6.328 3.946 8.736A28.196 28.196 0 009.5 22.235a28.278 28.278 0 003.443-3.37c2.065-2.409 3.946-5.515 3.946-8.737 0-2.089-.779-4.093-2.164-5.57C13.339 3.082 11.46 2.252 9.5 2.252zM9.5 25l-.598-.439-.004-.002-.006-.006-.021-.015-.08-.06-.284-.222a30.321 30.321 0 01-4.008-3.871C2.34 17.866 0 14.22 0 10.128c0-2.686 1-5.262 2.782-7.161C4.564 1.067 6.98 0 9.5 0c2.52 0 4.936 1.067 6.718 2.967C17.998 4.866 19 7.442 19 10.128c0 4.093-2.341 7.74-4.499 10.255a30.317 30.317 0 01-4.007 3.87c-.12.097-.241.19-.364.283l-.022.016-.006.006H10.1L9.5 25zm0-17.121c-.56 0-1.097.237-1.493.659a2.328 2.328 0 00-.618 1.591c0 .597.222 1.17.618 1.592.396.422.933.66 1.493.66s1.097-.238 1.493-.66c.396-.422.618-.995.618-1.592 0-.597-.222-1.169-.618-1.591a2.047 2.047 0 00-1.493-.66zm-4.222 2.25c0-1.193.445-2.338 1.236-3.183.792-.844 1.866-1.318 2.986-1.318s2.194.474 2.986 1.318a4.657 4.657 0 011.236 3.183 4.657 4.657 0 01-1.236 3.183c-.792.845-1.866 1.319-2.986 1.319s-2.194-.474-2.986-1.319a4.657 4.657 0 01-1.236-3.183z" fill="#DFD3BD"/></svg>