<?xml version="1.0" encoding="utf-8"?><svg width="21" height="21" fill="none" xmlns="http://www.w3.org/2000/svg" viewBox="0 0 21 21"><path fill-rule="evenodd" clip-rule="evenodd" d="M2.416.654A2.236 2.236 0 015.76.863l2.3 2.954c.422.542.57 1.248.404 1.915l-.701 2.806a.871.871 0 00.228.823l3.148 3.149a.87.87 0 00.825.228l2.805-.701a2.243 2.243 0 011.914.403l2.955 2.3a2.235 2.235 0 01.209 3.345l-1.325 1.325c-.948.948-2.365 1.364-3.686.899a23.833 23.833 0 01-8.982-5.663A23.832 23.832 0 01.19 5.665c-.464-1.32-.047-2.738.901-3.686L2.416.654z" fill="#DFD3BD"/></svg>