<?xml version="1.0" encoding="utf-8"?><svg width="25" height="24" fill="none" xmlns="http://www.w3.org/2000/svg" viewBox="0 0 25 24"><path d="M16.737 6.053l-9.684 9.684" stroke="#DFD3BD" stroke-width="1.5" stroke-linecap="round"/><path d="M15.526 10.895h4.282a.3.3 0 01.25.466l-4.532 6.797M10.684 5.773H7.121a.3.3 0 01-.235-.486l3.263-4.113a.3.3 0 01.535.187v4.412zm0 0v2.7m0-2.7h1.21M1 3.852v-.365c0-.61.25-1.194.692-1.616v0a2.387 2.387 0 011.648-.66h.441c.435 0 .853.167 1.168.468l.008.007c.128.123.235.265.317.422v0a1.624 1.624 0 01-.317 1.928l-1.19 1.136-.159.152A16.962 16.962 0 001.414 7.88v0a.377.377 0 00.309.593h4.12" stroke="#DFD3BD" stroke-width="1.6" stroke-linecap="round"/><path d="M3.421 12.71c0 5.683 4.607 10.29 10.29 10.29C19.393 23 24 18.393 24 12.71c0-5.682-4.608-10.289-10.29-10.289" stroke="#DFD3BD" stroke-width="2" stroke-linecap="round"/></svg>