<?xml version="1.0" encoding="utf-8"?><svg width="32" height="31" fill="none" xmlns="http://www.w3.org/2000/svg" viewBox="0 0 32 31"><path fill-rule="evenodd" clip-rule="evenodd" d="M22.442 30.806a9.026 9.026 0 009.026-9.026V9.222A9.026 9.026 0 0022.442.195H9.884A9.026 9.026 0 00.857 9.222V21.78a9.026 9.026 0 009.027 9.026h12.558zM18.85 5.71a1.177 1.177 0 00-2.294.372V20.21a3.532 3.532 0 11-3.532-3.532 1.177 1.177 0 100-2.355 5.887 5.887 0 105.887 5.887V9.94c1.204 1.118 2.9 2.029 5.102 2.029a1.178 1.178 0 000-2.355c-1.526 0-2.686-.628-3.546-1.443-.88-.835-1.41-1.84-1.617-2.461z" fill="#DFD3BD"/></svg>