<?xml version="1.0" encoding="utf-8"?><svg width="28" height="28" fill="none" xmlns="http://www.w3.org/2000/svg" viewBox="0 0 28 28"><path d="M14.001 2.333c6.444 0 11.667 5.223 11.667 11.667 0 6.443-5.223 11.666-11.667 11.666a11.608 11.608 0 01-5.868-1.58l-5.794 1.58 1.577-5.796A11.608 11.608 0 012.334 14c0-6.444 5.224-11.667 11.667-11.667zm-3.976 6.183l-.233.01c-.151.01-.298.05-.434.116a1.517 1.517 0 00-.343.266c-.14.132-.22.247-.305.357a3.185 3.185 0 00-.66 1.958c.002.572.152 1.128.385 1.648.477 1.053 1.262 2.167 2.298 3.2.25.248.495.498.759.73a11.024 11.024 0 004.48 2.387l.662.101c.216.012.432-.004.649-.015.34-.018.671-.11.972-.27.152-.078.302-.164.447-.256 0 0 .049-.033.145-.105.158-.117.255-.2.386-.336.098-.101.18-.218.244-.352.091-.19.183-.553.22-.855.028-.232.02-.358.016-.436-.005-.125-.108-.254-.222-.309l-.678-.304s-1.015-.442-1.636-.725a.584.584 0 00-.206-.048.56.56 0 00-.44.149c-.006-.003-.084.064-.928 1.086a.408.408 0 01-.43.151 1.621 1.621 0 01-.222-.077c-.145-.06-.195-.084-.294-.126a7 7 0 01-1.838-1.17c-.147-.128-.283-.268-.423-.404a7.353 7.353 0 01-1.19-1.479l-.069-.11a1.167 1.167 0 01-.119-.24c-.044-.171.071-.309.071-.309s.284-.31.415-.478c.129-.164.237-.322.307-.436.138-.221.181-.449.109-.625a95.335 95.335 0 00-1.013-2.381c-.069-.156-.273-.268-.458-.29a3.885 3.885 0 00-.19-.02 3.5 3.5 0 00-.47.006l.236-.009z" fill="#DFD3BD"/></svg>