<?xml version="1.0" encoding="utf-8"?><svg width="22" height="22" fill="none" xmlns="http://www.w3.org/2000/svg" viewBox="0 0 22 22"><path d="M11.001.166c5.983 0 10.833 4.85 10.833 10.833 0 5.984-4.85 10.834-10.833 10.834a10.78 10.78 0 01-5.45-1.468L.173 21.833l1.465-5.382a10.78 10.78 0 01-1.47-5.452C.168 5.016 5.018.166 11.002.166zM7.31 5.908l-.217.008c-.14.01-.277.047-.403.109-.117.066-.224.15-.318.247-.13.122-.204.228-.283.331-.4.521-.616 1.16-.613 1.818.002.53.14 1.048.357 1.53.444.978 1.173 2.012 2.135 2.971.231.231.459.463.704.678a10.237 10.237 0 004.16 2.217l.615.094c.2.011.401-.004.603-.014.315-.017.623-.102.902-.25a5.41 5.41 0 00.415-.239s.046-.03.135-.097c.147-.108.236-.185.358-.312a1.26 1.26 0 00.227-.327c.085-.177.17-.514.204-.794.026-.215.018-.332.015-.404-.004-.116-.1-.236-.206-.287l-.63-.283s-.943-.41-1.52-.673a.54.54 0 00-.19-.044.52.52 0 00-.41.137c-.005-.002-.077.06-.86 1.009a.38.38 0 01-.4.14 1.514 1.514 0 01-.206-.07l-.273-.118A6.501 6.501 0 019.904 12.2c-.137-.12-.264-.25-.394-.375a6.827 6.827 0 01-1.105-1.374l-.064-.103a1.085 1.085 0 01-.11-.222c-.041-.16.066-.287.066-.287s.263-.288.386-.444c.119-.152.22-.3.285-.404.127-.206.168-.417.1-.58a88.572 88.572 0 00-.94-2.212c-.064-.145-.253-.25-.426-.27a3.25 3.25 0 00-.612-.013l.22-.007z" fill="#DFD3BD"/></svg>