<?xml version="1.0" encoding="utf-8"?><svg viewBox="0 0 32 33" xmlns="http://www.w3.org/2000/svg" xmlns:xlink="http://www.w3.org/1999/xlink"><style>:root>svg{display:none}:root>svg:target{display:block}</style><svg fill="none" viewBox="0 0 24 24" id="answer-arrow" xmlns="http://www.w3.org/2000/svg"><g clip-path="url(#aclip0_7_464)"><path d="M10.72 20.8h8.697l-2.188 2.19a.593.593 0 10.837.837l3.083-3.083a.79.79 0 000-1.114l-3.083-3.083a.593.593 0 10-.837.837l2.21 2.21v.021h-8.72a6.921 6.921 0 01-6.913-6.913V.592a.593.593 0 10-1.185 0v12.11c0 4.466 3.633 8.099 8.098 8.099z" fill="#B1B1B1"/></g><defs><clipPath id="aclip0_7_464"><path fill="#fff" transform="rotate(180 12 12)" d="M0 0h24v24H0z"/></clipPath></defs></svg><svg fill="none" viewBox="0 0 14 8" id="arrow" xmlns="http://www.w3.org/2000/svg"><path d="M13.466.8L7.044 7.18.665.756" stroke="#DFD3BD" stroke-linecap="round" stroke-linejoin="round"/></svg><svg fill="none" viewBox="0 0 7 7" id="arrow-breadcrumb" xmlns="http://www.w3.org/2000/svg"><path d="M1 1l4.972 2.712a.3.3 0 01-.02.537L1 6.5" stroke="#4F5030" stroke-linecap="round"/></svg><svg fill="none" viewBox="0 0 12 22" id="arrow-left" xmlns="http://www.w3.org/2000/svg"><path d="M10.368 20.743L1 11.635 9.857 2" stroke="#FAF5EF" stroke-width="2" stroke-linecap="round" stroke-linejoin="round"/></svg><svg fill="none" viewBox="0 0 13 22" id="arrow-right" xmlns="http://www.w3.org/2000/svg"><path d="M1.857 20.743l9.368-9.108L2.37 2" stroke="#FAF5EF" stroke-width="2" stroke-linecap="round" stroke-linejoin="round"/></svg><svg fill="none" viewBox="0 0 32 32" id="fb" xmlns="http://www.w3.org/2000/svg"><path d="M31.674 15.598a15.603 15.603 0 10-18.041 15.603V20.143h-3.9v-4.545h3.9v-3.452a5.52 5.52 0 015.85-6.124c1.17.017 2.338.121 3.492.312v3.901h-1.95a2.263 2.263 0 00-2.536 2.457v2.945h4.33l-.702 4.545h-3.608v10.922a15.602 15.602 0 0013.165-15.505z" fill="#DFD3BD"/></svg><svg fill="none" viewBox="0 0 32 33" id="instagram" xmlns="http://www.w3.org/2000/svg"><path d="M9.244.803h13.187c5.023 0 9.104 4.081 9.104 9.105v13.186a9.105 9.105 0 01-9.104 9.105H9.244c-5.023 0-9.104-4.082-9.104-9.105V9.908A9.105 9.105 0 019.244.803zm-.314 3.14a5.651 5.651 0 00-5.65 5.65v13.815a5.648 5.648 0 005.65 5.651h13.815a5.651 5.651 0 005.65-5.651V9.594a5.648 5.648 0 00-5.65-5.652H8.93zM24.08 6.296a1.962 1.962 0 110 3.925 1.962 1.962 0 010-3.925zm-8.241 2.355a7.849 7.849 0 110 15.697 7.849 7.849 0 010-15.697zm0 3.14a4.71 4.71 0 100 9.418 4.71 4.71 0 000-9.419z" fill="#DFD3BD"/></svg><svg fill="none" viewBox="0 0 19 25" id="map" xmlns="http://www.w3.org/2000/svg"><path d="M9.5 2.252c-1.96 0-3.84.83-5.225 2.307C2.89 6.036 2.111 8.04 2.111 10.13c0 3.221 1.881 6.328 3.946 8.736A28.196 28.196 0 009.5 22.235a28.278 28.278 0 003.443-3.37c2.065-2.409 3.946-5.515 3.946-8.737 0-2.089-.779-4.093-2.164-5.57C13.339 3.082 11.46 2.252 9.5 2.252zM9.5 25l-.598-.439-.004-.002-.006-.006-.021-.015-.08-.06-.284-.222a30.321 30.321 0 01-4.008-3.871C2.34 17.866 0 14.22 0 10.128c0-2.686 1-5.262 2.782-7.161C4.564 1.067 6.98 0 9.5 0c2.52 0 4.936 1.067 6.718 2.967C17.998 4.866 19 7.442 19 10.128c0 4.093-2.341 7.74-4.499 10.255a30.317 30.317 0 01-4.007 3.87c-.12.097-.241.19-.364.283l-.022.016-.006.006H10.1L9.5 25zm0-17.121c-.56 0-1.097.237-1.493.659a2.328 2.328 0 00-.618 1.591c0 .597.222 1.17.618 1.592.396.422.933.66 1.493.66s1.097-.238 1.493-.66c.396-.422.618-.995.618-1.592 0-.597-.222-1.169-.618-1.591a2.047 2.047 0 00-1.493-.66zm-4.222 2.25c0-1.193.445-2.338 1.236-3.183.792-.844 1.866-1.318 2.986-1.318s2.194.474 2.986 1.318a4.657 4.657 0 011.236 3.183 4.657 4.657 0 01-1.236 3.183c-.792.845-1.866 1.319-2.986 1.319s-2.194-.474-2.986-1.319a4.657 4.657 0 01-1.236-3.183z" fill="#DFD3BD"/></svg><svg fill="none" viewBox="0 0 16 16" id="phone" xmlns="http://www.w3.org/2000/svg"><g clip-path="url(#iclip0_33_21)"><path fill-rule="evenodd" clip-rule="evenodd" d="M1.885.511a1.745 1.745 0 012.61.163L6.29 2.98c.329.423.445.974.315 1.494l-.547 2.19a.68.68 0 00.178.643l2.457 2.457a.68.68 0 00.644.178l2.189-.547a1.75 1.75 0 011.494.315l2.306 1.794c.829.645.905 1.87.163 2.611l-1.034 1.034c-.74.74-1.846 1.065-2.877.702a18.6 18.6 0 01-7.01-4.42 18.6 18.6 0 01-4.42-7.009c-.362-1.03-.037-2.137.703-2.877L1.885.511z" fill="#DFD3BD"/></g><defs><clipPath id="iclip0_33_21"><path fill="#fff" d="M0 0h16v16H0z"/></clipPath></defs></svg><svg fill="none" viewBox="0 0 21 21" id="phone-f" xmlns="http://www.w3.org/2000/svg"><path fill-rule="evenodd" clip-rule="evenodd" d="M2.416.654A2.236 2.236 0 015.76.863l2.3 2.954c.422.542.57 1.248.404 1.915l-.701 2.806a.871.871 0 00.228.823l3.148 3.149a.87.87 0 00.825.228l2.805-.701a2.243 2.243 0 011.914.403l2.955 2.3a2.235 2.235 0 01.209 3.345l-1.325 1.325c-.948.948-2.365 1.364-3.686.899a23.833 23.833 0 01-8.982-5.663A23.832 23.832 0 01.19 5.665c-.464-1.32-.047-2.738.901-3.686L2.416.654z" fill="#DFD3BD"/></svg><svg fill="none" viewBox="0 0 19 14" id="product-list" xmlns="http://www.w3.org/2000/svg"><path d="M17.782.923a1.688 1.688 0 01.068 2.386L8.28 13.441a1.689 1.689 0 01-2.42.034L.795 8.409a1.689 1.689 0 012.387-2.387L7.02 9.86 15.396.99a1.689 1.689 0 012.386-.067z" fill="#DFD3BD"/></svg><svg fill="none" viewBox="0 0 24 24" id="star" xmlns="http://www.w3.org/2000/svg"><path d="M5.825 21l1.625-7.025L2 9.25l7.2-.625L12 2l2.8 6.625 7.2.625-5.45 4.725L18.175 21 12 17.275 5.825 21z" fill="#C59253"/></svg><svg fill="none" viewBox="0 0 25 24" id="time" xmlns="http://www.w3.org/2000/svg"><path d="M16.737 6.053l-9.684 9.684" stroke="#DFD3BD" stroke-width="1.5" stroke-linecap="round"/><path d="M15.526 10.895h4.282a.3.3 0 01.25.466l-4.532 6.797M10.684 5.773H7.121a.3.3 0 01-.235-.486l3.263-4.113a.3.3 0 01.535.187v4.412zm0 0v2.7m0-2.7h1.21M1 3.852v-.365c0-.61.25-1.194.692-1.616v0a2.387 2.387 0 011.648-.66h.441c.435 0 .853.167 1.168.468l.008.007c.128.123.235.265.317.422v0a1.624 1.624 0 01-.317 1.928l-1.19 1.136-.159.152A16.962 16.962 0 001.414 7.88v0a.377.377 0 00.309.593h4.12" stroke="#DFD3BD" stroke-width="1.6" stroke-linecap="round"/><path d="M3.421 12.71c0 5.683 4.607 10.29 10.29 10.29C19.393 23 24 18.393 24 12.71c0-5.682-4.608-10.289-10.29-10.289" stroke="#DFD3BD" stroke-width="2" stroke-linecap="round"/></svg><svg fill="none" viewBox="0 0 32 31" id="tt" xmlns="http://www.w3.org/2000/svg"><path fill-rule="evenodd" clip-rule="evenodd" d="M22.442 30.806a9.026 9.026 0 009.026-9.026V9.222A9.026 9.026 0 0022.442.195H9.884A9.026 9.026 0 00.857 9.222V21.78a9.026 9.026 0 009.027 9.026h12.558zM18.85 5.71a1.177 1.177 0 00-2.294.372V20.21a3.532 3.532 0 11-3.532-3.532 1.177 1.177 0 100-2.355 5.887 5.887 0 105.887 5.887V9.94c1.204 1.118 2.9 2.029 5.102 2.029a1.178 1.178 0 000-2.355c-1.526 0-2.686-.628-3.546-1.443-.88-.835-1.41-1.84-1.617-2.461z" fill="#DFD3BD"/></svg><svg fill="none" viewBox="0 0 28 28" id="whatsapp" xmlns="http://www.w3.org/2000/svg"><path d="M14.001 2.333c6.444 0 11.667 5.223 11.667 11.667 0 6.443-5.223 11.666-11.667 11.666a11.608 11.608 0 01-5.868-1.58l-5.794 1.58 1.577-5.796A11.608 11.608 0 012.334 14c0-6.444 5.224-11.667 11.667-11.667zm-3.976 6.183l-.233.01c-.151.01-.298.05-.434.116a1.517 1.517 0 00-.343.266c-.14.132-.22.247-.305.357a3.185 3.185 0 00-.66 1.958c.002.572.152 1.128.385 1.648.477 1.053 1.262 2.167 2.298 3.2.25.248.495.498.759.73a11.024 11.024 0 004.48 2.387l.662.101c.216.012.432-.004.649-.015.34-.018.671-.11.972-.27.152-.078.302-.164.447-.256 0 0 .049-.033.145-.105.158-.117.255-.2.386-.336.098-.101.18-.218.244-.352.091-.19.183-.553.22-.855.028-.232.02-.358.016-.436-.005-.125-.108-.254-.222-.309l-.678-.304s-1.015-.442-1.636-.725a.584.584 0 00-.206-.048.56.56 0 00-.44.149c-.006-.003-.084.064-.928 1.086a.408.408 0 01-.43.151 1.621 1.621 0 01-.222-.077c-.145-.06-.195-.084-.294-.126a7 7 0 01-1.838-1.17c-.147-.128-.283-.268-.423-.404a7.353 7.353 0 01-1.19-1.479l-.069-.11a1.167 1.167 0 01-.119-.24c-.044-.171.071-.309.071-.309s.284-.31.415-.478c.129-.164.237-.322.307-.436.138-.221.181-.449.109-.625a95.335 95.335 0 00-1.013-2.381c-.069-.156-.273-.268-.458-.29a3.885 3.885 0 00-.19-.02 3.5 3.5 0 00-.47.006l.236-.009z" fill="#DFD3BD"/></svg><svg fill="none" viewBox="0 0 22 22" id="whatsapp-f" xmlns="http://www.w3.org/2000/svg"><path d="M11.001.166c5.983 0 10.833 4.85 10.833 10.833 0 5.984-4.85 10.834-10.833 10.834a10.78 10.78 0 01-5.45-1.468L.173 21.833l1.465-5.382a10.78 10.78 0 01-1.47-5.452C.168 5.016 5.018.166 11.002.166zM7.31 5.908l-.217.008c-.14.01-.277.047-.403.109-.117.066-.224.15-.318.247-.13.122-.204.228-.283.331-.4.521-.616 1.16-.613 1.818.002.53.14 1.048.357 1.53.444.978 1.173 2.012 2.135 2.971.231.231.459.463.704.678a10.237 10.237 0 004.16 2.217l.615.094c.2.011.401-.004.603-.014.315-.017.623-.102.902-.25a5.41 5.41 0 00.415-.239s.046-.03.135-.097c.147-.108.236-.185.358-.312a1.26 1.26 0 00.227-.327c.085-.177.17-.514.204-.794.026-.215.018-.332.015-.404-.004-.116-.1-.236-.206-.287l-.63-.283s-.943-.41-1.52-.673a.54.54 0 00-.19-.044.52.52 0 00-.41.137c-.005-.002-.077.06-.86 1.009a.38.38 0 01-.4.14 1.514 1.514 0 01-.206-.07l-.273-.118A6.501 6.501 0 019.904 12.2c-.137-.12-.264-.25-.394-.375a6.827 6.827 0 01-1.105-1.374l-.064-.103a1.085 1.085 0 01-.11-.222c-.041-.16.066-.287.066-.287s.263-.288.386-.444c.119-.152.22-.3.285-.404.127-.206.168-.417.1-.58a88.572 88.572 0 00-.94-2.212c-.064-.145-.253-.25-.426-.27a3.25 3.25 0 00-.612-.013l.22-.007z" fill="#DFD3BD"/></svg></svg>