<?xml version="1.0" encoding="utf-8"?><svg viewBox="0 0 24 24" xmlns="http://www.w3.org/2000/svg" xmlns:xlink="http://www.w3.org/1999/xlink"><style>:root>svg{display:none}:root>svg:target{display:block}</style><svg fill="none" viewBox="0 0 24 24" id="calendar" xmlns="http://www.w3.org/2000/svg"><path fill-rule="evenodd" clip-rule="evenodd" d="M8 4a1 1 0 00-1 1v1H6a2 2 0 00-2 2v10a2 2 0 002 2h12a2 2 0 002-2V8a2 2 0 00-2-2h-1V5a1 1 0 00-2 0v1H9V5a1 1 0 00-1-1zm0 5a1 1 0 000 2h8a1 1 0 000-2H8z" fill="#B0BABF"/></svg><svg fill="none" viewBox="0 0 16 16" id="clear" xmlns="http://www.w3.org/2000/svg"><path fill-rule="evenodd" clip-rule="evenodd" d="M8 9.414l-3.293 3.293-1.414-1.414L6.586 8 3.293 4.707l1.414-1.414L8 6.586l3.293-3.293 1.414 1.414L9.414 8l3.293 3.293-1.414 1.414L8 9.414z" fill="#4094F7"/></svg><svg fill="none" viewBox="0 0 24 24" id="close" xmlns="http://www.w3.org/2000/svg"><path fill-rule="evenodd" clip-rule="evenodd" d="M6.293 6.293a1 1 0 011.414 0L12 10.586l4.293-4.293a1 1 0 111.414 1.414L13.414 12l4.293 4.293a1 1 0 01-1.414 1.414L12 13.414l-4.293 4.293a1 1 0 01-1.414-1.414L10.586 12 6.293 7.707a1 1 0 010-1.414z" fill="#B0BABF"/></svg><svg fill="none" viewBox="0 0 16 16" id="help" xmlns="http://www.w3.org/2000/svg"><path fill-rule="evenodd" clip-rule="evenodd" d="M16 8A8 8 0 11-.001 8 8 8 0 0116 8zM9 4a1 1 0 11-2 0 1 1 0 012 0zM7 7a1 1 0 000 2v3a1 1 0 001 1h1a1 1 0 000-2V8a1 1 0 00-1-1H7z" fill="#84919A"/></svg><svg fill="none" viewBox="0 0 16 16" id="logout" xmlns="http://www.w3.org/2000/svg"><path d="M10.778 5.876l.006.006 2 2s0 0 0 0a.167.167 0 010 .236s0 0 0 0l-1.995 1.996a.167.167 0 01-.236-.236l.858-.858.853-.853H6a.167.167 0 110-.334h6.264l-.853-.853-.862-.862h0l-.006-.006a.166.166 0 01.052-.274l-.187-.458.187.458a.167.167 0 01.13 0l.194-.453-.195.454c.02.008.039.021.054.037h0zM3.215 3.882A.167.167 0 013.5 4v8a.167.167 0 01-.333 0V4c0-.044.017-.087.048-.118z" fill="#252C32" stroke="#0E73F6"/></svg><svg fill="none" viewBox="0 0 24 24" id="plus" xmlns="http://www.w3.org/2000/svg"><path fill-rule="evenodd" clip-rule="evenodd" d="M12 7a1 1 0 011 1v3h3a1 1 0 010 2h-3v3a1 1 0 01-2 0v-3H8a1 1 0 010-2h3V8a1 1 0 011-1z" fill="#fff"/></svg><svg fill="none" viewBox="0 0 24 24" id="search" xmlns="http://www.w3.org/2000/svg"><path fill-rule="evenodd" clip-rule="evenodd" d="M10 6a4 4 0 100 8 4 4 0 000-8zm-6 4a6 6 0 1110.89 3.477l4.817 4.817a1 1 0 01-1.414 1.414l-4.816-4.816A6.001 6.001 0 014 10z" fill="#B0BABF"/></svg></svg>