<svg width="347" height="95" viewBox="0 0 347 95" fill="none" xmlns="http://www.w3.org/2000/svg">
<path d="M4 15.9734V88.6224H8.32106M8.32106 88.6224H50.1337L51.2453 84.1858L8.32106 88.6224Z" stroke="white" stroke-width="7.22575"/>
<path d="M119.056 16.5248C137.636 16.5248 152.406 33.5824 152.406 54.2387C152.406 62.0122 151.257 69.8441 148.121 76.4145L147.811 77.0463C145.205 82.2235 141.204 86.2446 136.595 89.0082L136.148 89.2709C133.729 90.6673 130.702 91.3189 127.725 91.6371C124.732 91.9571 121.644 91.9525 119.056 91.9525C108.462 91.9525 98.0727 86.6345 91.5591 77.932L91.2515 77.515C86.5966 71.0972 84.3169 62.8242 84.3169 54.2387C84.3169 47.0083 86.1054 39.6537 89.2603 33.4145C92.4104 27.1846 96.9749 21.9702 102.595 19.1664L102.61 19.1596L102.625 19.1518C107.659 16.7878 113.783 16.5248 119.056 16.5248Z" stroke="white" stroke-width="2.77914"/>
<path d="M118.223 15.6994C130.682 15.6994 143.233 20.2805 150.722 28.6779L151.074 29.0802C156.633 35.5435 158.798 44.7298 158.798 54.2394C158.798 75.9359 140.22 93.6105 118.223 93.6105C107.005 93.6105 95.5922 90.1127 88.4307 83.0041L88.0928 82.6623C81.2999 75.6778 78.2032 65.0022 78.2031 54.2394C78.2031 32.5559 96.2118 15.6994 118.223 15.6994Z" stroke="white" stroke-width="2.77914"/>
<path d="M84.4387 41.1464C84.415 41.5377 84.3176 41.9126 84.2167 42.2908C83.8746 43.5736 83.4959 44.8435 83.2038 46.1395C82.8601 47.6645 82.6072 49.2066 82.6072 50.7727C82.6072 51.3095 82.6072 51.8464 82.6072 52.3832C82.6072 52.9234 82.601 51.3011 82.6534 50.7635C82.9261 47.9649 83.7193 45.2842 84.3555 42.5585C84.3857 42.4288 84.522 41.7369 84.522 41.8293C84.522 42.0353 84.5032 42.1993 84.4387 42.3923" stroke="white" stroke-width="0.555827" stroke-linecap="round"/>
<path d="M85.6043 37.3254C85.6043 39.1653 85.2386 40.9958 85.1834 42.84C85.1722 43.2129 85.2233 43.822 85.0631 44.1736C84.9635 44.3924 85.0193 44.0077 85.0261 43.9291C85.1681 42.2998 85.3092 40.6478 85.521 39.0236C85.5869 38.5183 85.714 37.1045 86.2703 36.827" stroke="white" stroke-width="2.22331" stroke-linecap="round"/>
<path d="M91.432 27.4406C90.9881 27.6281 90.6099 28.1581 90.3312 28.5389C89.8468 29.201 89.3531 29.8337 88.8928 30.514C87.679 32.3083 86.7352 34.2178 85.7893 36.1625C85.3158 37.1359 84.9161 38.1807 84.6053 39.2174C84.2714 40.331 84.1766 41.4866 83.9346 42.6185C83.8167 43.1702 83.6965 43.7243 83.6247 44.2844C83.6079 44.416 83.6204 44.8092 83.5045 44.912C83.4501 44.9602 83.4397 44.5896 83.4397 44.5843C83.4397 44.126 83.4351 43.6674 83.4444 43.2092C83.4925 40.8291 83.8119 38.4144 84.3601 36.0979C84.6625 34.8202 85.034 33.3451 85.8541 32.2769C86.0018 32.0844 86.2284 31.657 86.1825 32.1384C86.153 32.4471 85.9858 32.7831 85.8726 33.0706C85.6672 33.5922 85.2197 34.0546 84.9383 34.5381C84.1628 35.8706 83.4535 37.2325 82.857 38.6544C81.7895 41.1986 80.9537 43.751 80.734 46.5133C80.6348 47.76 80.6924 51.5157 80.6924 50.2651C80.6924 49.4062 80.6953 48.5827 80.8774 47.7362C81.2377 46.0614 81.9433 44.4944 82.3112 42.8261C82.3858 42.4876 82.4407 41.9982 82.4407 42.6092C82.4407 43.3717 82.3837 44.0877 82.2927 44.8474C81.8893 48.2162 81.4522 51.5743 81.3214 54.9675C81.2767 56.1264 81.1086 57.3157 81.1086 58.4701C81.1086 59.1351 81.0254 57.1416 81.0254 56.4765C81.0254 54.2926 81.0404 52.0958 81.6498 49.979C81.71 49.7699 82.099 47.9946 82.4407 47.9946C82.5926 47.9946 82.5247 48.7279 82.5286 48.8022C82.6479 51.064 82.9197 53.3256 83.1252 55.5812C83.1347 55.6851 83.244 56.8737 83.1853 56.3473C83.1588 56.109 83.0132 55.6725 82.857 55.5166" stroke="white" stroke-width="2.22331" stroke-linecap="round"/>
<path d="M83.1898 53.1078C83.1898 55.309 83.1898 57.5102 83.1898 59.7114C83.1898 60.7208 83.126 61.7561 83.2268 62.7618C83.354 64.0311 83.7762 65.2772 84.1888 66.4766C84.5406 67.4991 84.8612 68.5276 85.1694 69.5639C85.2167 69.7232 85.3055 70.1052 85.2665 69.7161C85.2275 69.3277 85.0407 68.9529 84.9011 68.5948C84.1413 66.6454 83.5239 64.6404 82.9585 62.6279C82.3514 60.4669 81.9308 58.2838 81.3767 56.1166C81.3593 56.0486 81.2 55.4763 81.1963 55.4889C81.124 55.7415 81.2285 56.1027 81.275 56.3473C81.7996 59.1098 82.0899 61.9297 82.4405 64.7184C82.5912 65.917 82.654 67.1259 82.8151 68.3225C82.8625 68.6745 83.0037 69.0365 83.0233 69.3885C83.0525 69.9126 82.7955 68.3623 82.6394 67.861C81.6448 64.6681 81.2552 61.292 80.8587 57.9855C80.6408 56.1686 80.5257 54.2691 80.5257 52.4386C80.5257 51.8341 80.5257 51.2296 80.5257 50.625C80.5257 50.3552 80.5721 49.6473 80.5211 50.3343C80.4935 50.7052 80.3397 51.0497 80.2574 51.4095C80.0572 52.2855 79.9958 53.1726 79.8967 54.063C79.7154 55.691 79.5168 57.3281 79.6515 58.9685C79.8431 61.3 80.8137 63.5804 81.6912 65.7336C82.3964 67.4641 83.1719 69.1526 83.9391 70.856C84.9856 73.1795 85.8162 75.8321 87.3339 77.9073C87.4809 78.1082 87.2866 77.8277 87.2507 77.7781C86.999 77.4304 86.8491 77.0131 86.6725 76.6244C85.645 74.3629 84.4601 72.1596 83.3563 69.933C82.9918 69.1977 82.6861 68.4494 82.3572 67.6995C82.348 67.6784 82.1355 67.1857 82.1121 67.3257C81.9731 68.158 82.2281 69.0759 82.4868 69.85C82.979 71.3233 83.8531 72.5939 84.4386 74.0217C84.7353 74.7453 84.9897 75.657 85.6689 76.1168C86.1885 76.4686 86.0396 76.1588 85.9186 75.7476C85.2528 73.4841 84.9694 71.0425 84.7901 68.6963C84.7725 68.466 84.6445 67.4508 84.7901 68.161C84.9998 69.1841 85.6053 70.0369 86.0019 70.9852C86.6608 72.561 86.7807 74.461 88.4347 75.2861" stroke="white" stroke-width="2.22331" stroke-linecap="round"/>
<path d="M86.3535 78.1103C87.0221 79.2281 87.8881 80.1804 88.7632 81.1376C89.3762 81.8079 89.9548 82.522 90.6642 83.0942C91.7943 84.0059 93.0142 84.7665 94.1978 85.6046C95.1722 86.2946 96.3081 86.6425 97.4077 87.0813C98.4091 87.481 99.3724 87.9549 100.34 88.4288C100.762 88.6355 101.206 88.7663 101.635 88.9549C102.112 89.1644 102.587 89.223 103.069 89.4072C103.695 89.6464 104.391 89.6957 105.002 89.9702C105.122 90.0239 106.015 90.4505 105.696 90.3855C104.901 90.2233 104.143 89.6873 103.379 89.4072C102.46 89.0703 101.551 88.7651 100.673 88.3273C99.5951 87.7896 98.5857 87.1924 97.5742 86.5645C96.2904 85.7675 95.1573 84.7775 93.9295 83.9064C92.4783 82.8767 91.1748 81.6146 89.9334 80.3531C88.9125 79.3156 88.2667 78.2035 87.6856 76.8828C87.4354 76.3144 87.2037 75.7209 86.8577 75.203C86.5971 74.813 86.8023 74.9481 87.001 75.203C87.5284 75.8796 88.2306 76.4052 88.8141 77.0351C89.7107 78.0029 90.5864 79.0008 91.5152 79.9377C92.725 81.1583 93.8823 82.4135 94.8453 83.8418C95.066 84.169 95.3034 84.4881 95.553 84.7924C95.6755 84.9419 95.8685 84.9938 95.9276 85.1708" stroke="white" stroke-width="2.22331" stroke-linecap="round"/>
<path d="M137.152 20.8648C137.237 21.2443 138.192 21.7059 138.489 21.9894C139 22.4773 139.517 22.9792 140.043 23.4513C140.721 24.0604 141.551 24.6277 142.112 25.347C142.921 26.3852 143.825 27.406 144.696 28.3834C145.706 29.5175 146.482 31.0002 147.288 32.2872C149.091 35.1646 150.063 38.3183 151 41.5489C151.916 44.7072 152.658 48.21 152.658 51.5175" stroke="white" stroke-width="2.22331" stroke-linecap="round"/>
<path d="M153.963 52.2404C153.963 49.4766 154.372 46.3676 153.673 43.6776C152.937 40.8475 151.523 38.3948 150.348 35.7573C149.013 32.7612 147.473 29.8617 145.702 27.1142C144.971 25.9798 144.061 24.3006 142.659 23.9011C142.096 23.7406 141.455 23.2683 140.92 23.0015C140.757 22.9199 140.383 22.5892 140.775 22.7765C141.941 23.3326 143.08 24.1515 144.165 24.849C145.993 26.0248 147.549 27.6326 148.899 29.3151C149.851 30.5036 150.98 31.6831 151.499 33.1548C151.83 34.0949 152.362 34.9224 152.69 35.8698C153.101 37.0546 153.647 38.2047 154.107 39.372C155.066 41.8046 155.736 44.395 156.209 46.9629C156.919 50.8199 157.473 55.3324 156.281 59.1806C155.978 60.1592 155.806 61.1883 155.557 62.1848C155.267 63.3422 154.778 64.4541 154.47 65.6148C154.119 66.9341 153.838 68.3934 153.238 69.591" stroke="white" stroke-width="2.22331" stroke-linecap="round"/>
<path d="M153.093 69.591C152.899 72.4915 151.169 75.3603 149.792 77.8325C149.546 78.2736 149.18 78.4552 149.18 77.8003C149.18 77.1364 149.257 76.5351 149.534 75.9207C150.3 74.2278 151.274 72.6052 152.078 70.9244C153.612 67.7194 154.798 64.3604 155.669 60.9157C156 59.6082 156.444 57.9067 156.249 56.5459C155.961 54.5344 155.169 52.652 154.832 50.6499C154.587 49.1984 154.252 44.8002 154.252 46.2721C154.252 48.6294 154.189 50.9954 154.333 53.3489C154.525 56.4984 154.837 59.8516 154.47 63.0042C154.258 64.8167 153.654 66.4008 153.173 68.1451C152.803 69.4897 152.595 71.4379 151.724 72.555C151.557 72.7695 151.499 72.812 151.499 72.4667C151.499 71.7026 151.469 70.9324 151.507 70.1693C151.585 68.6124 152.321 67.0539 152.811 65.5987C153.492 63.5773 154.352 61.5893 154.751 59.4859C155 58.1801 155.556 56.6913 155.556 55.3571C155.556 54.5005 154.992 55.6149 154.832 55.8551" stroke="white" stroke-width="2.22331" stroke-linecap="round"/>
<path d="M86.2625 6.54572V1.27729L117.389 2.38643L148.515 1V6.54572L117.389 5.15929L86.2625 6.54572Z" fill="white" stroke="white" stroke-width="1.11165"/>
<path d="M241.732 20.892L237.828 25.8264C237.76 25.9116 237.675 25.9809 237.578 26.0294C237.328 26.1542 237.028 26.1273 236.804 25.9597L234.946 24.5693L231.333 22.351L227.165 20.1327C224.262 18.6846 221.03 17.9144 217.786 17.9144H217.019C216.004 17.9144 214.993 18.0253 214.002 18.245C213.329 18.3941 212.668 18.593 212.025 18.8399L211.147 19.1767C209.97 19.6284 208.831 20.1742 207.741 20.8085L207.184 21.1323C206.425 21.5743 205.704 22.0788 205.028 22.6406L203.851 23.6195C203.096 24.247 202.467 25.0116 201.996 25.8729C201.369 27.0189 201.041 28.3039 201.041 29.61V31.0836C201.041 32.2772 201.25 33.4616 201.659 34.5831C201.986 35.4819 202.438 36.3303 203.002 37.1034L203.581 37.898C204.11 38.6237 204.697 39.3085 205.333 39.9428C206.539 41.1461 207.919 42.1678 209.423 42.9681L211.324 43.9793L219.661 48.1386L227.165 51.4661L230.765 53.4253C232.438 54.3359 234.035 55.3803 235.54 56.5483L236.554 57.3352C237.703 58.2266 238.761 59.2283 239.715 60.326L240.417 61.1342C241.396 62.2617 242.203 63.5282 242.811 64.8925C243.672 66.8265 244.117 68.9201 244.117 71.0373V73.1487C244.117 74.7575 243.772 76.3475 243.105 77.8115C242.854 78.363 242.559 78.8933 242.222 79.3972L241.606 80.3186C240.14 82.5131 238.335 84.4609 236.257 86.0893L235.502 86.6814C233.283 87.9728 230.953 89.0628 228.54 89.9385L226.053 90.8407C222.728 91.5779 219.332 91.9498 215.927 91.9498H211.324L208.822 91.6725L206.801 91.2523C203.706 90.6091 200.666 89.7299 197.706 88.6224C194.747 87.1462 191.918 85.4225 189.249 83.4698L189.091 83.354L194.649 77.8082L197.428 79.472L203.264 83.354L208.267 86.4041L208.63 86.5855C210.95 87.7427 213.507 88.3451 216.099 88.3451C217.724 88.3451 219.34 88.1084 220.897 87.6425L221.329 87.5133L224.664 86.1268L228.832 84.1858L230.858 82.8999C231.544 82.4639 232.193 81.9717 232.799 81.4283L233.631 80.6806C234.318 80.0642 234.895 79.3357 235.337 78.5261C235.992 77.3274 236.336 75.9831 236.336 74.6169V72.9157C236.336 71.3921 235.98 69.8896 235.298 68.5275C234.88 67.6943 234.346 66.925 233.711 66.2429L232.825 65.2909C231.651 64.0292 230.309 62.9344 228.838 62.037L226.053 60.3392L219.383 57.2891L212.157 53.9616L207.796 51.7856C205.889 50.8346 204.06 49.7359 202.325 48.4995L200.751 47.3776C199.65 46.5928 198.627 45.7031 197.698 44.7211L196.295 43.2386C195.029 41.9015 194.085 40.2932 193.535 38.5362C193.168 37.3655 192.981 36.1458 192.981 34.919V33.4668C192.981 31.258 193.455 29.0749 194.371 27.0649L194.781 26.3633C195.8 24.62 197.04 23.0154 198.47 21.5891L198.513 21.5457C199.271 20.7895 200.082 20.0881 200.939 19.4466C202.299 18.4284 203.77 17.5667 205.324 16.8778L205.514 16.7937C207.159 16.0642 208.879 15.5185 210.644 15.1663L211.659 14.9637C213.839 14.5288 216.056 14.3097 218.278 14.3097H222.996L223.624 14.3952C227.275 14.8919 230.877 15.6982 234.39 16.8053L236.685 17.6955C238.481 18.3923 240.166 19.3462 241.688 20.5273C241.802 20.6154 241.821 20.7792 241.732 20.892Z" fill="white" stroke="white" stroke-width="1.11165"/>
<path d="M281.08 15.4189H288.584V54.2389L303.035 50.0797L331.382 15.4189H341.109L307.204 50.6342L345 90.5634H334.717L300.256 54.2389L288.861 57.2891L288.584 54.2389V90.5634H280.802L281.08 15.4189Z" fill="white"/>
<path d="M288.584 54.2389V15.4189H281.08L280.802 90.5634H288.584V54.2389ZM288.584 54.2389L303.035 50.0797L331.382 15.4189H341.109L307.204 50.6342L345 90.5634H334.717L300.256 54.2389L288.861 57.2891L288.584 54.2389Z" stroke="white" stroke-width="1.11165"/>
</svg>
