<svg width="1440" height="155" viewBox="0 0 1440 155" fill="none" xmlns="http://www.w3.org/2000/svg">
<path d="M-21.6448 48.2304L-21.6136 56.8114L-21.4368 105.411L-21.26 154.012L1446.48 148.673L1443.34 31.9907L1443.31 1.11661C1443.31 0.565206 1442.86 0.118281 1442.31 0.117555L1423.85 0.0936621L1264.31 0.673998L1015.48 4.11831L939.247 10.5841L863.304 19.588L709.233 43.0574L504.285 71.3716L440.843 74.4699L387.116 74.3837L276.626 63.3501L174.705 46.5677L70.323 27.8882L15.7625 16.4654C10.4748 15.3584 4.98746 15.6839 -0.132203 17.4084C-6.20325 19.4534 -11.4707 23.3684 -15.1793 28.592L-15.6172 29.2088C-19.5619 34.765 -21.6696 41.4162 -21.6448 48.2304Z" fill="#DFD3BD"/>
</svg>
