<svg width="1440" height="155" viewBox="0 0 1440 155" fill="none" xmlns="http://www.w3.org/2000/svg">
<path d="M-45.8421 49.8363L-45.8128 57.8994L-45.8084 59.1003C-45.6156 112.119 -2.47885 154.943 50.5401 154.75L1502.54 149.469L1499.25 32.7873L1499.22 1.9136C1499.22 1.36204 1498.78 0.914976 1498.23 0.914403L1478.7 0.89412L1310.44 1.50619L1048 5L967.597 11.481L887.5 20.5L725 44L508.84 72.355L441.928 75.4659L385.263 75.3904L268.733 64.3788L161.243 47.6166L51.1567 28.9579L-6.57617 17.508C-12.0372 16.425 -17.6925 16.7486 -22.9957 18.4432C-29.4969 20.5206 -35.1999 24.5761 -39.2909 30.039C-43.5683 35.7507 -45.8681 42.7006 -45.8421 49.8363Z" fill="#DFD3BD"/>
</svg>
