<svg width="174" height="116" viewBox="0 0 174 116" fill="none" xmlns="http://www.w3.org/2000/svg">
<path d="M47 68.7031L46.0745 71.7746C45.6936 73.0389 45.5 74.3521 45.5 75.6725V75.6725M47 68.7031L49.925 66.6229C50.3077 66.3507 50.6672 66.0475 51 65.7162V65.7162M47 68.7031L45.5 65.2183L44 59.7424L43 54.2664L42 49.2882L40.9892 45.2629C40.6646 43.9701 40.1635 42.7281 39.5 41.5721V41.5721M53 63.7249L51 65.7162M53 63.7249L52 62.2314L51.5295 61.2946C51.1813 60.6013 51 59.8361 51 59.0602V59.0602C51 58.5229 50.913 57.9891 50.7424 57.4796L50.5 56.7555L50 54.2664M53 63.7249L55.5 62.0655M57.5 65.2183L56.6885 66.0263C54.9125 67.7945 53.4909 69.8858 52.5 72.1878V72.1878L52.3919 72.4389C51.4817 74.5535 51.173 76.8784 51.5 79.1572V79.1572V79.1572C52.1625 81.7957 53.2367 84.3134 54.6831 86.6175L55 87.1223L56 88.6157M58 92.5983L61.5 96.083M68.5 69.2009L70.5 73.1834L70.6081 73.4346C71.532 75.5809 72.1681 77.8398 72.5 80.1528V80.1528L72.6323 81.3383C72.875 83.513 73.5492 85.6174 74.6155 87.5283V87.5283C75.2034 88.5819 75.9054 89.5677 76.709 90.4677L79.5 93.5939V93.5939C80.8305 95.581 81.9757 97.686 82.9212 99.8825L83 100.066M82.5 92.5983L84.5144 95.8071C84.7806 96.2312 85.3439 96.3525 85.761 96.0756V96.0756C86.1696 95.8044 86.7206 95.9146 86.9935 96.3221L87.3339 96.8305C87.4436 96.9943 87.52 97.1781 87.5588 97.3714L88 99.5677M78.5 81.1485L81.5 85.131M67 72.6856V72.6856C67.6591 73.6699 68.1012 74.7833 68.2967 75.9517L68.3607 76.334C68.4534 76.8877 68.5 77.4481 68.5 78.0094V79.1572M73.5 104.048L76.5 106.537L76.9706 107.006C77.9764 108.007 79.2012 108.761 80.5484 109.208L81.0531 109.376C81.3501 109.474 81.6356 109.605 81.9043 109.766L82.8345 110.321C83.5573 110.753 84 111.533 84 112.375V112.375M84 112.375V112.375C83.0022 112.465 81.9982 112.461 81.0013 112.362L80.6679 112.329C78.57 112.12 76.5203 111.57 74.5996 110.701L72 109.524L67.5 107.035L64.75 105.541M84 112.375L87.2295 112.083M84 108.031L85.0551 108.731C85.351 108.927 85.6268 109.152 85.8784 109.403L86.0573 109.581C86.3505 109.873 86.5947 110.21 86.7804 110.58V110.58C86.9262 110.871 87.0346 111.178 87.103 111.496L87.2295 112.083M87.2295 112.083V112.083C87.7424 112.036 88.251 111.951 88.7508 111.826L91.2646 111.201C91.7479 111.08 92.1958 110.847 92.5714 110.52V110.52M88 105.044L88.3298 105.7C88.7705 106.578 89 107.546 89 108.528V108.528M98.5 98.0742L98.4169 98.4881C98.1451 99.8411 97.478 101.083 96.5 102.057V102.057L94.5 104.546L92 107.035M92.5714 110.52H96.5M92.5714 110.52L94.5 108.84M96.5 110.52V110.52C98.4674 110.193 100.319 109.37 101.879 108.127L102 108.031L105.5 105.541L106.062 105.044M96.5 110.52V112.083V114C96.5 114.552 96.0523 115 95.5 115H94M77 61.4017L74.5 61.2358L74.3261 61.2012C71.1185 60.5625 67.9909 59.5724 65 58.2489V58.2489L63.4367 57.3595C62.3838 56.7604 61.0437 57.1663 60.5 58.2489V58.2489L60.1984 58.7494C59.425 60.0327 58.2185 60.9974 56.7964 61.4693L56.5696 61.5446C56.1915 61.6701 55.8319 61.8452 55.5 62.0655V62.0655M77 61.4017L82 61.7336L86.8324 62.3751C88.604 62.6103 90.3397 63.0637 92 63.7249V63.7249V63.7249C94.6595 64.7178 97.2087 65.9842 99.6067 67.5035L101.5 68.7031V68.7031C103.78 70.3242 105.514 72.5988 106.473 75.2263L106.606 75.5905C106.868 76.3079 107.076 77.0441 107.226 77.7929L107.536 79.3381C107.845 80.8731 108 82.4349 108 84.0006V84.4712C108 87.8512 107.21 91.1843 105.693 94.2048V94.2048C105.232 95.1239 104.705 96.0089 104.118 96.8533L100.5 102.057L97.2631 105.996C96.4225 107.019 95.4983 107.97 94.5 108.84V108.84M77 61.4017L77.4797 61.3487C78.0931 61.2808 78.5997 60.8388 78.75 60.2402V60.2402M78.75 60.2402L78.7721 60.152C79.2531 58.2367 80.0911 56.4294 81.2422 54.8248V54.8248C81.7465 54.1219 82.3081 53.4618 82.9213 52.8513L83.0007 52.7722C83.6658 52.1101 84.3844 51.504 85.1492 50.9601L85.6888 50.5762C86.8928 49.72 88.1853 48.9958 89.5441 48.416V48.416C90.5133 48.0024 91.4493 47.5152 92.3439 46.9585L95 45.3057L96.5 44.559M78.75 60.2402L78.101 57.9138C77.7024 56.4853 77.0995 55.1219 76.311 53.8658V53.8658C75.4425 52.4823 74.3594 51.2458 73.1022 50.2027L72 49.2882L69.6811 46.9795C68.5776 45.8807 67.2191 45.0724 65.7269 44.6267V44.6267M39.5 41.5721L38.5 39.8297L36 35.8472L34.5 33.3581V33.3581C33.8406 32.2639 34.6286 30.869 35.9061 30.869H37.1235C37.3729 30.869 37.6206 30.909 37.8573 30.9876L39.2299 31.4431C40.0737 31.7231 40.8814 32.1019 41.6362 32.5716L44.5 34.3537L48.5 37.3406L54 41.3231L54.2185 41.4475C56.3811 42.6778 58.7821 43.4305 61.26 43.6547V43.6547C62.4171 43.7595 63.5608 43.9797 64.674 44.3122L65.7269 44.6267M39.5 41.5721L40.7338 41.1114C41.1829 40.9437 41.6883 41.1066 41.955 41.5049V41.5049C41.985 41.5496 42.0114 41.5966 42.034 41.6454L43.5 44.8079L44.5 47.7948L46 51.2795L46.631 53.4785C46.8758 54.3314 47 55.2144 47 56.1018V56.1018C47 57.5154 47.3151 58.9113 47.9224 60.1878L48.0265 60.4066C48.3406 61.0668 48.5612 61.7676 48.6817 62.4887L48.9097 63.8519C48.969 64.2068 49.1133 64.5421 49.3301 64.8293L49.3973 64.9182C49.7769 65.4207 50.3702 65.7162 51 65.7162V65.7162M54 59.2445L54.7997 60.4388C54.9303 60.6339 55 60.8633 55 61.098V61.1335C55 61.5083 55.1877 61.8582 55.5 62.0655V62.0655M65.5 47.7948L66.6472 48.937C66.873 49.1618 67 49.4674 67 49.786V49.786C67 50.1047 67.127 50.4102 67.3528 50.6351L67.5015 50.7832C67.8208 51.101 68.2529 51.2795 68.7034 51.2795H69V51.2795C70.2261 51.2795 71.3473 51.9711 71.8976 53.0668L72 53.2707M115.5 88.6157L114.767 90.0752C114.59 90.4274 114.358 90.7488 114.078 91.0269L114.058 91.0467C113.381 91.7212 113 92.6379 113 93.5939V93.5939M107.5 98.5721L106.678 99.8001C105.894 100.97 104.998 102.059 104 103.052V103.052L102.335 104.711C101.784 105.259 101.128 105.69 100.406 105.977L99.9896 106.143C99.3409 106.401 98.7702 106.823 98.3328 107.367V107.367C97.4985 108.406 96.2064 108.967 94.878 108.868L94.5 108.84M85.5 113.009V113.504C85.5 113.781 85.725 114.004 86.0011 114.004V114.004C86.276 114.004 86.5 114.227 86.5 114.502V114.502V114.502C86.5 114.777 86.7229 115 86.9978 115H88M94 115V113.509C94 113.233 93.7761 113.009 93.5 113.009V113.009C93.2239 113.009 93 112.785 93 112.509V111.017M94 115H91.5M91.5 113.507V115M91.5 115H89.5M89.5 115V114.004M89.5 115H88M88 115V114.004M106.062 105.044L106.767 106.264C107.254 107.106 107.849 107.88 108.538 108.566V108.566C109.177 109.202 109.891 109.758 110.665 110.22L110.823 110.314C111.605 110.782 112.436 111.162 113.302 111.449L115 112.013V112.013C116.328 112.344 117.692 112.511 119.061 112.511H119.5M106.062 105.044L109.769 101.763M118.2 89.1135L118 89.6114L115.714 93.5939M118.2 89.1135V89.1135C119.394 86.1425 120.148 83.0134 120.439 79.8248L120.5 79.1572V73.1834L120.49 73.0872C120.166 69.8534 119.325 66.6926 118 63.7249V63.7249L115.5 58.2489L113 53.2707L110.375 48.7904M118.2 89.1135L123 85.6288L123.141 85.5287C125.361 83.9501 127.857 82.802 130.5 82.1441V82.1441L133 81.833M154.5 83.1397L157.27 83.5337C157.689 83.5933 158 83.9519 158 84.375V84.375C158 84.5433 157.95 84.7079 157.856 84.8477L157 86.1266L155.5 88.6157L155.06 89.3463C154.357 90.5122 153.831 91.7759 153.5 93.0961V93.0961M152 88.1179L151.972 88.1398C150.337 89.4425 148.484 90.4462 146.5 91.1048V91.1048L145.5 91.6026M131 96.5808L134.5 96.1452M134.5 96.1452L135 96.083L135.092 96.06C137.685 95.4146 140.178 94.4174 142.5 93.0961V93.0961L145.5 91.6026M134.5 96.1452L145.5 91.6026M145.5 89.6114V89.6114C146.155 88.6327 147.055 87.8418 148.109 87.3169L148.5 87.1223M145.5 102.057L147.104 100.06C147.335 99.7726 147.735 99.6848 148.065 99.8491V99.8491C148.332 99.9817 148.5 100.254 148.5 100.551V101.559M142 104.546L138 106.537L134.5 108.528L132 109.524M132 109.524V109.524C132 110.914 130.902 112.057 129.513 112.112L119.5 112.511M132 109.524H119.5M119.5 112.511H123H130L132.246 112.336C134.408 112.168 136.544 111.752 138.612 111.096L139.645 110.769C141.209 110.273 142.705 109.583 144.098 108.717V108.717C145.362 107.93 146.533 107.002 147.588 105.952L149 104.546L150.002 103.264C151.664 101.135 153.152 98.8752 154.45 96.5063L155.5 94.5895L157 91.6026L159 88.6157L161.91 83.7874C161.97 83.6879 162.042 83.5961 162.124 83.5141V83.5141C163.076 82.5664 162.301 80.9492 160.966 81.0969L160.5 81.1485L154.5 81.6463H147.5H139H134.5L133 81.833M119 109.524V109.524C118.485 108.562 117.634 107.822 116.61 107.444L116.123 107.265C115.709 107.112 115.314 106.912 114.947 106.668L114.921 106.65C114.313 106.247 113.791 105.727 113.385 105.121V105.121C113.129 104.739 112.827 104.391 112.485 104.083L110.631 102.42C110.362 102.178 110.074 101.959 109.769 101.763V101.763M109.769 101.763V101.763C109.923 101.627 110.065 101.479 110.193 101.319L112.084 98.9652C113.359 97.378 114.509 95.6938 115.523 93.9279L115.714 93.5939M115 108.528H113.525C113.18 108.528 112.839 108.448 112.53 108.295V108.295C112.183 108.122 111.886 107.861 111.67 107.538L111.407 107.145C111.138 106.743 110.798 106.393 110.405 106.112L109.769 105.657M115.714 93.5939L119.5 91.1048L121.5 90.1092V90.1092C122.824 89.4502 124.25 89.0202 125.717 88.8376L127.5 88.6157L129.5 88.1179M155.5 81.1485L156.074 80.6725C157.674 79.3448 158.982 77.7001 159.915 75.8419V75.8419C160.304 75.0667 160.626 74.2592 160.876 73.4286L161.055 72.8346C161.682 70.7552 162 68.5952 162 66.4235V65.2183L162.5 60.2402L162.974 58.0391C163.656 54.8677 164.646 51.7703 165.928 48.7906L167 46.3013L170 40.3275L172.429 34.0405C172.476 33.9178 172.509 33.7902 172.528 33.66L172.683 32.5827C172.817 31.6473 171.846 30.9457 171 31.3668V31.3668L170.412 31.6598C168.807 32.4585 167.278 33.3997 165.842 34.472V34.472C164.616 35.3874 163.321 36.2075 161.97 36.925L156.5 39.8297L155.619 40.2682C152.883 41.6301 150.325 43.3219 148 45.3057V45.3057L147.429 45.7115C145.493 47.0889 143.822 48.8068 142.5 50.7817V50.7817L141.5 52.7729M141.5 52.7729L140.942 54.9934C140.649 56.1637 140.5 57.3656 140.5 58.5722V58.5722C140.5 60.0083 140.289 61.4367 139.875 62.8117L139 65.7162L137.5 71.1921L137.118 72.902C136.708 74.742 136.072 76.5245 135.226 78.2093L134.695 79.2668C134.233 80.1861 133.664 81.0475 133 81.833V81.833M141.5 52.7729V48.7904V44.31V32.8603V17.9258V12.4498V8.67246C141.5 7.74513 140.347 7.31725 139.742 8.02003L126.5 23.4017L126.125 23.8996M110.375 48.7904V48.7904C109.793 47.7968 109.122 46.8579 108.371 45.9852L106.5 43.8122L105.242 42.2472C104.761 41.6477 104.096 41.2226 103.35 41.0368L103.325 41.0307C102.783 40.8958 102.217 40.8958 101.675 41.0307V41.0307C100.915 41.2199 100.243 41.6646 99.7715 42.2902L99.5994 42.5187C99.2052 43.042 98.6947 43.4664 98.1082 43.7584L96.5 44.559M110.375 48.7904L112.5 43.3144V43.3144C113.492 40.6811 114.952 38.2489 116.809 36.1353L117.5 35.3493L126.125 23.8996M126.125 23.8996L125 20.9127L123.892 18.1548C123.3 16.681 122.516 15.2919 121.56 14.0233V14.0233C120.525 12.6495 119.692 11.1347 119.086 9.5251L118.5 7.96943V7.96943C117.844 5.68418 116.616 3.60426 114.931 1.92681L114.585 1.58278C114.29 1.28879 113.796 1.355 113.589 1.71638L113.491 1.886C112.503 3.60846 111.258 5.17057 109.8 6.51877L105 10.9563L98 16.0917M90.5 30.3712V28.3799V28.3799C90.5 26.103 91.1421 23.8722 92.3527 21.9438L93 20.9127L93.5099 20.3034C94.8318 18.7241 96.3394 17.31 98 16.0917V16.0917M90.5 30.3712L92 32.8603L94.411 36.861C94.803 37.5116 95.1423 38.1925 95.4254 38.8974V38.8974C95.8074 39.848 96.0853 40.8372 96.2545 41.8476L96.2945 42.0869C96.4313 42.9038 96.5 43.7307 96.5 44.559V44.559M90.5 30.3712L88 28.3799L87.1661 27.5497C86.059 26.4473 85.0806 25.2228 84.25 23.8996V23.8996C83.4194 22.5763 82.441 21.3518 81.3339 20.2495L79 17.9258L74.5 12.9476L71 9.46288L68.5 6.47598L67 4.48472V4.48472C66.5234 3.77287 65.4766 3.77287 65 4.48472L64 5.97817L62 8.96507L61.0554 10.6109C60.3529 11.8348 59.7501 13.1133 59.2527 14.4339V14.4339C58.7517 15.764 58.3594 17.1325 58.0794 18.5259L57.5 21.4105L57 27.8821V32.3624M64.75 105.541V105.541C62.9261 104.551 61.2532 103.305 59.7824 101.84L58.5 100.563L57.7338 99.8852C55.2509 97.6878 52.995 95.2466 51 92.5983V92.5983L50.7626 92.2201C49.258 89.8232 47.9975 87.2815 47 84.6332V84.6332L46 80.6507M64.75 105.541L64.4519 106.135C63.8512 107.331 62.7325 108.183 61.4198 108.445V108.445C61.1406 108.5 60.8566 108.528 60.5719 108.528H57.5H57.3266C54.7863 108.528 52.2568 108.198 49.8015 107.546V107.546C47.2785 106.877 44.8562 105.873 42.5988 104.562L40 103.052L35 99.5677L32.951 98.1105C29.6624 95.7718 26.6691 93.0436 24.0363 89.9854L22 87.6201L16.5 79.1572L11.5 70.6943L7.5 64.7205L3.5 60.2402L3.41275 60.1657C2.52632 59.4092 3.24279 57.9707 4.38061 58.2225V58.2225C4.45997 58.2401 4.541 58.2489 4.62228 58.2489H5.78362C6.92183 58.2489 8.05399 58.4144 9.14458 58.7401L12.5 59.7424L13.4269 59.8962C16.7843 60.4533 20.0219 61.5798 23 63.2271V63.2271V63.2271C25.305 64.2106 27.3652 65.6897 29.0343 67.5591L30.5 69.2009L36 74.179L36.437 74.5519C38.4744 76.2907 40.6719 77.8327 43 79.1572V79.1572L46 80.6507M46 80.6507V80.6507C45.6679 79.3282 45.5 77.9698 45.5 76.6063V75.6725M45.5 75.6725L44.0656 75.1012C43.3563 74.8188 42.6707 74.4801 42.0153 74.0886V74.0886C41.0089 73.4874 40.0799 72.7652 39.2492 71.938L38.8388 71.5294C37.9484 70.643 37.1479 69.6707 36.4489 68.6267L34.5 65.7162L33.9903 64.9912C32.0096 62.174 30.4936 59.0573 29.5 55.7598V55.7598L28 50.7817L27 44.31L26 35.8472L25.6496 33.5798C25.2173 30.782 24.5482 28.026 23.6494 25.3415L23 23.4017L22.383 21.1494C21.7958 19.0056 20.9975 16.9252 20 14.9389V14.9389L17.5 10.9563L16.7612 9.30119C16.4391 8.57973 17.3021 7.91133 17.9201 8.40358V8.40358C17.9731 8.44583 18.0316 8.48074 18.094 8.50736L21.5 9.9607L23.0106 10.6931C24.3299 11.3328 25.5496 12.1602 26.6318 13.1495V13.1495C27.2097 13.6779 27.8277 14.1607 28.4801 14.5938L30.5 15.9345L34.5 17.9258L38.5 19.917L41.5 21.4105V21.4105C45.1406 22.7286 48.5332 24.6507 51.5351 27.0961L52.5 27.8821L55.5 30.869L57 32.3624M65.7269 44.6267L62 39.8297L59.57 35.6822C58.8596 34.4697 57.9958 33.3539 57 32.3624V32.3624M79 17.4279L81.5 13.9432L83.5 10.9563L86.5 7.47162L88.5 4.98253L89.6336 3.85384C89.8362 3.65213 90.1638 3.65213 90.3664 3.85384V3.85384C91.1193 4.60347 91.7773 5.44269 92.3257 6.35269L93 7.47162L94.3484 9.48534C94.7819 10.1328 95.155 10.8186 95.4631 11.5343L96.2254 13.3052C96.4065 13.7261 96.5 14.1796 96.5 14.6379V15.1985C96.5 15.3551 96.5366 15.5096 96.6069 15.6495V15.6495C96.8322 16.0982 97.354 16.3118 97.8292 16.1499L98 16.0917M63 14.441L63.5991 13.8446C64.8532 12.5959 65.8402 11.1051 66.5 9.46288V9.46288V9.46288C66.704 8.85362 67.5188 8.74421 67.8763 9.27808L67.9214 9.34547C67.9734 9.42316 68.0116 9.50924 68.0344 9.59993L68.1925 10.2293C68.3937 11.0307 68.8094 11.7622 69.3949 12.3451L70 12.9476L72.5 15.4367L74.5 17.4279L77.5204 20.4351C78.1667 21.0786 78.6753 21.8469 79.0153 22.6932L79.1288 22.9757C79.374 23.586 79.5 24.2375 79.5 24.8952V24.8952" stroke="#C79659" stroke-linecap="round"/>
<path d="M26 14.441L26.1856 15.365C26.3906 16.3854 26.8937 17.3221 27.6313 18.0564V18.0564C27.8765 18.3006 28.1452 18.52 28.4335 18.7113L29.0535 19.1229C30.3337 19.9726 31.7936 20.5136 33.3183 20.7034L33.7709 20.7597C34.5844 20.8609 35.3749 21.0993 36.1088 21.4646L36.6992 21.7586C37.5488 22.1815 38.2602 22.8378 38.75 23.6506L38.7731 23.6889C39.2478 24.4767 39.9374 25.1129 40.7608 25.5228V25.5228C41.2501 25.7664 41.7771 25.9253 42.3194 25.9928L42.6488 26.0338C44.4712 26.2606 46.1238 27.2167 47.2288 28.6836L48.5 30.3712" stroke="#C79659" stroke-linecap="round"/>
<path d="M53.5 33.358V33.358C54.4985 35.0149 55.6236 36.5922 56.8653 38.0756L57.5 38.834L58.6237 40.5123C59.2053 41.3808 59.6682 42.3232 60 43.3144V43.3144" stroke="#C79659" stroke-linecap="round"/>
<path d="M33.5 55.7598L35 59.2445V59.2445C35.9935 61.2228 37.2998 63.0277 38.8686 64.5896L39 64.7205L42 67.7074" stroke="#C79659" stroke-linecap="round"/>
<path d="M42 62.7292L43.7125 64.8605C43.8943 65.0867 44.1688 65.2183 44.459 65.2183V65.2183C44.7947 65.2183 45.1059 65.3941 45.2792 65.6817L46.5 67.7074" stroke="#C79659" stroke-linecap="round"/>
<path d="M12.5 62.2314H9.80036C9.26242 62.2314 9.05181 62.9296 9.5 63.2271V63.2271V63.2271C10.1595 63.5554 10.7441 64.0165 11.217 64.5815L12.3241 65.9043C12.774 66.4418 13.1817 67.0133 13.5435 67.6137L14.5 69.2009L19 75.6725L22 80.1528L22.4702 80.9136C24.8113 84.7012 27.6838 88.1333 31 91.1048V91.1048L33.1872 93.0845C35.3854 95.0741 37.8459 96.753 40.5 98.0742V98.0742L42.8957 99.5054C44.6267 100.539 46.4654 101.382 48.3791 102.017L50.1881 102.617C51.0596 102.906 51.8939 103.298 52.6736 103.783L53.3774 104.221C54.7647 105.084 56.366 105.541 58 105.541V105.541" stroke="#C79659" stroke-linecap="round"/>
<path d="M56 101.061H53.7341C52.2647 101.061 50.8154 100.72 49.5 100.066V100.066L47 99.0699L46.8189 98.9978C45.2797 98.3848 43.8276 97.5721 42.5 96.5808V96.5808" stroke="#C79659" stroke-linecap="round"/>
<path d="M55.5 98.572H55.061C53.6921 98.572 52.3284 98.4049 51 98.0742V98.0742" stroke="#C79659" stroke-linecap="round"/>
<path d="M53 95.5851H51H49.2056C48.7537 95.5851 48.3202 95.4061 48 95.0873V95.0873C47.6798 94.7685 47.2463 94.5895 46.7944 94.5895H46" stroke="#C79659" stroke-linecap="round"/>
<path d="M26.5 82.144L28.1952 84.1694C28.7299 84.8083 29.1888 85.507 29.5627 86.2515V86.2515C29.8536 86.8308 30.1962 87.3827 30.5863 87.9005L31.5 89.1135" stroke="#C79659" stroke-linecap="round"/>
<path d="M91 67.2096L91.1593 67.4211C92.0513 68.6052 92.8347 69.8673 93.5 71.1921V71.1921" stroke="#C79659" stroke-linecap="round"/>
<path d="M94.5 67.7074L95.2292 68.9173C95.7335 69.7542 96 70.7128 96 71.6899V71.6899" stroke="#C79659" stroke-linecap="round"/>
<path d="M98 69.2009L98.2899 70.0668C98.4262 70.4741 98.4262 70.9147 98.2899 71.322V71.322C98.106 71.8713 98.1723 72.4737 98.4713 72.9699L99.5 74.6769" stroke="#C79659" stroke-linecap="round"/>
<path d="M49.5 69.2009V71.69V71.69C49.5 72.6826 49.3896 73.672 49.171 74.6402L49 75.3972" stroke="#C79659" stroke-linecap="round"/>
<path d="M47.5 72.6855L47.194 74.5133C47.0723 75.2404 47.3104 75.9815 47.8328 76.5017V76.5017C48.5293 77.1951 48.7019 78.2573 48.2609 79.1355L48 79.655" stroke="#C79659" stroke-linecap="round"/>
<path d="M84 61.2358V60.7096C84 59.4357 84.4145 58.1965 85.181 57.1789V57.1789C85.3932 56.8972 85.5796 56.5969 85.7379 56.2817L86.5 54.7642L88 52.2751" stroke="#C79659" stroke-linecap="round"/>
<path d="M94.5 47.7948V48.1489C94.5 48.8782 94.2094 49.5775 93.6926 50.0921V50.0921C93.5645 50.2197 93.4494 50.3595 93.3488 50.5097L93.054 50.95C92.6928 51.4894 92.5 52.1239 92.5 52.773V52.773" stroke="#C79659" stroke-linecap="round"/>
<path d="M97 46.7991V47.3302C97 48.2491 96.5663 49.1142 95.83 49.664V49.664C95.2931 50.0649 94.9109 50.6386 94.7477 51.2885L94.5 52.2751" stroke="#C79659" stroke-linecap="round"/>
<path d="M100 46.3013L101 45.3057L101.422 44.8854C101.767 44.5416 102.294 44.4563 102.73 44.6735V44.6735C102.907 44.7616 103.058 44.8942 103.168 45.0584L103.728 45.8953C103.909 46.1653 104.116 46.4168 104.346 46.6461L104.698 46.9959C105.231 47.5267 105.702 48.1165 106.102 48.7538L108 51.7773L109 53.7686L110 55.262" stroke="#C79659" stroke-linecap="round"/>
<path d="M116.5 69.6987V72.4779C116.5 72.9295 116.68 73.3626 117 73.6813V73.6813C117.32 73.9999 117.5 74.433 117.5 74.8846V77.166V80.7477C117.5 81.3335 117.326 81.9062 117 82.3931V82.3931C116.674 82.8799 116.5 83.4526 116.5 84.0384V85.131" stroke="#C79659" stroke-linecap="round"/>
<path d="M133.449 69.2202C132.715 70.3072 132.177 71.5727 131.876 72.8507C131.707 73.5699 131.467 74.2724 131.301 74.996C131.082 75.9529 130.75 76.8483 130.412 77.7654C130.155 78.4622 129.879 79.1436 129.547 79.8056C129.332 80.2344 129.075 80.6457 128.893 81.0898C128.725 81.4991 128.459 82.7862 128.459 82.344" stroke="#C79659" stroke-linecap="round"/>
<path d="M127.916 77.0513C127.689 77.2776 127.534 77.5626 127.428 77.8614C127.269 78.3125 126.994 78.7112 126.862 79.1816C126.645 79.9538 126.405 80.8565 125.964 81.5339C125.514 82.2244 124.812 82.9327 124.608 83.7452C124.548 83.9805 124.375 84.2628 124.174 84.3963" stroke="#C79659" stroke-linecap="round"/>
<path d="M125.042 78.0234C124.186 79.0455 123.428 80.2859 122.926 81.5219C122.704 82.0697 122.523 82.6192 122.45 83.2081C122.337 84.1166 122.107 85.0647 121.69 85.8845C121.534 86.193 121.311 86.6106 120.919 86.6106" stroke="#C79659" stroke-linecap="round"/>
<path d="M144.01 59.9597C143.858 59.9785 143.944 61.4349 143.944 61.6675C143.944 62.4453 143.952 63.2038 143.844 63.9751C143.557 66.0386 142.49 67.8667 141.299 69.5373C140.834 70.1895 140.377 70.8334 139.977 71.5304C139.747 71.9303 139.554 72.3348 139.382 72.7628C139.25 73.0896 139.174 73.4689 138.985 73.7685C138.851 73.9798 138.661 74.1654 138.537 74.3755C138.443 74.534 138.201 74.6198 138.125 74.7705" stroke="#C79659" stroke-linecap="round"/>
<path d="M144.406 69.9652C144.01 69.9652 143.637 71.0404 143.51 71.3329C143.204 72.039 142.81 72.7252 142.555 73.4503C142.402 73.8874 142.199 74.1769 141.89 74.5145C141.569 74.866 140.986 75.3758 140.836 75.8237" stroke="#C79659" stroke-linecap="round"/>
<path d="M142.423 76.6136C142.423 75.3474 143.241 74.1217 144.208 73.3369C144.808 72.85 145.467 72.5148 145.861 71.8083C146.052 71.4662 146.257 71.221 146.257 70.8209" stroke="#C79659" stroke-linecap="round"/>
<path d="M147.58 53.048C147.691 52.9372 147.722 52.8046 147.815 52.6859C147.98 52.4741 148.231 52.3347 148.403 52.1228C148.853 51.567 149.315 51.0572 149.824 50.5503C150.163 50.2129 150.437 49.8327 150.834 49.5592C151.253 49.2703 151.651 48.9284 152.009 48.5718C152.791 47.7936 153.745 47.1477 154.621 46.4654C155.368 45.8835 156.101 45.2695 156.836 44.6735C157.633 44.0271 158.434 43.4296 159.216 42.7645C159.668 42.3803 160.163 42.051 160.604 41.6601C161.067 41.2505 161.468 40.7839 161.963 40.4095C162.833 39.7529 163.673 39.0739 164.601 38.5005C165.336 38.046 166.09 37.6361 166.834 37.1986C167.244 36.9572 167.917 36.6288 168.406 36.6574C168.595 36.6685 167.731 38.2628 167.679 38.3725C167.316 39.1348 166.879 39.9629 166.65 40.7751C166.364 41.7924 165.934 42.8021 165.761 43.8324" stroke="#C79659" stroke-linecap="round"/>
<path d="M161.896 64.5336C161.896 63.7045 161.675 63.0232 161.451 62.2436C161.405 62.0848 161.076 60.9866 160.989 61.2258C160.858 61.5898 161.03 61.991 160.927 62.3503C160.894 62.4672 160.862 62.6426 160.8 62.7607C160.705 62.9392 160.639 62.2941 160.635 62.1862C160.608 61.467 160.556 62.1725 160.482 62.5022C160.415 62.8019 160.246 63.0759 160.115 63.3517C159.96 63.6797 159.889 64.0527 159.744 64.3859C159.338 65.3214 159.212 66.3767 159.04 67.3735C158.957 67.8494 158.928 69.301 158.928 68.8181" stroke="#C79659" stroke-linecap="round"/>
<path d="M137.109 60.3511C137.109 59.8221 137.288 59.4658 137.644 59.0669C137.872 58.8115 138.209 58.6014 138.399 58.3179" stroke="#C79659" stroke-linecap="round"/>
<path d="M136.733 58.1037C136.733 57.8461 136.733 57.5885 136.733 57.3309C136.733 56.975 136.924 56.7248 137.082 56.4213C137.246 56.1088 137.487 55.9268 137.754 55.7495" stroke="#C79659" stroke-linecap="round"/>
<path d="M135.873 56.5521C135.873 55.9919 135.822 55.4109 136.047 54.8816C136.176 54.5764 136.463 53.824 136.787 53.6628" stroke="#C79659" stroke-linecap="round"/>
<path d="M121.761 37.5031C121.372 37.5462 120.8 38.7286 120.62 39.0375C120.249 39.6732 119.906 40.2335 119.429 40.7912C118.633 41.7212 117.867 42.7044 117.162 43.7059C115.736 45.7315 114.548 47.943 113.762 50.2904" stroke="#C79659" stroke-linecap="round"/>
<path d="M125.211 29.6115C125.211 28.9478 125.233 28.3652 125.509 27.7482C125.721 27.2726 126.27 26.4605 126.821 26.3233C127.267 26.2125 127.74 26.3443 128.183 26.2462C128.43 26.1917 128.584 25.5181 128.66 25.3166C128.799 24.9523 128.951 24.6243 129.101 24.2611C129.596 23.0564 130.67 22.0965 131.449 21.0623" stroke="#C79659" stroke-linecap="round"/>
<path d="M93.5815 27.685C94.0464 27.2222 94.4159 26.8952 94.7169 26.3066C95.0581 25.6394 95.4595 24.9721 95.8376 24.3229C96.2644 23.5904 96.5835 22.8808 97.1562 22.2371C97.9278 21.3697 98.6972 20.5028 99.5148 19.6773C100.938 18.2398 102.403 16.8855 103.932 15.5567C104.627 14.9524 105.346 14.4531 106.093 13.9158C106.575 13.5684 106.99 13.1455 107.462 12.7853C107.979 12.3916 108.535 12.0324 109.074 11.6695C109.981 11.059 110.841 10.3546 111.792 9.81708C112.344 9.50478 112.792 9.10292 113.161 8.59914C113.296 8.41527 113.549 8.06309 113.755 7.94277C113.854 7.88461 114.165 8.20586 114.282 8.322C114.83 8.86779 115.184 9.61059 115.535 10.2911C115.732 10.6746 116.879 13.6913 117.117 13.573" stroke="#C79659" stroke-linecap="round"/>
<path d="M119.16 19.0864C119.16 19.4046 119.124 19.7377 119.234 20.0418C119.422 20.5643 119.708 21.0812 119.951 21.5806C120.168 22.0247 120.455 22.4925 120.611 22.959" stroke="#C79659" stroke-linecap="round"/>
<path d="M114.809 9.30652C114.809 10.2901 115.335 11.0885 115.681 11.9831C115.826 12.358 116.106 12.854 116.326 13.1937C116.604 13.6244 116.788 14.1367 116.97 14.6086C117.007 14.7034 117.253 15.4198 117.117 15.2285C116.797 14.779 116.601 14.2054 116.326 13.7188C115.907 12.9798 115.559 12.2345 115.19 11.4725C115.061 11.2052 114.996 10.9292 114.875 10.6594C114.833 10.5648 114.87 10.9595 114.89 11.0277C115.05 11.5658 115.25 12.0873 115.469 12.603C115.794 13.3697 116.329 14.0368 116.655 14.8055C116.836 15.2317 117.127 15.6016 117.38 15.9869C117.413 16.0368 117.577 16.2281 117.574 16.2203C117.492 15.9328 117.248 15.6396 117.065 15.4108C116.522 14.7314 116.198 13.908 115.732 13.1791C115.495 12.8087 115.331 12.4431 115.172 12.0378C115.11 11.8793 114.962 11.4131 114.941 11.5819C114.866 12.1785 115.165 12.8342 115.337 13.3906C115.53 14.0177 115.929 14.746 116.355 15.2467C116.453 15.3619 117.356 16.8203 117.611 16.3625C117.855 15.9249 117.513 14.9241 117.344 14.4919C117.195 14.1114 117.059 13.7308 116.919 13.3469C116.719 12.8002 117.08 13.1905 117.278 13.4417C117.576 13.8194 117.908 14.3265 117.908 14.8237C117.908 15.3305 118.081 16.6579 117.249 16.6579C116.285 16.6579 115.927 15.963 115.699 15.1482C115.452 14.2604 115.178 13.3022 115.077 12.3915C115.037 12.0333 114.993 11.665 114.937 11.3085C114.916 11.1703 114.901 11.0038 114.743 11.0131C114.617 11.0205 114.677 11.435 114.677 11.5054C114.677 12.3272 114.844 13.2474 115.238 13.9704C115.466 14.3898 115.707 14.8079 115.981 15.1993C116.148 15.4369 116.397 15.6852 116.523 15.9359" stroke="#C79659" stroke-linecap="round"/>
<path d="M81.1326 28.2561C81.5009 28.6595 81.7389 29.1876 82.1204 29.5675" stroke="#C79659" stroke-linecap="round"/>
<path d="M89.6942 7.40466C89.6942 8.84043 88.4526 10.0908 87.638 11.1422C87.4784 11.3481 87.266 11.4969 87.0599 11.6522C86.8317 11.8241 86.6183 12.0865 86.3684 12.2204C86.0564 12.3877 85.8196 12.388 85.4647 12.388C85.1338 12.388 84.8272 12.2838 84.4878 12.3261C84.0787 12.377 83.5972 12.6241 83.2548 12.847C82.8866 13.0867 82.5028 13.3189 82.1901 13.6302C81.9375 13.8816 81.6052 14.242 81.2644 14.3551" stroke="#C79659" stroke-linecap="round"/>
<path d="M81.4619 13.6994C81.4619 12.8904 82.2803 12.2289 82.812 11.6995C83.2825 11.231 84.0554 10.5968 84.7182 10.4209C85.2617 10.2765 85.8001 10.031 86.3208 9.83072C86.9474 9.58969 87.5945 9.31639 88.1794 8.99288C88.3411 8.90344 88.7352 8.19875 88.8014 8.19875C88.8808 8.19875 88.3768 8.78179 88.2965 8.86174C87.9476 9.20911 87.6708 9.61581 87.3233 9.96186C87.0477 10.2362 86.8087 10.5398 86.533 10.8143C86.0995 11.2459 85.6024 11.5814 85.15 11.9909C84.973 12.151 84.5073 12.5181 84.967 12.1621C85.606 11.6673 86.3009 11.2339 86.9537 10.7523C87.0269 10.6984 87.5755 10.2006 87.1842 10.3954C86.6894 10.6417 86.1947 10.7717 85.6841 10.9964C85.2092 11.2055 84.7243 11.4074 84.228 11.5647C83.7691 11.71 83.4959 11.946 83.123 12.2568C82.8551 12.4801 82.4585 13.4273 82.4791 13.0801C82.497 12.7764 83.0468 12.5076 83.2401 12.3151C83.9673 11.591 84.7432 11.009 85.611 10.4536C86.1497 10.1088 86.5934 9.66298 87.1111 9.30616C87.4678 9.06029 87.8085 8.8231 88.1136 8.51931C88.3581 8.27582 88.5918 8.04633 88.8526 7.81261C89.0596 7.62712 89.4225 7.24478 89.6283 7.14233" stroke="#C79659" stroke-linecap="round"/>
<path d="M85.0701 24.5146C85.0701 23.8455 85.0701 23.1764 85.0701 22.5073C85.0701 21.8468 85.3036 21.2198 85.3763 20.5685C85.4965 19.4913 85.2559 18.4499 85.2559 17.3623" stroke="#C79659" stroke-linecap="round"/>
<path d="M88.1666 21.3085C88.1666 21.925 88.0808 22.6133 88.2595 23.2062C88.5113 24.042 88.8303 24.7297 89.2675 25.4875C89.8581 26.511 89.8386 27.575 89.8386 28.7074" stroke="#C79659" stroke-linecap="round"/>
<path d="M90.0864 27.1044C90.0864 26.1359 90.1261 25.173 90.2137 24.2133C90.3069 23.1928 90.2722 22.1539 90.2722 21.1235" stroke="#C79659" stroke-linecap="round"/>
<path d="M64.2678 31.7946C63.8783 31.843 64.2069 37.6524 64.3501 38.3295C64.4463 38.7847 64.4024 39.2915 64.4736 39.7525C64.5289 40.1105 64.5854 40.5543 64.5854 40.9119C64.5854 41.4642 64.7971 41.9906 64.7971 42.5456" stroke="#C79659" stroke-linecap="round"/>
<path d="M71.2114 43.7311C71.2114 44.1023 71.2114 44.4735 71.2114 44.8448C71.2114 45.1721 71.3853 45.4892 71.4729 45.8022C71.5721 46.1566 71.6694 46.5047 71.7867 46.8551C71.8898 47.1632 72.0828 47.479 72.1528 47.7924C72.249 48.2235 72.4715 48.6349 72.5682 49.068C72.6187 49.2942 72.6489 49.5747 72.7803 49.7709" stroke="#C79659" stroke-linecap="round"/>
<path d="M74.0354 46.2825C74.0354 46.8494 74.0354 47.4164 74.0354 47.9834C74.0354 48.609 74.3259 49.2711 74.663 49.7942C75.2108 50.6445 75.4997 51.5077 75.4997 52.5306" stroke="#C79659" stroke-linecap="round"/>
<path d="M76.5457 44.6162C76.5457 45.2796 76.5457 45.943 76.5457 46.6064C76.5457 47.2887 76.867 47.8061 77.1209 48.4201C77.2573 48.7499 77.3632 49.1213 77.4347 49.4701C77.5191 49.8817 77.6841 50.2656 77.7746 50.6763C77.8372 50.9602 77.9433 51.2312 78.0099 51.5123C78.1334 52.0331 78.1145 52.6123 78.1145 53.1438C78.1145 53.3249 78.268 54.3991 77.9577 54.457C77.8378 54.4794 77.9054 55.3235 77.9054 55.4695C77.9054 55.8213 77.9577 56.1684 77.9577 56.5397" stroke="#C79659" stroke-linecap="round"/>
<path d="M88.7829 39.4094C88.7829 40.3311 88.7501 41.0999 89.2826 41.9058C89.7499 42.613 90.2163 43.3289 90.6539 44.055C90.8469 44.3753 91.0813 44.7153 91.2379 45.053C91.3387 45.2704 91.3265 45.5727 91.3425 45.8109C91.367 46.1768 91.45 46.5412 91.45 46.9072" stroke="#C79659" stroke-linecap="round"/>
<path d="M93.6464 45.9701C93.6464 44.8038 93.4373 43.6515 93.4373 42.4816" stroke="#C79659" stroke-linecap="round"/>
<path d="M81.3046 54.3009C81.3046 54.0926 81.3046 53.8843 81.3046 53.6761C81.3046 53.4509 81.2294 53.1747 81.2639 52.9587C81.3468 52.4403 81.4881 51.9356 81.5661 51.4111C81.7109 50.4383 81.9845 49.5129 81.9845 48.5214" stroke="#C79659" stroke-linecap="round"/>
<path d="M85.3313 50.9164C85.3313 50.5789 85.3091 50.2321 85.3342 49.8952C85.3892 49.1564 85.8252 48.4529 85.9821 47.7286C86.1123 47.1278 86.3263 45.241 85.4359 45.241" stroke="#C79659" stroke-linecap="round"/>
<path d="M25.5244 67.2701C25.5244 67.7342 25.5472 67.9754 25.9919 68.2091C26.5442 68.4993 27.0987 69.006 27.5557 69.4371C27.7266 69.5982 27.9318 69.6796 28.0797 69.8704C28.2707 70.1169 28.4035 70.3889 28.5714 70.6489C28.877 71.1222 29.17 71.6221 29.5709 72.0213C29.7836 72.233 30.0298 72.323 30.3125 72.1979C30.6542 72.0467 30.7492 72.1732 31.038 72.3423C31.2231 72.4507 31.5324 73.0865 31.6023 73.2813C31.7518 73.6982 32.0926 74.0703 32.1988 74.4932" stroke="#C79659" stroke-linecap="round"/>
<path d="M31.5459 72.5429C30.824 72.5429 30.1878 71.5725 29.833 71.0622C29.4594 70.5249 28.9922 70.0426 28.6037 69.5454C28.221 69.0554 27.6786 68.4307 27.1206 68.1529C26.7969 67.9918 26.5161 67.5704 26.3387 67.2701C26.2189 67.0674 25.9237 67.126 25.8147 66.9089" stroke="#C79659" stroke-linecap="round"/>
<path d="M4.75921 58.6107C4.75921 59.3016 4.72017 60.0414 5.30299 60.5056C5.40347 60.5857 5.46541 60.69 5.52827 60.7995C5.66143 61.0316 5.46061 60.5522 5.42339 60.4863C5.25453 60.1874 4.99634 59.9044 4.75921 59.6549C4.5409 59.4251 4.42411 59.1285 4.16494 58.9278C3.81699 58.6584 3.83015 58.8757 3.85032 59.2372C3.87871 59.7459 4.4982 60.1303 4.75921 60.5056C4.90634 60.7172 5.11697 60.8752 5.28357 61.078C5.4998 61.3411 5.66257 61.6463 5.91279 61.8823C6.41631 62.3573 6.64435 63.0633 7.1363 63.5182C7.38076 63.7442 7.56057 64.0718 7.76552 64.3341C8.06037 64.7116 8.36586 65.0862 8.6045 65.502C8.9486 66.1016 9.50588 66.6415 9.93287 67.1881C10.1758 67.4991 10.348 67.8682 10.5932 68.182C10.727 68.3533 10.4962 67.8642 10.4572 67.7952C10.0726 67.1144 9.83258 66.3373 9.4124 65.6799C9.37067 65.6146 9.17277 65.3067 9.24926 65.239C9.28614 65.2064 9.75232 65.5316 9.79304 65.5871C9.94336 65.7919 10.1764 65.9102 10.3174 66.1285C10.4672 66.3605 10.5729 66.6443 10.7019 66.8942C10.9813 67.435 11.1318 67.9061 11.2962 68.4952C11.6233 69.6677 12.0448 70.8212 12.5896 71.906" stroke="#C79659" stroke-linecap="round"/>
<path d="M119.518 109.934C119.274 110.177 119.144 110.496 119.144 110.839C119.144 111.065 119.102 111.608 119.254 111.103C119.365 110.735 119.727 110.41 120.006 110.167C120.237 109.966 120.286 109.897 120.6 109.827C120.807 109.781 120.766 110.163 120.737 110.241C120.616 110.568 120.535 110.912 120.535 111.266C120.535 111.448 120.58 111.305 120.6 111.212C120.653 110.975 120.66 110.665 120.805 110.466C120.992 110.211 121.328 109.827 121.685 109.827C121.831 109.827 121.766 110.381 121.766 110.508C121.766 110.861 122.097 110.712 122.313 110.626C122.866 110.406 123.428 110.137 124.016 110.017C125.035 109.808 126.186 109.841 127.223 109.827C128.293 109.812 129.364 109.827 130.434 109.827C130.763 109.827 130.916 109.823 131.189 110.02C131.411 110.179 131.771 110.555 131.771 110.839C131.771 110.969 131.844 111.365 131.653 111.372C131.004 111.395 130.331 111.403 129.682 111.369C128.55 111.31 127.462 111.325 126.332 111.452C124.954 111.606 123.572 111.525 122.194 111.627C121.846 111.652 121.428 111.688 121.082 111.627C121.032 111.618 120.652 111.517 120.868 111.437C121.218 111.308 121.625 111.302 121.992 111.277C122.845 111.22 123.696 111.141 124.551 111.109C125.312 111.08 126.071 111.069 126.822 110.919C127.718 110.741 128.626 110.713 129.524 110.561C129.737 110.525 130.384 110.426 129.821 110.348C128.362 110.146 126.903 110.082 125.431 110.043C124.224 110.011 122.96 110.147 121.769 110.336C121.726 110.343 121.222 110.442 121.486 110.469C122.314 110.556 123.098 110.864 123.882 111.123C124.916 111.465 125.939 111.768 127.033 111.84C127.854 111.893 128.693 111.82 129.512 111.757C129.94 111.724 130.533 111.725 130.889 111.449C131.135 111.259 131.405 110.964 131.584 110.706C131.76 110.453 131.744 110.209 132.093 110.093" stroke="#C79659" stroke-width="1.4" stroke-linecap="round"/>
<path d="M132.307 109.774C132.307 110.256 132.429 110.905 132.226 111.348C132.152 111.512 132.037 111.866 131.822 111.902C131.307 111.987 130.767 111.976 130.246 112.014C127.559 112.213 124.772 112.411 122.087 112.076C121.179 111.963 118.93 112.294 118.93 110.866C118.93 110.521 118.87 109.721 119.411 109.721C119.602 109.721 119.78 109.754 119.946 109.774C120.064 109.788 120.143 109.88 120.267 109.88C120.48 109.88 120.713 109.967 120.909 110.04" stroke="#C79659" stroke-linecap="round"/>
<path d="M144.489 107.645C144.489 106.722 144.348 105.905 145.002 105.177C145.116 105.05 145.677 104.741 145.767 105.054C145.818 105.232 145.809 105.628 145.767 105.815C145.725 106.004 145.483 106.239 145.363 106.387C145.268 106.506 145.344 106.949 145.344 107.092C145.344 107.587 145.374 107.096 145.325 106.879C145.261 106.59 145.259 106.323 145.259 106.028" stroke="#C79659" stroke-linecap="round"/>
<path d="M136.865 16.014C137.181 16.014 140.335 14.6644 140.443 15.0734C140.562 15.518 140.479 16.1626 140.38 16.6018C140.197 17.4086 140.007 18.2217 139.808 19.0255C139.494 20.2926 139.385 21.5683 139.194 22.8555C139.015 24.0688 138.99 25.3692 138.99 26.5951C138.99 28.3291 139.522 30.058 139.971 31.7183C140.469 33.5614 140.635 35.4957 140.829 37.3887C140.935 38.4202 140.939 39.4751 141.075 40.4997C141.099 40.6852 141.233 41.3092 141.034 41.4086" stroke="#C79659" stroke-linecap="round"/>
<path d="M108.373 44.0954C108.373 42.5231 108.004 40.9937 108.004 39.4191C108.004 38.6485 108.189 37.8927 108.189 37.1268C108.189 36.7229 108.055 36.0888 108.281 35.7515" stroke="#C79659" stroke-linecap="round"/>
<path d="M110.491 46.5712C110.491 45.2094 110.491 43.8477 110.491 42.4859C110.491 41.9576 110.261 41.1387 109.754 40.8864" stroke="#C79659" stroke-linecap="round"/>
<path d="M97.3216 41.3448C97.3216 39.1228 97.2038 36.9213 97.69 34.743" stroke="#C79659" stroke-linecap="round"/>
<path d="M95.0192 36.1184C94.7161 36.0429 94.8491 32.3028 95.0192 31.6255" stroke="#C79659" stroke-linecap="round"/>
</svg>
