<svg width="138" height="103" viewBox="0 0 138 103" fill="none" xmlns="http://www.w3.org/2000/svg">
<path d="M42.3892 83.0359L38.7964 95.6108C38.245 98.3679 40.7811 100.745 43.4968 100.016L57.466 96.2686C60.4834 95.459 63.6928 95.7835 66.4871 97.1807L67.849 97.8616C68.8375 98.3559 69.8723 98.7512 70.9385 99.042L75.9222 100.401L77.9428 100.769C80.9808 101.321 84.0623 101.599 87.15 101.599H88.21C92.7656 101.599 97.2944 100.901 101.639 99.5289C104.843 98.5169 107.923 97.1458 110.82 95.4419L112.63 94.377C115.298 92.8076 117.818 90.998 120.157 88.9707L120.33 88.8205C123.841 85.7778 126.904 82.2539 129.428 78.3534L129.861 77.6841C131.422 75.2705 132.73 72.7014 133.762 70.0182C134.721 67.5248 135.437 64.9449 135.902 62.3141L136.15 60.9077C136.716 57.7019 137 54.4528 137 51.1975V49.9247C137 46.4616 136.599 43.0101 135.806 39.639C135.008 36.2465 133.818 32.9584 132.259 29.8412L131.979 29.2821C130.539 26.4021 128.826 23.6671 126.863 21.115L126.214 20.271C124.625 18.2062 122.857 16.2863 120.929 14.534C118.477 12.3049 115.782 10.3596 112.893 8.73493L112.046 8.25811C109.128 6.61673 106.06 5.25743 102.884 4.19871L98.6766 2.79641L94.1068 1.93957C90.7786 1.31553 87.3866 1.10054 84.0063 1.29939C80.6255 1.49825 77.2818 2.10955 74.0494 3.11967L73.8332 3.18723C70.8434 4.12154 67.9635 5.37671 65.2438 6.93082L60.9521 9.38323L58.1245 11.4029C54.4402 14.0346 51.157 17.1866 48.3772 20.7605L44.6031 26.4218C43.1306 28.6304 41.8752 30.9763 40.8542 33.4266C39.8836 35.756 39.1291 38.1698 38.6004 40.6373L37.5988 45.3114L37.4308 46.9918C37.1441 49.8579 37.1111 52.7438 37.332 55.6157C37.5097 57.9249 37.851 60.2185 38.3534 62.4793L38.7964 64.4731L41.5133 72.0804C41.6977 72.5966 41.9272 73.0957 42.1992 73.5716C43.4676 75.7913 43.7698 78.4342 43.0351 80.8829L42.3892 83.0359Z" stroke="#C79659" stroke-width="2" stroke-linecap="round"/>
<path d="M84.6423 63.7364L81.3001 60.3941L75.644 53.1955L73.3302 49.8533L73.0168 49.331C72.7172 48.8316 72.5589 48.2603 72.5589 47.6779V47.5384C72.5589 47.3684 72.5798 47.199 72.621 47.034L72.6899 46.7584C72.771 46.4338 72.9702 46.1512 73.2485 45.9657C73.4694 45.8184 73.7289 45.7398 73.9944 45.7398H74.5301C74.9263 45.7398 75.3188 45.6643 75.6866 45.5171L75.8563 45.4493C76.2269 45.301 76.5737 45.0989 76.8854 44.8496L77.7008 44.1973L78.0306 43.8674C78.4861 43.412 78.7965 42.8319 78.9229 42.2002C78.965 41.9896 78.9862 41.7752 78.9862 41.5604V41.4276C78.9862 40.713 78.8198 40.0081 78.5002 39.3689L78.472 39.3125C78.1298 38.4569 77.7197 37.6301 77.2455 36.8399L77.1866 36.7416L75.1298 34.1707L72.3018 31.0855L71.1293 30.0806C70.7128 29.7235 70.254 29.4189 69.7633 29.1736L69.6337 29.1088C69.1863 28.8851 68.7111 28.722 68.2206 28.6239L68.0466 28.5891C67.7989 28.5396 67.5433 28.5146 67.2906 28.5146C66.7031 28.5146 66.1151 28.6514 65.5896 28.9142C65.0998 29.1591 64.669 29.5074 64.3269 29.935L64.0871 30.2346C63.9078 30.4588 63.7462 30.6965 63.6038 30.9458L63.2234 31.6115C62.9345 32.117 62.6867 32.6449 62.4822 33.1901C62.1739 34.0122 61.9662 34.8685 61.8637 35.7405L61.7326 36.8547C61.5805 38.1474 61.5542 39.4518 61.654 40.7496L61.761 42.1405L62.2752 45.4828L63.0465 48.5679L64.589 52.4243L66.6458 56.5378L68.7025 59.88L71.2734 63.2222L73.5873 65.7931L75.9011 68.1069L78.7291 70.4208C80.4408 71.7901 82.2506 73.032 84.144 74.1365L84.3852 74.2772L85.3505 74.7598C86.4191 75.2941 87.53 75.7392 88.6718 76.0905C89.7545 76.4237 90.8616 76.6715 91.983 76.8317L92.1869 76.8608C93.326 77.0235 94.4751 77.1052 95.6256 77.1052H97.4969L100.068 76.8481L100.973 76.667C102.938 76.2741 104.87 75.733 106.752 75.0484L107.894 74.4773C108.502 74.1736 109.07 73.7966 109.585 73.3547L110.102 72.9122C110.437 72.6243 110.725 72.2841 110.952 71.9048C111.235 71.4344 111.42 70.9123 111.497 70.3692L111.505 70.3167C111.592 69.7074 111.55 69.0865 111.381 68.4946L111.353 68.3979C111.201 67.8651 110.958 67.3623 110.636 66.9113L110.355 66.5177C110.011 66.0363 109.612 65.5963 109.167 65.2067L108.62 64.7281C108.061 64.2391 107.464 63.7957 106.835 63.4021L105.724 62.708L104.079 61.6615C103.293 61.1613 102.449 60.7593 101.565 60.4647L100.858 60.2291C100.164 59.9978 99.438 59.88 98.7068 59.88C98.0747 59.88 97.4457 59.9681 96.8379 60.1417L96.5643 60.2199C96.1594 60.3356 95.7715 60.5039 95.4104 60.7205C94.92 61.0148 94.486 61.3941 94.1287 61.8407L93.6405 62.4509L92.3551 63.9934L91.6952 64.8183C91.4515 65.1229 91.1554 65.3817 90.8208 65.5824L90.7733 65.6109C90.2943 65.8984 89.7461 66.0502 89.1875 66.0502C88.9011 66.0502 88.616 66.0103 88.3407 65.9316L88.0007 65.8344C87.3107 65.6373 86.665 65.3096 86.0986 64.869L84.6423 63.7364Z" stroke="#C79659" stroke-width="1.38668"/>
<path d="M81.5586 41.1104L86.9148 43.8571C89.9612 45.4194 92.4819 47.8418 94.164 50.8238L97.2413 56.2788" stroke="#C79659" stroke-width="1.38668" stroke-linecap="round"/>
<path d="M83.8691 33.6562L90.5536 36.7414L93.5351 38.3706C96.0387 39.7387 98.1694 41.6987 99.7413 44.0796L100.837 45.7396L104.951 53.7095" stroke="#C79659" stroke-width="1.38668" stroke-linecap="round"/>
<path d="M84.8984 28L95.4392 32.3706L98.6686 33.9332C101.76 35.4292 104.343 37.8027 106.094 40.7575L107.523 43.1685L113.693 54.2235" stroke="#C79659" stroke-width="1.38668" stroke-linecap="round"/>
<path d="M74.4476 73.6176L70.5644 70.1114C69.7344 69.3619 68.9762 68.5366 68.2997 67.6462L64.8366 63.0875" stroke="#C79659" stroke-width="0.514186" stroke-linecap="round"/>
<path d="M65.5757 65.4187L65.592 65.3821C65.899 64.6886 66.3429 64.0642 66.897 63.5463V63.5463" stroke="#C79659" stroke-width="0.514186" stroke-linecap="round"/>
<path d="M66.7016 67.4051L66.7163 67.3728C67.073 66.5863 67.5846 65.8799 68.2206 65.2957V65.2957" stroke="#C79659" stroke-width="0.514186" stroke-linecap="round"/>
<path d="M68.2395 68.9657V68.9657C68.6383 68.2816 69.1672 67.6821 69.7961 67.201L69.8489 67.1607" stroke="#C79659" stroke-width="0.514186" stroke-linecap="round"/>
<path d="M70.7536 71.1269L71.2984 69.727L71.9267 68.4764" stroke="#C79659" stroke-width="0.514186" stroke-linecap="round"/>
<path d="M72.1519 73.1116L72.921 71.8208L73.7478 70.6911" stroke="#C79659" stroke-width="0.514186" stroke-linecap="round"/>
<path d="M74.0003 41.5005L72.1204 38.8007C71.5038 37.9151 70.8056 37.0947 70.0348 36.3497L67.4478 33.8496" stroke="#C79659" stroke-width="0.514186" stroke-linecap="round"/>
<path d="M69.0164 34.5204V34.5204C68.4924 34.7139 68.0047 35.0121 67.5958 35.3922V35.3922" stroke="#C79659" stroke-width="0.514186" stroke-linecap="round"/>
<path d="M70.3088 35.4578V35.4578C69.7138 35.6836 69.1679 36.0256 68.7058 36.4625V36.4625" stroke="#C79659" stroke-width="0.514186" stroke-linecap="round"/>
<path d="M71.2704 36.6747V36.6747C70.7582 36.9316 70.2995 37.2832 69.919 37.7103L69.8726 37.7625" stroke="#C79659" stroke-width="0.514186" stroke-linecap="round"/>
<path d="M72.5701 38.6458L71.5453 38.9713L70.6179 39.3664" stroke="#C79659" stroke-width="0.514186" stroke-linecap="round"/>
<path d="M73.8404 39.7815L72.873 40.2782L72.0133 40.8261" stroke="#C79659" stroke-width="0.514186" stroke-linecap="round"/>
<path d="M1 101.815L1.4164 100.982C2.06928 99.6761 3.03164 98.5498 4.21959 97.7013V97.7013C5.19783 97.0026 6.3068 96.508 7.48032 96.2473L7.86699 96.1613C9.23208 95.858 10.6428 95.8202 12.0222 96.0501L13.9531 96.3719C15.0335 96.552 16.0981 96.8164 17.1372 97.1628L22.5175 98.9562C23.5056 99.2856 24.5739 99.2856 25.562 98.9562V98.9562C26.4112 98.6731 27.1646 98.1589 27.7377 97.4712L28.3902 96.6882C28.9212 96.051 29.212 95.2477 29.212 94.4182V93.9234C29.212 92.9849 28.7196 92.1151 27.9148 91.6323V91.6323C27.246 91.231 26.4352 91.142 25.6952 91.3886L25.5093 91.4506C24.5843 91.7589 23.8584 92.4848 23.55 93.4099L23.4971 93.5687C23.2403 94.3389 23.2649 95.1752 23.5665 95.9291L23.5997 96.0122C23.8859 96.7277 24.3896 97.3351 25.0397 97.7488L26.9526 98.9662C28.4361 99.9102 30.1291 100.475 31.8823 100.609L32.9186 100.689C34.5122 100.812 36.1151 100.677 37.6657 100.289L40.967 99.4636" stroke="#C7924B" stroke-width="0.940397" stroke-linecap="round"/>
</svg>
