<svg width="171" height="112" viewBox="0 0 171 112" fill="none" xmlns="http://www.w3.org/2000/svg">
<path d="M136.649 11.584L139.5 10.4655L133 13.9967L126 19.0329L121 23.5655L111.5 34.1416L104.5 43.7104L95.5 59.3226L90 70.9059L85 82.9928L83.792 85.7304C83.2653 86.924 82.6198 88.0615 81.8651 89.1257L81.3095 89.9092C80.7718 90.6674 80.1443 91.3577 79.4408 91.9652L78.4393 92.8298C77.4979 93.6426 76.3513 94.1813 75.1247 94.3872L74.0414 94.5691C74.014 94.5737 73.986 94.5737 73.9586 94.5691C73.6561 94.5183 73.6932 94.0724 74 94.0724H74.8857C74.9597 94.0724 75.0314 94.0471 75.089 94.0007L78.0832 91.588C79.3461 90.5704 80.3734 89.2912 81.0945 87.8386L83.5 82.9928L88.5 70.4022L101 46.2285L109 34.6452L115.5 27.0909L120.09 22.4675C121.695 20.8513 123.412 19.3512 125.229 17.9784C128.727 15.3364 132.569 13.185 136.649 11.584Z" fill="#C7924B"/>
<path d="M0.5 103.037L0.938719 102.163C1.63564 100.776 2.66157 99.5803 3.92695 98.6806V98.6806C4.96507 97.9425 6.15061 97.4183 7.39432 97.1432V97.1432C9.09085 96.7679 10.8707 96.8557 12.5199 97.4029L17.0011 98.8898C18.3205 99.3275 19.7138 99.4983 21.0999 99.3922L23.4151 99.2149C24.7483 99.1129 25.9839 98.4772 26.8423 97.452L27.1271 97.1118C27.691 96.4382 28 95.5878 28 94.7093V94.1969C28 93.1974 27.4745 92.2714 26.6163 91.7589V91.7589C25.9075 91.3355 25.0495 91.2416 24.2659 91.5016L24.066 91.568C23.0802 91.8951 22.3059 92.6672 21.9761 93.6521L21.924 93.8077C21.6503 94.6249 21.6765 95.5129 21.9978 96.3126L22.0329 96.3998C22.3366 97.1556 22.8702 97.7967 23.5583 98.2326L25.6035 99.5281C27.1771 100.525 28.9712 101.12 30.8285 101.263L31.9428 101.348C33.6366 101.478 35.3403 101.335 36.9887 100.924L40.0148 100.171C40.3371 100.091 40.6679 100.051 41 100.051V100.051H41.7588C44.8992 100.051 48.0193 100.555 51 101.544V101.544L60.3781 106.211C62.7865 107.41 65.3101 108.362 67.9103 109.052V109.052C70.2983 109.686 72.74 110.096 75.2039 110.278L79.2358 110.575C83.0644 110.857 86.9132 110.674 90.6975 110.028V110.028C98.4442 108.706 105.741 105.479 111.931 100.638L113.295 99.571C115.429 97.9023 117.434 96.0763 119.295 94.1082L119.597 93.7891C122.854 90.3443 125.693 86.5262 128.053 82.4146L130.5 78.1521L132.23 73.848C133.075 71.7434 133.762 69.5783 134.284 67.371V67.371C135.092 63.9524 135.5 60.4516 135.5 56.9389V54.2627L135.179 48.5178C135.06 46.3802 134.737 44.2589 134.216 42.1824V42.1824C133.74 40.2856 133.099 38.4338 132.302 36.648L131.5 34.8525L129.664 31.1976C129.229 30.3313 128.575 29.5936 127.767 29.0575L126.58 28.2694C125.332 27.4417 123.7 27.487 122.5 28.3825V28.3825" stroke="#C7924B" stroke-linecap="round"/>
<path d="M140.5 10.4653L136.1 12.4561L127.5 17.433L123.535 20.5337C121.515 22.114 119.619 23.8475 117.864 25.7188L113.5 30.3731L108 36.8432L103.5 43.3132L99.5 49.2856L95.5 56.2533L92 63.2211L89 69.6911L86 76.6588L85.632 77.7576C84.8783 80.0084 83.9652 82.2027 82.8998 84.3238L82 86.1151L80 89.5989L78.6738 91.4471C77.9004 92.5248 76.903 93.4224 75.75 94.0782V94.0782M140.5 10.4653L144.5 9.9676M140.5 10.4653L136.563 11.2491C134.191 11.7213 131.856 12.3651 129.577 13.1752L126 14.4469L119.29 17.7862C117.1 18.8765 114.992 20.1261 112.984 21.525L111 22.9077L106 26.3916L98.5 33.3593L92 40.8247L88.5 45.304L87.499 46.5851C85.8357 48.7137 84.3477 50.9736 83.0496 53.3426L79 60.7326L73.6901 67.9399C73.5644 68.1107 73.4096 68.258 73.2329 68.3752V68.3752C72.5153 68.8515 71.5617 68.7571 70.9513 68.1495L70.1603 67.3622C70.0536 67.2559 69.9545 67.1422 69.8639 67.022L67 63.2211L63.8926 59.7843C62.9701 58.764 61.8907 57.8975 60.6952 57.2175V57.2175C59.5714 56.5783 58.3474 56.109 57.0851 55.8297V55.8297C55.3883 55.4544 53.6193 55.4173 51.9093 55.7268L49.858 56.098C49.288 56.2012 48.7323 56.3717 48.2026 56.6061L46.5548 57.335C45.2765 57.9006 44.3794 59.0845 44.1808 60.4682V60.4682C44.0631 61.2883 44.1994 62.1248 44.5712 62.8652L44.7552 63.2314C45.2404 64.1973 46.0061 64.994 46.952 65.5171L49.1035 66.7068C49.7003 67.0369 50.2708 67.4123 50.8101 67.8298L52.0913 68.8217C53.6939 70.0624 55.1837 71.4426 56.543 72.946L56.8198 73.2521C58.2707 74.8569 59.5857 76.5796 60.751 78.4024L62.5 81.1381L65.5 87.6081L66.1025 89.4074C66.6734 91.112 67.9461 92.491 69.5996 93.1964V93.1964C70.1963 93.4509 70.8287 93.6117 71.4745 93.6729L75.75 94.0782M144.5 9.9676L139.5 10.7576L138 10.963L138.5 10.9156L144.5 9.9676ZM144.5 9.9676L146.399 9.96766C147.983 9.96771 149.551 9.64733 151.008 9.02579L151.254 8.92093C151.949 8.62447 152.606 8.24625 153.211 7.79427V7.79427C153.933 7.2552 154.575 6.61625 155.117 5.89656L155.538 5.33881C155.712 5.10726 155.865 4.86046 155.996 4.60139L156.503 3.59191C156.694 3.21006 156.743 2.77201 156.639 2.35756V2.35756C156.44 1.56494 155.727 1.00922 154.91 1.00922H154.508C154.048 1.00922 153.601 1.15786 153.232 1.43298V1.43298C152.404 2.05161 152.138 3.17553 152.602 4.0996L152.638 4.16973C152.745 4.3839 152.887 4.57929 153.056 4.74837L153.496 5.18577C153.698 5.38732 153.915 5.57426 154.144 5.74517L155.8 6.98157V6.98157C156.778 7.63072 157.926 7.97696 159.1 7.97696H159.8H162.8H164.014C164.866 7.97696 165.712 8.11368 166.52 8.38191V8.38191C167.691 8.77022 168.755 9.42516 169.629 10.2951L170.3 10.9631M75.75 94.0782L74 95.0736V95.0736C70.3622 96.7195 66.4612 97.707 62.4784 97.9902L61.5 98.0598H57.0598C55.3587 98.0598 53.6631 97.8675 52.0052 97.4867L51.6349 97.4016C49.2314 96.8495 46.9473 95.8681 44.8924 94.5045V94.5045C43.9657 93.8895 43.0905 93.2001 42.2757 92.4431L40.6062 90.8921C37.5599 88.062 35.0442 84.71 33.1778 80.9945V80.9945C31.7329 78.1179 30.6931 75.0551 30.0881 71.8934L29.8992 70.9061C29.3016 67.7836 29.0597 64.6034 29.1779 61.4264L29.2935 58.3201C29.4307 54.631 29.9761 50.9685 30.9197 47.3995L31.0929 46.7441C31.6969 44.4597 32.462 42.221 33.3825 40.0448L33.5964 39.5392C35.1928 35.7654 37.2469 32.2021 39.7127 28.9295L40.5 27.8847L45.5 22.41L52 16.9353L55.1735 14.8294C58.0501 12.9205 61.1167 11.3147 64.3241 10.0376L67 8.97221L69.7556 8.11505C73.2414 7.03076 76.8354 6.33148 80.4735 6.02971L81 5.98603H87L88.6668 6.13686C91.2185 6.36776 93.7486 6.79445 96.2349 7.41315L96.5 7.47912V7.47912C99.1612 8.14135 101.757 9.04322 104.255 10.1737L106 10.963L108.501 12.2077C108.833 12.3729 109.15 12.5677 109.447 12.7896L110.391 13.4942C110.787 13.7904 111.084 14.2008 111.241 14.6703L111.277 14.775C111.422 15.208 111.422 15.6765 111.277 16.1095V16.1095C111.099 16.6382 110.72 17.0749 110.22 17.3234L109.418 17.7229C109.14 17.861 108.848 17.9685 108.547 18.0434L108.343 18.0941C107.459 18.3143 106.536 18.3361 105.642 18.1581L105.434 18.1166C104.814 17.9932 104.213 17.7881 103.648 17.5065L100.5 15.94L98.9876 15.0797C97.6668 14.3284 96.2649 13.7297 94.809 13.2949V13.2949C92.9462 12.7386 91.0125 12.4561 89.0685 12.4561H87H81.5L80.8575 12.5271C78.2897 12.8111 75.7478 13.2937 73.2545 13.9706L71.5 14.4469L64 17.433L61.7315 18.6489C58.917 20.1574 56.2534 21.9321 53.7774 23.9486L52 25.3962L50.2928 26.9539C47.4459 29.5515 44.9895 32.5472 43 35.8478V35.8478L41.3473 38.7267C39.789 41.4411 38.5899 44.3464 37.7799 47.3697V47.3697C37.2609 49.3072 36.904 51.2845 36.7129 53.2812L36.5092 55.4108C36.1707 58.9486 36.2104 62.5123 36.6275 66.0417L37 69.1934L37.6775 71.8909C38.5555 75.3866 39.8826 78.7538 41.6257 81.9085V81.9085C43.5323 85.3591 45.9181 88.5221 48.7122 91.3032L49.5 92.0874L51.2745 93.4461C54.4137 95.8498 57.827 97.8726 61.4428 99.4723L65 101.046V101.046C68.652 102.368 72.4566 103.222 76.3231 103.589L76.4499 103.601C79.4762 103.888 82.5231 103.881 85.548 103.579L85.6671 103.568C89.2115 103.215 92.7059 102.471 96.0866 101.349L100 100.051L102.07 99.1675C105.343 97.7714 108.419 95.9543 111.222 93.7624V93.7624C113.071 92.3166 114.791 90.7145 116.365 88.9738L118.5 86.6128L118.976 85.9752C121.647 82.401 123.827 78.4855 125.458 74.333L126.5 71.6819L127.648 67.5677C128.547 64.3463 129.121 61.0428 129.36 57.7068L129.5 55.7556L129.438 54.7748C129.148 50.1425 128.213 45.5732 126.662 41.1986L126 39.3317L125.016 37.1284C124.341 35.6159 123.497 34.1846 122.5 32.8616V32.8616L122.043 32.3415C120.675 30.7853 121.477 28.3322 123.5 27.8847V27.8847" stroke="#C79659" stroke-linecap="round"/>
</svg>
