<svg width="209" height="110" viewBox="0 0 209 110" fill="none" xmlns="http://www.w3.org/2000/svg">
<path d="M160.649 9.58397L163.5 8.46545L157 11.9967L150 17.0329L145 21.5655L135.5 32.1416L128.5 41.7104L119.5 57.3226L114 68.9059L109 80.9928L107.792 83.7304C107.265 84.924 106.62 86.0615 105.865 87.1257L105.309 87.9092C104.772 88.6674 104.144 89.3577 103.441 89.9652L102.439 90.8298C101.498 91.6426 100.351 92.1813 99.1247 92.3872L98.0414 92.5691C98.014 92.5737 97.986 92.5737 97.9586 92.5691C97.6561 92.5183 97.6932 92.0724 98 92.0724H98.8857C98.9597 92.0724 99.0314 92.0471 99.089 92.0007L102.083 89.588C103.346 88.5704 104.373 87.2912 105.095 85.8386L107.5 80.9928L112.5 68.4022L125 44.2285L133 32.6452L139.5 25.0909L144.09 20.4675C145.695 18.8513 147.412 17.3512 149.229 15.9784C152.727 13.3364 156.569 11.185 160.649 9.58397Z" fill="#C7924B"/>
<path d="M1 102.53L1.43872 101.657C2.13564 100.269 3.16157 99.0734 4.42695 98.1737V98.1737C5.46507 97.4356 6.64086 96.9135 7.88457 96.6384L8.30393 96.5457C9.75453 96.2248 11.2532 96.1849 12.7188 96.428L14.7734 96.7689C15.9227 96.9595 17.0554 97.2396 18.1611 97.6065L25.5 100.041L30.443 101.799C31.7993 102.281 33.2415 102.473 34.6767 102.363L36.9151 102.192C38.2483 102.09 39.4839 101.454 40.3423 100.429L40.6271 100.089C41.191 99.4152 41.5 98.5647 41.5 97.6863V97.1739C41.5 96.1743 40.9745 95.2484 40.1163 94.7358V94.7358C39.4075 94.3125 38.5495 94.2186 37.7659 94.4786L37.566 94.5449C36.5802 94.872 35.8059 95.6442 35.4761 96.629L35.424 96.7847C35.1503 97.6019 35.1765 98.4899 35.4978 99.2895L35.5329 99.3768C35.8366 100.133 36.3702 100.774 37.0583 101.21L39.1035 102.505C40.6771 103.502 42.4712 104.097 44.3285 104.24L45.4428 104.325C47.1366 104.455 48.8403 104.312 50.4887 103.901L51.4437 103.664C53.1418 103.241 54.7834 102.617 56.3334 101.805L59.7569 100.012C62.2156 98.7236 64.9499 98.0507 67.7256 98.0507V98.0507C69.5633 98.0507 71.389 98.3457 73.1332 98.9244L75 99.5438L84.3781 104.211C86.7865 105.41 89.3101 106.362 91.9103 107.052V107.052C94.2983 107.686 96.74 108.096 99.2039 108.278L103.236 108.575C107.064 108.857 110.913 108.674 114.697 108.028V108.028C122.444 106.706 129.741 103.479 135.931 98.6377L137.295 97.571C139.429 95.9024 141.434 94.0763 143.295 92.1082L143.597 91.7891C146.854 88.3443 149.693 84.5262 152.053 80.4146L154.5 76.1521L156.23 71.848C157.075 69.7434 157.762 67.5783 158.284 65.371V65.371C159.092 61.9524 159.5 58.4516 159.5 54.9389V52.2627L159.179 46.5178C159.06 44.3802 158.737 42.2589 158.216 40.1824V40.1824C157.74 38.2856 157.099 36.4338 156.302 34.648L155.5 32.8525L153.664 29.1976C153.229 28.3313 152.575 27.5936 151.767 27.0575L150.58 26.2694C149.332 25.4417 147.7 25.487 146.5 26.3825V26.3825" stroke="#C7924B" stroke-linecap="round"/>
<path d="M164.5 8.46544L160.1 10.4562L151.5 15.4332L147.535 18.5339C145.515 20.1142 143.619 21.8476 141.864 23.7189L137.5 28.3733L132 34.8433L127.5 41.3134L123.5 47.2857L119.5 54.2535L116 61.2212L113 67.6912L110 74.659L109.632 75.7578C108.878 78.0086 107.965 80.2028 106.9 82.3239L106 84.1152L104 87.5991L102.674 89.4472C101.9 90.5249 100.903 91.4225 99.75 92.0783V92.0783M164.5 8.46544L168.5 7.96774V7.96774C171.122 7.96774 173.721 8.66238 176 9.95853V9.95853L176.424 10.2119C177.783 11.0232 179.335 11.4516 180.918 11.4516V11.4516C181.964 11.4516 183.002 11.2642 183.982 10.8983L186.5 9.95853L188.954 8.91171C189.649 8.61525 190.306 8.23703 190.911 7.78505V7.78505C191.633 7.24599 192.275 6.60703 192.818 5.88734L193.238 5.32959C193.412 5.09805 193.565 4.85124 193.696 4.59218L194.203 3.5827C194.394 3.20084 194.443 2.76279 194.339 2.34834V2.34834C194.14 1.55572 193.427 1 192.61 1H192.208C191.748 1 191.301 1.14864 190.932 1.42376V1.42376C190.104 2.04239 189.838 3.16631 190.302 4.09039L190.338 4.16052C190.445 4.37468 190.587 4.57007 190.756 4.73915L191.196 5.17655C191.398 5.3781 191.615 5.56504 191.844 5.73596L193.5 6.97235V6.97235C194.478 7.6215 195.626 7.96774 196.8 7.96774H197.5H200.5H201.714C202.566 7.96774 203.412 8.10446 204.22 8.37269V8.37269C205.391 8.761 206.455 9.41594 207.329 10.2858L208 10.9539M164.5 8.46544L160.563 9.24925C158.191 9.72148 155.856 10.3652 153.577 11.1753L150 12.447L143.29 15.7863C141.1 16.8766 138.992 18.1263 136.984 19.5252L135 20.9078L130 24.3917L122.5 31.3594L116 38.8249L112.5 43.3041L111.499 44.5853C109.836 46.7139 108.348 48.9737 107.05 51.3427L103 58.7327L97.6901 65.9401C97.5644 66.1108 97.4096 66.2581 97.2329 66.3754V66.3754C96.5153 66.8516 95.5617 66.7573 94.9513 66.1497L94.1603 65.3623C94.0536 65.2561 93.9545 65.1424 93.8639 65.0221L91 61.2212L87.8926 57.7844C86.9701 56.7642 85.8907 55.8977 84.6952 55.2177V55.2177C83.5714 54.5785 82.3474 54.1091 81.0851 53.8299V53.8299C79.3883 53.4546 77.6193 53.4174 75.9093 53.7269L73.858 54.0982C73.288 54.2013 72.7323 54.3719 72.2026 54.6062L70.5548 55.3352C69.2765 55.9007 68.3794 57.0847 68.1808 58.4684V58.4684C68.0631 59.2885 68.1994 60.125 68.5712 60.8653L68.7552 61.2316C69.2404 62.1975 70.0061 62.9942 70.952 63.5173L73.1035 64.707C73.7003 65.037 74.2708 65.4124 74.8101 65.8299L76.0913 66.8218C77.6939 68.0626 79.1837 69.4428 80.543 70.9462L80.8198 71.2523C82.2707 72.857 83.5857 74.5797 84.751 76.4025L86.5 79.1382L89.5 85.6083L90.1025 87.4075C90.6734 89.1122 91.9461 90.4912 93.5996 91.1965V91.1965C94.1963 91.4511 94.8287 91.6118 95.4745 91.673L99.75 92.0783M99.75 92.0783L98 93.0737V93.0737C94.3622 94.7197 90.4612 95.7072 86.4784 95.9903L85.5 96.0599H81.0598C79.3587 96.0599 77.6631 95.8677 76.0052 95.4868L75.6349 95.4018C73.2314 94.8497 70.9473 93.8682 68.8924 92.5047V92.5047C67.9657 91.8897 67.0905 91.2002 66.2757 90.4432L64.6062 88.8922C61.56 86.0621 59.0442 82.7102 57.1778 78.9946V78.9946C55.7329 76.118 54.6931 73.0553 54.0881 69.8936L53.8992 68.9062C53.3016 65.7837 53.0597 62.6035 53.1779 59.4266L53.2935 56.3202C53.4307 52.6311 53.9761 48.9686 54.9197 45.3996L55.0929 44.7443C55.6969 42.4599 56.462 40.2212 57.3825 38.0449L57.5964 37.5393C59.1928 33.7655 61.2469 30.2023 63.7127 26.9297L64.5 25.8848L69.5 20.4101L76 14.9355L79.1735 12.8296C82.0501 10.9207 85.1167 9.31484 88.3241 8.03776L91 6.97235L93.7556 6.11519C97.2414 5.0309 100.835 4.33162 104.473 4.02985L105 3.98618H111L112.667 4.13701C115.219 4.36791 117.749 4.79459 120.235 5.4133L120.5 5.47926V5.47926C123.161 6.1415 125.757 7.04337 128.255 8.17383L130 8.96313L132.501 10.2078C132.833 10.3731 133.15 10.5678 133.447 10.7898L134.391 11.4944C134.787 11.7906 135.084 12.2009 135.241 12.6704L135.277 12.7752C135.422 13.2082 135.422 13.6766 135.277 14.1096V14.1096C135.099 14.6384 134.72 15.0751 134.22 15.3235L133.418 15.723C133.14 15.8612 132.848 15.9686 132.547 16.0435L132.343 16.0943C131.459 16.3144 130.536 16.3363 129.642 16.1583L129.434 16.1168C128.814 15.9934 128.213 15.7882 127.648 15.5067L124.5 13.9401L122.988 13.0798C121.667 12.3286 120.265 11.7298 118.809 11.295V11.295C116.946 10.7388 115.012 10.4562 113.068 10.4562H111H105.5L104.858 10.5273C102.29 10.8113 99.7478 11.2939 97.2545 11.9707L95.5 12.447L88 15.4332L85.7315 16.6491C82.917 18.1576 80.2534 19.9323 77.7774 21.9488L76 23.3963L74.2928 24.9541C71.4459 27.5517 68.9895 30.5473 67 33.8479V33.8479L65.3473 36.7268C63.789 39.4412 62.5899 42.3465 61.7799 45.3698V45.3698C61.2609 47.3073 60.904 49.2847 60.7129 51.2814L60.5092 53.4109C60.1707 56.9487 60.2104 60.5125 60.6275 64.0419L61 67.1935L61.6775 69.891C62.5555 73.3867 63.8826 76.754 65.6257 79.9087V79.9087C67.5323 83.3592 69.9181 86.5222 72.7122 89.3033L73.5 90.0876L75.2745 91.4462C78.4137 93.8499 81.827 95.8728 85.4428 97.4724L89 99.0461V99.0461C92.652 100.368 96.4566 101.222 100.323 101.589L100.45 101.601C103.476 101.888 106.523 101.881 109.548 101.58L109.667 101.568C113.211 101.215 116.706 100.471 120.087 99.3492L124 98.0507L126.07 97.1677C129.343 95.7715 132.419 93.9545 135.222 91.7625V91.7625C137.071 90.3168 138.791 88.7146 140.365 86.9739L142.5 84.6129L142.976 83.9753C145.647 80.4012 147.827 76.4857 149.458 72.3332L150.5 69.682L151.648 65.5679C152.547 62.3464 153.121 59.0429 153.36 55.7069L153.5 53.7558L153.438 52.7749C153.148 48.1426 152.213 43.5734 150.662 39.1988L150 37.3318L149.016 35.1286C148.341 33.6161 147.497 32.1847 146.5 30.8618V30.8618L146.043 30.3417C144.675 28.7855 145.477 26.3323 147.5 25.8848V25.8848" stroke="#C79659" stroke-linecap="round"/>
</svg>
