<svg width="109" height="124" viewBox="0 0 109 124" fill="none" xmlns="http://www.w3.org/2000/svg">
<path d="M69.4141 12.7941L68.6444 10.2151C68.6019 10.0729 68.5865 9.92413 68.5987 9.7763C68.7057 8.48641 66.9676 7.97667 66.3609 9.12001L65.0981 11.5L61.616 17.5L59.4353 21.6099C58.2378 23.8666 56.8692 26.0283 55.3414 28.0759L53.1595 31L48.1851 38L43.2107 43.5L38.2363 49.5L33.7593 55.5L32.3313 57.9607C30.9644 60.316 29.7961 62.7898 28.8442 65.3413C27.8139 68.1027 27.0362 70.9607 26.5265 73.8636L26.4323 74.4001C26.0118 76.7955 25.8003 79.2229 25.8003 81.655V81.7706C25.8003 84.9131 26.162 88.0451 26.8783 91.1049L27.0364 91.7805C27.5376 93.9217 28.2464 96.009 29.1525 98.0128C29.9011 99.6682 30.7818 101.261 31.7861 102.775L33.2619 105L33.815 105.715C35.7632 108.232 37.9474 110.558 40.3379 112.661L40.7235 113L45.6979 116.5L48.9822 118.278C51.0976 119.422 53.3308 120.335 55.6427 120.999C57.9599 121.664 60.3425 122.076 62.7486 122.227L67.0878 122.5L67.3885 122.477C71.4836 122.16 75.5241 121.34 79.4186 120.035L79.5239 120L81.3083 119.185C83.7625 118.063 86.122 116.745 88.3636 115.243L90.965 113.5L95.4419 109.5L98.622 106.304C99.816 105.103 100.903 103.801 101.87 102.412C103.217 100.478 104.324 98.387 105.167 96.1855L105.325 95.7725C106.031 93.928 106.568 92.0233 106.93 90.0818L107.144 88.9342C107.632 86.317 107.878 83.6544 107.878 80.9921C107.878 77.6799 107.497 74.3714 106.742 71.1464L106.637 70.7001C106.139 68.5707 105.457 66.4885 104.599 64.4768C103.472 61.8342 102.049 59.3283 100.356 57.0075L97.4317 53L91.4624 45L84.9957 37L84.1045 35.9922C82.0501 33.6691 80.2162 31.1599 78.6267 28.4971L75.0469 22.5L71.3449 16.9185C70.5013 15.6465 69.8506 14.2566 69.4141 12.7941Z" stroke="#C79659" stroke-width="2" stroke-linecap="round"/>
<path d="M54.8018 103.86L49.3437 95.2895C48.1712 93.4482 47.1722 91.5013 46.3598 89.474L42.2188 79.1398" stroke="#C79659" stroke-linecap="round"/>
<path d="M42.4116 83.9007L42.4642 83.8356C43.3879 82.6924 44.5329 81.7478 45.8308 81.0583V81.0583" stroke="#C79659" stroke-linecap="round"/>
<path d="M43.5034 88.21L43.5515 88.1516C44.6148 86.8595 45.9279 85.7956 47.4124 85.0234V85.0234" stroke="#C79659" stroke-linecap="round"/>
<path d="M45.5774 91.9332V91.9332C46.6701 90.8517 47.9642 89.9951 49.3867 89.4117L49.5002 89.3651" stroke="#C79659" stroke-linecap="round"/>
<path d="M49.177 97.2861L50.9063 94.9338L52.7156 92.905" stroke="#C79659" stroke-linecap="round"/>
<path d="M50.7733 101.732L52.866 99.7001L54.9844 98.0003" stroke="#C79659" stroke-linecap="round"/>
<path d="M67 9.09524L67.45 7.44589C67.6676 6.64824 68.0376 5.90026 68.5395 5.24323L68.9336 4.72742C69.3689 4.15761 69.9486 3.71453 70.6127 3.44408V3.44408C71.4693 3.09523 72.42 3.05228 73.3046 3.32246L74.2361 3.607C74.78 3.7731 75.3006 4.00713 75.7859 4.30354L79.7323 6.71429L81.944 8.16185C82.8633 8.76353 83.9699 9.01069 85.0578 8.85732V8.85732C86.1472 8.70374 87.1436 8.159 87.8609 7.32476L88.1035 7.04258C88.6819 6.3699 89 5.51216 89 4.62501V4.00315C89 3.30655 88.6932 2.64529 88.1614 2.19543L87.9311 2.00068C87.236 1.41274 86.2298 1.37399 85.4915 1.90672V1.90672C84.9752 2.27928 84.6693 2.8772 84.6693 3.5139V4.40736C84.6693 4.67469 84.698 4.94125 84.7551 5.20244L84.825 5.52296C85.0639 6.61751 85.5707 7.63567 86.3 8.48614L86.7966 9.06534C87.6026 10.0053 88.7236 10.6192 89.9497 10.792V10.792C90.9131 10.9278 91.8953 10.7846 92.7799 10.3793L92.9776 10.2888C93.9996 9.82053 94.8645 9.06692 95.4682 8.11864L100 1" stroke="#C7924B" stroke-width="0.940397" stroke-linecap="round"/>
<path d="M1 116.815L1.4164 115.982C2.06928 114.676 3.03164 113.55 4.21959 112.701V112.701C5.19783 112.003 6.3068 111.508 7.48032 111.247L7.86699 111.161C9.23208 110.858 10.6428 110.82 12.0222 111.05L13.9531 111.372C15.0335 111.552 16.0981 111.816 17.1372 112.163L22.5175 113.956C23.5056 114.286 24.5739 114.286 25.562 113.956V113.956C26.4112 113.673 27.1646 113.159 27.7377 112.471L28.3902 111.688C28.9212 111.051 29.212 110.248 29.212 109.418V108.923C29.212 107.985 28.7196 107.115 27.9148 106.632V106.632C27.246 106.231 26.4352 106.142 25.6952 106.389L25.5093 106.451C24.5843 106.759 23.8584 107.485 23.55 108.41L23.4971 108.569C23.2403 109.339 23.2649 110.175 23.5665 110.929L23.5997 111.012C23.8859 111.728 24.3896 112.335 25.0397 112.749L26.9526 113.966C28.4361 114.91 30.1291 115.475 31.8823 115.609L32.9186 115.689C34.5122 115.812 36.1151 115.677 37.6657 115.289L40.9192 114.476C40.9509 114.468 40.9835 114.464 41.0163 114.464V114.464C41.3735 114.464 41.5519 114.031 41.2987 113.779L37.5 110L45.4523 116.958C47.4308 118.69 49.6885 120.073 52.1295 121.049V121.049C54.3594 121.941 56.714 122.482 59.1096 122.653L62.1517 122.871C66.4657 123.179 70.8016 122.832 75.0116 121.841L76.6535 121.455V121.455C81.6339 119.587 86.2671 116.9 90.3616 113.505L97 108" stroke="#C7924B" stroke-width="0.940397" stroke-linecap="round"/>
</svg>
