<svg width="141" height="124" viewBox="0 0 141 124" fill="none" xmlns="http://www.w3.org/2000/svg">
<path d="M80.5906 8.99338L81.0091 8.15208C81.6558 6.85187 82.6106 5.72945 83.7903 4.88251V4.88251C84.7657 4.18219 85.8726 3.68626 87.0445 3.42449L87.4206 3.34048C88.7798 3.03689 90.1848 2.9991 91.5583 3.2292L93.478 3.5508C94.5524 3.73078 95.611 3.99504 96.6439 4.34111L103.512 6.64238L108.134 8.30153C109.405 8.75759 110.757 8.93958 112.103 8.83552L114.169 8.67578C115.431 8.57824 116.599 7.97331 117.406 6.99926L117.663 6.68949C118.192 6.05127 118.482 5.24827 118.482 4.41924V3.91254C118.482 2.98042 117.994 2.11632 117.196 1.63494V1.63494C116.528 1.23212 115.717 1.14279 114.977 1.39059L114.794 1.45175C113.876 1.75936 113.157 2.48128 112.852 3.40033L112.795 3.5722C112.54 4.34042 112.564 5.17387 112.864 5.92587L112.897 6.00979C113.182 6.72686 113.686 7.33628 114.336 7.75213L116.227 8.96206C117.707 9.90865 119.398 10.4748 121.15 10.6103L122.209 10.6922C123.768 10.8127 125.336 10.6799 126.853 10.2988V10.2988C129.038 9.74958 131.066 8.69759 132.773 7.22661L140 1" stroke="#C7924B" stroke-width="0.940397" stroke-linecap="round"/>
<path d="M1 118.667L1.25664 118.205C1.81851 117.195 2.62155 116.34 3.59417 115.715V115.715C4.33055 115.243 5.14898 114.912 6.0071 114.741L6.44314 114.654C7.50381 114.442 8.59317 114.415 9.66285 114.576L11.2061 114.807C12.0652 114.935 12.9141 115.125 13.7462 115.374L19.1717 117L22.8605 118.184C23.8535 118.503 24.8981 118.63 25.9386 118.558L27.8178 118.428C28.6959 118.367 29.5179 117.974 30.1163 117.329L30.4099 117.012C30.8143 116.576 31.039 116.003 31.039 115.408V115.243C31.039 114.478 30.6187 113.773 29.9446 113.41V113.41C29.4581 113.147 28.8872 113.089 28.3578 113.248L28.0838 113.33C27.3758 113.542 26.8085 114.074 26.5516 114.767V114.767C26.3377 115.344 26.3579 115.981 26.6081 116.543L26.6293 116.591C26.8439 117.073 27.2067 117.475 27.6649 117.737L29.3589 118.706C30.4646 119.338 31.6991 119.712 32.9699 119.8L34.0504 119.875C35.2505 119.958 36.4562 119.866 37.6299 119.602V119.602C39.3955 119.206 41.053 118.428 42.4866 117.323L45.2229 115.215C47.0872 113.779 49.3744 113 51.7277 113V113C52.7638 113 53.7943 113.151 54.7867 113.448L54.8595 113.47C56.0304 113.821 57.1358 114.362 58.1317 115.07L63.1539 118.644C64.7293 119.765 66.4508 120.665 68.2704 121.319V121.319C70.1414 121.992 72.0979 122.398 74.0822 122.525L76.3636 122.672C79.7552 122.89 83.1607 122.643 86.4857 121.94L87.7793 121.667V121.667C91.7267 120.336 95.5434 118.645 99.1811 116.616L104.468 113.667" stroke="#C7924B" stroke-width="0.940397" stroke-linecap="round"/>
<path d="M83.4141 12.7941L82.6444 10.2151C82.6019 10.0729 82.5865 9.92413 82.5987 9.7763C82.7057 8.48641 80.9676 7.97667 80.3609 9.12001L79.0981 11.5L75.616 17.5L73.4353 21.6099C72.2378 23.8666 70.8692 26.0283 69.3414 28.0759L67.1595 31L62.1851 38L57.2107 43.5L52.2363 49.5L47.7593 55.5L46.3313 57.9607C44.9644 60.316 43.7961 62.7898 42.8442 65.3413C41.8139 68.1027 41.0362 70.9607 40.5265 73.8636L40.4323 74.4001C40.0118 76.7955 39.8003 79.2229 39.8003 81.655V81.7706C39.8003 84.9131 40.162 88.0451 40.8783 91.1049L41.0364 91.7805C41.5376 93.9217 42.2464 96.009 43.1525 98.0128C43.9011 99.6682 44.7818 101.261 45.7861 102.775L47.2619 105L47.815 105.715C49.7632 108.232 51.9474 110.558 54.3379 112.661L54.7235 113L59.6979 116.5L62.9822 118.278C65.0976 119.422 67.3308 120.335 69.6427 120.999C71.9599 121.664 74.3425 122.076 76.7486 122.227L81.0878 122.5L81.3885 122.477C85.4836 122.16 89.5241 121.34 93.4186 120.035L93.5239 120L95.3083 119.185C97.7625 118.063 100.122 116.745 102.364 115.243L104.965 113.5L109.442 109.5L112.622 106.304C113.816 105.103 114.903 103.801 115.87 102.412C117.217 100.478 118.324 98.387 119.167 96.1855L119.325 95.7725C120.031 93.928 120.568 92.0233 120.93 90.0818L121.144 88.9342C121.632 86.317 121.878 83.6544 121.878 80.9921C121.878 77.6799 121.497 74.3714 120.742 71.1464L120.637 70.7001C120.139 68.5707 119.457 66.4885 118.599 64.4768C117.472 61.8342 116.049 59.3283 114.356 57.0075L111.432 53L105.462 45L98.9957 37L98.1045 35.9922C96.0501 33.6691 94.2162 31.1599 92.6267 28.4971L89.0469 22.5L85.3449 16.9185C84.5013 15.6465 83.8506 14.2566 83.4141 12.7941Z" stroke="#C79659" stroke-width="2" stroke-linecap="round"/>
<path d="M68.8018 103.86L63.3437 95.2895C62.1712 93.4482 61.1722 91.5013 60.3598 89.474L56.2188 79.1398" stroke="#C79659" stroke-linecap="round"/>
<path d="M56.4116 83.9007L56.4642 83.8356C57.3879 82.6924 58.5329 81.7478 59.8308 81.0583V81.0583" stroke="#C79659" stroke-linecap="round"/>
<path d="M57.5034 88.21L57.5515 88.1516C58.6148 86.8595 59.9279 85.7956 61.4124 85.0234V85.0234" stroke="#C79659" stroke-linecap="round"/>
<path d="M59.5774 91.9332V91.9332C60.6701 90.8517 61.9642 89.9951 63.3867 89.4117L63.5002 89.3651" stroke="#C79659" stroke-linecap="round"/>
<path d="M63.177 97.2861L64.9063 94.9338L66.7156 92.905" stroke="#C79659" stroke-linecap="round"/>
<path d="M64.7733 101.732L66.866 99.7001L68.9844 98.0003" stroke="#C79659" stroke-linecap="round"/>
</svg>
