<svg width="146" height="108" viewBox="0 0 146 108" fill="none" xmlns="http://www.w3.org/2000/svg">
<path d="M1 103.6L1.5586 102.278C2.13552 100.912 3.02619 99.7011 4.15839 98.7438V98.7438C5.23076 97.8371 6.49198 97.1813 7.85008 96.824L7.92325 96.8048C9.35293 96.4287 10.8493 96.382 12.2997 96.6681L13.4446 96.894C15.0312 97.207 16.5559 97.7771 17.9586 98.5818L18.1064 98.6666L21.3892 100.054C23.5084 100.95 25.9433 100.66 27.793 99.2921V99.2921C28.353 98.8778 28.8428 98.3763 29.2437 97.8068L30.1639 96.4998C30.7288 95.6973 31.032 94.7399 31.032 93.7586V92.7323C31.032 91.8338 30.5968 90.9909 29.8642 90.4706V90.4706C29.0995 89.9275 28.1122 89.8076 27.2398 90.1518L27.1382 90.1919C26.2736 90.533 25.6181 91.2586 25.3662 92.1532L25.1766 92.8264C24.9369 93.6778 24.9601 94.5817 25.2433 95.4196L25.2878 95.5513C25.5993 96.4733 26.1819 97.2799 26.9594 97.8655L28.5065 99.0309C30.1574 100.274 32.1225 101.033 34.1808 101.22L36.5086 101.432C37.002 101.477 37.4994 101.428 37.9744 101.287L42.7546 99.8726C42.8771 99.8364 43.0001 99.9282 43.0001 100.056V100.056C43.0001 100.141 43.0565 100.216 43.1384 100.24L51.0001 102.5L56.5001 103.6L68.5 105L76.4787 105.867L89.4043 107H111.904L121 106.393" stroke="#C7924B"/>
<path d="M97 17.9687L99.5 14.9742" stroke="#C79659" stroke-linecap="round"/>
<path d="M91 15.9724L93.5 12.9779" stroke="#C79659" stroke-linecap="round"/>
<path d="M76.9999 21.9612L83.9999 14.9742" stroke="#C79659" stroke-linecap="round"/>
<path d="M73.0001 29.9466L80.7994 21.5014" stroke="#C79659" stroke-linecap="round"/>
<path d="M73 34.1167L79.9999 26.9521" stroke="#C79659" stroke-linecap="round"/>
<path d="M76.0001 41.7507L81.0001 36.9336" stroke="#C79659" stroke-linecap="round"/>
<path d="M77.0001 45.2106L82 40.9264" stroke="#C79659" stroke-linecap="round"/>
<path d="M82 75.8618L76.7024 67.1747C75.5699 65.3176 74.6135 63.3591 73.8456 61.3245L69.9138 50.9078" stroke="#C79659" stroke-linecap="round"/>
<path d="M69.9999 55.6633L70.0504 55.6039C71.007 54.4812 72.1803 53.563 73.5 52.9043V52.9043" stroke="#C79659" stroke-linecap="round"/>
<path d="M70.9999 59.9883L71.0452 59.9361C72.1458 58.6675 73.4908 57.6338 75 56.8969V56.8969" stroke="#C79659" stroke-linecap="round"/>
<path d="M72.9999 63.7506V63.7506C74.1224 62.6961 75.4402 61.8713 76.8792 61.3228L76.9999 61.2768" stroke="#C79659" stroke-linecap="round"/>
<path d="M76.496 69.1738L78.2869 66.8656L80.1509 64.8821" stroke="#C79659" stroke-linecap="round"/>
<path d="M77.9999 73.6469L80.1488 71.6664L82.3158 70.0181" stroke="#C79659" stroke-linecap="round"/>
<path d="M74 38.7562L80 32.941" stroke="#C79659" stroke-linecap="round"/>
<path d="M85 17.9687L91 11.9797" stroke="#C79659" stroke-linecap="round"/>
<path d="M94 15.9724L96.5 12.9779" stroke="#C79659" stroke-linecap="round"/>
<path d="M103.5 76.3609V76.3609C103.823 76.6828 104.25 76.8778 104.705 76.9102L111 77.3591L117.5 77.8581L128.5 79.8545L134.958 81.645C136.644 82.1124 138.254 82.8201 139.738 83.7462L140.526 84.2373C141.173 84.6413 141.773 85.1175 142.313 85.6567L142.676 86.0194C143.547 86.8883 144.203 87.948 144.592 89.1146V89.1146C144.862 89.9229 145 90.7696 145 91.6219V91.6775C145 93.401 144.461 95.0814 143.458 96.483L143.281 96.7301C142.763 97.4537 142.143 98.0985 141.44 98.6441L140.213 99.5968C138.745 100.737 137.124 101.665 135.398 102.354L133.353 103.17C131.454 103.928 129.494 104.521 127.494 104.941L125.714 105.315C122.577 105.974 119.39 106.365 116.186 106.484L107.5 106.805H93.5L78.5 105.807L70.5 105.307L65.5 104.808L59 103.81L53 102.812L48 101.814L45.6549 101.229C44.5549 100.954 43.4882 100.56 42.4738 100.054L42.3016 99.9681C41.4363 99.5363 40.619 99.0143 39.8633 98.4108L39.6406 98.233C38.8832 97.6282 38.2054 96.9301 37.6232 96.1553L37.3705 95.819C37.124 95.4909 36.9076 95.1413 36.7238 94.7745L36.6299 94.587C36.2157 93.7601 36 92.8481 36 91.9232V91.9232C36 91.5309 36.0388 91.1395 36.1159 90.7548L36.243 90.1205C36.4136 89.2692 36.697 88.4445 37.0859 87.6683V87.6683C37.6888 86.4647 38.5343 85.399 39.5692 84.5381L41 83.348V83.348C42.9853 82.0269 45.1826 81.0566 47.4963 80.4792L48 80.3535L55 79.3554L60.5 78.8563L66.5 78.3572L72.5 77.8581L75.9412 77.3591M103.5 76.3609L105.5 73.3664L109 68.8747L112 64.383L115 59.3922L117.5 53.9024V53.9024C118.831 50.2477 119.884 46.4973 120.648 42.6835L121 40.9263L121.243 37.5248C121.414 35.1391 121.374 32.7429 121.123 30.3642V30.3642C120.71 26.4467 119.729 22.6101 118.212 18.9748L118 18.4678L116.414 15.7537C115.143 13.5795 113.598 11.5782 111.815 9.79918V9.79918C110.607 8.59343 109.296 7.49553 107.897 6.51798L107.67 6.35935C105.895 5.11911 103.992 4.07414 101.992 3.2426L101.812 3.16758C99.9427 2.39021 97.9955 1.81585 96.0037 1.45437V1.45437C94.3379 1.15207 92.6484 1 90.9554 1H89.3528C87.7874 1 86.2252 1.14061 84.685 1.42014V1.42014C82.5697 1.80402 80.5099 2.44736 78.5522 3.33559L78.4753 3.37048C76.8293 4.11728 75.263 5.02854 73.8003 6.09037L72.5602 6.99059C71.1889 7.98612 69.8975 9.08753 68.6981 10.2847L68.3277 10.6545C66.7812 12.1981 65.4207 13.9175 64.274 15.7775L64.0723 16.1047C62.6989 18.3322 61.6764 20.7578 61.0406 23.2963V23.2963C60.6809 24.7326 60.4469 26.1975 60.3412 27.6744L60 32.442V32.442C60.3328 37.4243 61.0758 42.3707 62.2215 47.2308L62.5 48.4125L66.5 59.3922L73 72.3683L75.9412 77.3591M103.5 76.3609L101 78.8563L97 83.348L94.1351 86.2076C93.7133 86.6287 93.2415 86.9964 92.7302 87.3026V87.3026C91.598 87.9807 90.303 88.3388 88.9833 88.3388H88.7899C88.2646 88.3388 87.7361 88.2861 87.2209 88.1833V88.1833C86.093 87.9581 85.0158 87.4945 84.0793 86.8268L83.2039 86.2027C82.4038 85.6322 81.6702 84.9739 81.0167 84.2401L79.8613 82.9427C78.6234 81.5526 77.5241 80.045 76.579 78.4414L75.9412 77.3591" stroke="#C79659"/>
<path d="M90.5 11.9807C100.982 11.9807 109.5 20.6833 109.5 31.4435C109.5 42.2039 100.982 50.9074 90.5 50.9074C80.0176 50.9074 71.5 42.2039 71.5 31.4435C71.5001 20.6833 80.0177 11.9807 90.5 11.9807Z" stroke="#C79659"/>
<path d="M95 12.9779L100 17.9687" stroke="#C79659" stroke-linecap="round"/>
<path d="M90 11.9797L94 15.9724" stroke="#C79659" stroke-linecap="round"/>
<path d="M81 14.9742L84 17.9687" stroke="#C79659" stroke-linecap="round"/>
<path d="M77 17.9687L82 22.9595" stroke="#C79659" stroke-linecap="round"/>
<path d="M75 20.9631L79 24.9558" stroke="#C79659" stroke-linecap="round"/>
<path d="M73 25.9539L78 30.9447" stroke="#C79659" stroke-linecap="round"/>
<path d="M72 28.9484L78 34.9374" stroke="#C79659" stroke-linecap="round"/>
<path d="M73 34.9374L79 40.9263" stroke="#C79659" stroke-linecap="round"/>
<path d="M86 12.9779L90 16.9705" stroke="#C79659" stroke-linecap="round"/>
<path d="M88.2969 83.6764L100.058 70.5035" stroke="#C79659" stroke-linecap="round"/>
<path d="M95.1419 80.7839L104.993 69.2204" stroke="#C79659" stroke-linecap="round"/>
<path d="M88.0959 80.1886L94 84.8452" stroke="#C79659" stroke-linecap="round"/>
<path d="M92.9155 76.9125L98.1657 81.1102" stroke="#C79659" stroke-linecap="round"/>
<path d="M96.6504 72.1989L102 76.8599" stroke="#C79659" stroke-linecap="round"/>
<path d="M100.942 68.4531L106 71.8692" stroke="#C79659" stroke-linecap="round"/>
<path d="M103.88 67.2846L112.348 57.8002" stroke="#C79659" stroke-linecap="round"/>
<path d="M105.647 63.184L110 66.8783" stroke="#C79659" stroke-linecap="round"/>
<path d="M106.915 59.1119L112 62.8857" stroke="#C79659" stroke-linecap="round"/>
<path d="M109.238 55.9791L115.825 48.6022" stroke="#C79659" stroke-linecap="round"/>
<path d="M109.651 54.4557L115 58.8931" stroke="#C79659" stroke-linecap="round"/>
<path d="M111.504 51.8498L116 55.8986" stroke="#C79659" stroke-linecap="round"/>
<path d="M113.771 47.7205L118 50.9078" stroke="#C79659" stroke-linecap="round"/>
<path d="M114.241 47.1936L118.946 41.9244" stroke="#C79659" stroke-linecap="round"/>
<path d="M115.566 44.118L119 46.9152" stroke="#C79659" stroke-linecap="round"/>
<path d="M78 101.315L82 105.307" stroke="#C79659" stroke-linecap="round"/>
<path d="M86 98.3203L79 105.307" stroke="#C79659" stroke-linecap="round"/>
<path d="M82.5 101.315L86.5 105.307" stroke="#C79659" stroke-linecap="round"/>
<path d="M90.5 100.317L85.5 105.307" stroke="#C79659" stroke-linecap="round"/>
<path d="M88.5 101.814L92.5 105.807" stroke="#C79659" stroke-linecap="round"/>
<path d="M98 97.3223L90 105.807" stroke="#C79659" stroke-linecap="round"/>
<path d="M91.5 101.814L95.5 106.306" stroke="#C79659" stroke-linecap="round"/>
<path d="M104.5 97.3223L96 105.308" stroke="#C79659" stroke-linecap="round"/>
<path d="M96 100.816L100.5 106.306" stroke="#C79659" stroke-linecap="round"/>
<path d="M110 96.8231L100.5 106.306" stroke="#C79659" stroke-linecap="round"/>
<path d="M101.5 101.315L106 106.306" stroke="#C79659" stroke-linecap="round"/>
<path d="M115 96.3241L106 105.807" stroke="#C79659" stroke-linecap="round"/>
<path d="M109.5 99.8176L115 105.807" stroke="#C79659" stroke-linecap="round"/>
<path d="M121 95.825L111 105.807" stroke="#C79659" stroke-linecap="round"/>
<path d="M115.5 97.8213L123.5 105.307" stroke="#C79659" stroke-linecap="round"/>
<path d="M129 93.8286L116.5 105.807" stroke="#C79659" stroke-linecap="round"/>
<path d="M122 97.8213L128.5 104.309" stroke="#C79659" stroke-linecap="round"/>
<path d="M135.5 93.3296L123.5 105.307" stroke="#C79659" stroke-linecap="round"/>
<path d="M128 97.8213L133 102.812" stroke="#C79659" stroke-linecap="round"/>
<path d="M132 95.825L138 100.816" stroke="#C79659" stroke-linecap="round"/>
<path d="M140.5 92.3314L128.5 104.309" stroke="#C79659" stroke-linecap="round"/>
<path d="M136 92.3314L140.5 96.8231" stroke="#C79659" stroke-linecap="round"/>
<path d="M145 91.3333L139 97.3222" stroke="#C79659" stroke-linecap="round"/>
<path d="M139 88.3387L144.5 93.8286" stroke="#C79659" stroke-linecap="round"/>
<path d="M141.5 86.8416L138 90.3351" stroke="#C79659" stroke-linecap="round"/>
</svg>
