<svg width="199" height="108" viewBox="0 0 199 108" fill="none" xmlns="http://www.w3.org/2000/svg">
<path d="M1 99.5623L1.46566 98.6947C2.36951 97.0106 3.67489 95.5755 5.26609 94.5167V94.5167C6.5047 93.6925 7.8901 93.1138 9.34698 92.8122L9.99962 92.6771C11.7645 92.3117 13.5807 92.2662 15.3617 92.5428L17.9066 92.9379C19.3256 93.1582 20.7265 93.4827 22.098 93.9085L31.0924 96.7016L37.1882 98.7298C38.84 99.2794 40.5839 99.4983 42.3203 99.3738L45.31 99.1596C46.8261 99.0509 48.2406 98.3567 49.254 97.2238L49.6916 96.7345C50.3697 95.9765 50.7446 94.9951 50.7446 93.978V93.584C50.7446 92.3296 50.0662 91.1733 48.9712 90.5612V90.5612C48.1429 90.0982 47.1608 89.9954 46.2545 90.2768L45.9371 90.3754C44.7106 90.7563 43.7346 91.6916 43.302 92.9008V92.9008C42.9542 93.8728 42.9873 94.9404 43.3946 95.889L43.4324 95.9772C43.7942 96.8198 44.4141 97.5257 45.2029 97.9934L47.907 99.5964C49.7731 100.703 51.8711 101.359 54.0349 101.515L55.6095 101.627C57.6769 101.775 59.7548 101.612 61.7735 101.142L62.9311 100.872C65.0354 100.382 67.0772 99.6542 69.0172 98.703L74.9038 95.8166C76.7871 94.8932 78.8568 94.4131 80.9543 94.4131H82.2259C84.8854 94.4131 87.4461 95.4211 89.392 97.2339V97.2339C90.6304 98.3877 92.1292 99.2254 93.7608 99.6757L107.859 103.567L110.36 104.189C114.825 105.298 119.379 106.015 123.969 106.332L133.652 107H162.516L174.185 106.387" stroke="#C7924B"/>
<path d="M150 17.9687L152.5 14.9742" stroke="#C79659" stroke-linecap="round"/>
<path d="M144 15.9724L146.5 12.9779" stroke="#C79659" stroke-linecap="round"/>
<path d="M130 21.9613L137 14.9742" stroke="#C79659" stroke-linecap="round"/>
<path d="M126 29.9466L133.799 21.5014" stroke="#C79659" stroke-linecap="round"/>
<path d="M126 34.1167L133 26.952" stroke="#C79659" stroke-linecap="round"/>
<path d="M129 41.7507L134 36.9337" stroke="#C79659" stroke-linecap="round"/>
<path d="M130 45.2105L135 40.9263" stroke="#C79659" stroke-linecap="round"/>
<path d="M135 75.8618L129.702 67.1747C128.57 65.3176 127.614 63.3591 126.846 61.3245L122.914 50.9078" stroke="#C79659" stroke-linecap="round"/>
<path d="M123 55.6631L123.05 55.6038C124.007 54.4811 125.18 53.5628 126.5 52.9042V52.9042" stroke="#C79659" stroke-linecap="round"/>
<path d="M124 59.9883L124.045 59.9361C125.146 58.6675 126.491 57.6338 128 56.8969V56.8969" stroke="#C79659" stroke-linecap="round"/>
<path d="M126 63.7504V63.7504C127.122 62.696 128.44 61.8712 129.879 61.3227L130 61.2767" stroke="#C79659" stroke-linecap="round"/>
<path d="M129.496 69.1738L131.287 66.8656L133.151 64.8821" stroke="#C79659" stroke-linecap="round"/>
<path d="M131 73.6469L133.149 71.6664L135.316 70.0181" stroke="#C79659" stroke-linecap="round"/>
<path d="M127 38.7561L133 32.9409" stroke="#C79659" stroke-linecap="round"/>
<path d="M138 17.9687L144 11.9797" stroke="#C79659" stroke-linecap="round"/>
<path d="M147 15.9724L149.5 12.9779" stroke="#C79659" stroke-linecap="round"/>
<path d="M156.5 76.3609V76.3609C156.823 76.6828 157.25 76.8778 157.705 76.9102L164 77.3591L170.5 77.8581L181.5 79.8545L187.958 81.645C189.644 82.1124 191.254 82.8201 192.738 83.7462L193.526 84.2373C194.173 84.6413 194.773 85.1175 195.313 85.6567L195.676 86.0194C196.547 86.8883 197.203 87.948 197.592 89.1146V89.1146C197.862 89.9229 198 90.7696 198 91.6219V91.6775C198 93.401 197.461 95.0814 196.458 96.483L196.281 96.7301C195.763 97.4537 195.143 98.0985 194.44 98.6441L193.213 99.5968C191.745 100.737 190.124 101.665 188.398 102.354L186.353 103.17C184.454 103.928 182.494 104.521 180.494 104.941L178.714 105.315C175.577 105.974 172.39 106.365 169.186 106.484L160.5 106.805H146.5L131.5 105.807L123.5 105.307L118.5 104.808L112 103.81L106 102.812L101 101.814L98.6549 101.229C97.5549 100.954 96.4882 100.56 95.4738 100.054L95.3016 99.9681C94.4363 99.5363 93.619 99.0143 92.8633 98.4108L92.6406 98.233C91.8832 97.6282 91.2054 96.9301 90.6232 96.1553L90.3705 95.819C90.124 95.4909 89.9076 95.1413 89.7238 94.7745L89.6299 94.587C89.2157 93.7601 89 92.8481 89 91.9232V91.9232C89 91.5309 89.0388 91.1395 89.1159 90.7548L89.243 90.1205C89.4136 89.2692 89.697 88.4445 90.0859 87.6683V87.6683C90.6888 86.4647 91.5343 85.399 92.5692 84.5381L94 83.348V83.348C95.9853 82.0269 98.1826 81.0566 100.496 80.4792L101 80.3535L108 79.3554L113.5 78.8563L119.5 78.3572L125.5 77.8581L128.941 77.3591M156.5 76.3609L158.5 73.3664L162 68.8747L165 64.383L168 59.3922L170.5 53.9024V53.9024C171.831 50.2477 172.884 46.4973 173.648 42.6835L174 40.9263L174.243 37.5248C174.414 35.1391 174.374 32.7429 174.123 30.3642V30.3642C173.71 26.4467 172.729 22.6101 171.212 18.9748L171 18.4678L169.414 15.7537C168.143 13.5795 166.598 11.5782 164.815 9.79918V9.79918C163.607 8.59343 162.296 7.49553 160.897 6.51798L160.67 6.35935C158.895 5.11911 156.992 4.07414 154.992 3.2426L154.812 3.16758C152.943 2.39021 150.995 1.81585 149.004 1.45437V1.45437C147.338 1.15207 145.648 1 143.955 1H142.353C140.787 1 139.225 1.14061 137.685 1.42014V1.42014C135.57 1.80402 133.51 2.44736 131.552 3.33559L131.475 3.37048C129.829 4.11728 128.263 5.02854 126.8 6.09037L125.56 6.99059C124.189 7.98612 122.898 9.08753 121.698 10.2847L121.328 10.6545C119.781 12.1981 118.421 13.9175 117.274 15.7775L117.072 16.1047C115.699 18.3322 114.676 20.7578 114.041 23.2963V23.2963C113.681 24.7326 113.447 26.1975 113.341 27.6744L113 32.442V32.442C113.333 37.4243 114.076 42.3707 115.221 47.2308L115.5 48.4125L119.5 59.3922L126 72.3683L128.941 77.3591M156.5 76.3609L154 78.8563L150 83.348L147.135 86.2076C146.713 86.6287 146.241 86.9964 145.73 87.3026V87.3026C144.598 87.9807 143.303 88.3388 141.983 88.3388H141.79C141.265 88.3388 140.736 88.2861 140.221 88.1833V88.1833C139.093 87.9581 138.016 87.4945 137.079 86.8268L136.204 86.2027C135.404 85.6322 134.67 84.9739 134.017 84.2401L132.861 82.9427C131.623 81.5526 130.524 80.045 129.579 78.4414L128.941 77.3591" stroke="#C79659"/>
<path d="M143.5 11.9807C153.982 11.9807 162.5 20.6834 162.5 31.4436C162.5 42.2039 153.982 50.9075 143.5 50.9075C133.018 50.9075 124.5 42.2039 124.5 31.4436C124.5 20.6834 133.018 11.9807 143.5 11.9807Z" stroke="#C79659"/>
<path d="M148 12.9779L153 17.9687" stroke="#C79659" stroke-linecap="round"/>
<path d="M143 11.9797L147 15.9724" stroke="#C79659" stroke-linecap="round"/>
<path d="M134 14.9742L137 17.9687" stroke="#C79659" stroke-linecap="round"/>
<path d="M130 17.9686L135 22.9594" stroke="#C79659" stroke-linecap="round"/>
<path d="M128 20.9631L132 24.9558" stroke="#C79659" stroke-linecap="round"/>
<path d="M126 25.954L131 30.9448" stroke="#C79659" stroke-linecap="round"/>
<path d="M125 28.9484L131 34.9373" stroke="#C79659" stroke-linecap="round"/>
<path d="M126 34.9374L132 40.9263" stroke="#C79659" stroke-linecap="round"/>
<path d="M139 12.9779L143 16.9705" stroke="#C79659" stroke-linecap="round"/>
<path d="M141.297 83.6764L153.058 70.5035" stroke="#C79659" stroke-linecap="round"/>
<path d="M148.142 80.7839L157.993 69.2204" stroke="#C79659" stroke-linecap="round"/>
<path d="M141.096 80.1887L147 84.8453" stroke="#C79659" stroke-linecap="round"/>
<path d="M145.916 76.9125L151.166 81.1102" stroke="#C79659" stroke-linecap="round"/>
<path d="M149.65 72.1989L155 76.8599" stroke="#C79659" stroke-linecap="round"/>
<path d="M153.942 68.4531L159 71.8692" stroke="#C79659" stroke-linecap="round"/>
<path d="M156.88 67.2846L165.348 57.8002" stroke="#C79659" stroke-linecap="round"/>
<path d="M158.647 63.1841L163 66.8784" stroke="#C79659" stroke-linecap="round"/>
<path d="M159.915 59.1119L165 62.8857" stroke="#C79659" stroke-linecap="round"/>
<path d="M162.238 55.9791L168.825 48.6023" stroke="#C79659" stroke-linecap="round"/>
<path d="M162.651 54.4558L168 58.8932" stroke="#C79659" stroke-linecap="round"/>
<path d="M164.504 51.8499L169 55.8987" stroke="#C79659" stroke-linecap="round"/>
<path d="M166.771 47.7206L171 50.9079" stroke="#C79659" stroke-linecap="round"/>
<path d="M167.241 47.1936L171.946 41.9245" stroke="#C79659" stroke-linecap="round"/>
<path d="M168.566 44.118L172 46.9152" stroke="#C79659" stroke-linecap="round"/>
<path d="M131 101.315L135 105.307" stroke="#C79659" stroke-linecap="round"/>
<path d="M139 98.3203L132 105.307" stroke="#C79659" stroke-linecap="round"/>
<path d="M135.5 101.315L139.5 105.307" stroke="#C79659" stroke-linecap="round"/>
<path d="M143.5 100.317L138.5 105.307" stroke="#C79659" stroke-linecap="round"/>
<path d="M141.5 101.814L145.5 105.807" stroke="#C79659" stroke-linecap="round"/>
<path d="M151 97.3223L143 105.807" stroke="#C79659" stroke-linecap="round"/>
<path d="M144.5 101.814L148.5 106.306" stroke="#C79659" stroke-linecap="round"/>
<path d="M157.5 97.3223L149 105.308" stroke="#C79659" stroke-linecap="round"/>
<path d="M149 100.816L153.5 106.306" stroke="#C79659" stroke-linecap="round"/>
<path d="M163 96.8231L153.5 106.306" stroke="#C79659" stroke-linecap="round"/>
<path d="M154.5 101.315L159 106.306" stroke="#C79659" stroke-linecap="round"/>
<path d="M168 96.3241L159 105.807" stroke="#C79659" stroke-linecap="round"/>
<path d="M162.5 99.8176L168 105.807" stroke="#C79659" stroke-linecap="round"/>
<path d="M174 95.825L164 105.807" stroke="#C79659" stroke-linecap="round"/>
<path d="M168.5 97.8213L176.5 105.307" stroke="#C79659" stroke-linecap="round"/>
<path d="M182 93.8286L169.5 105.807" stroke="#C79659" stroke-linecap="round"/>
<path d="M175 97.8213L181.5 104.309" stroke="#C79659" stroke-linecap="round"/>
<path d="M188.5 93.3296L176.5 105.307" stroke="#C79659" stroke-linecap="round"/>
<path d="M181 97.8213L186 102.812" stroke="#C79659" stroke-linecap="round"/>
<path d="M185 95.825L191 100.816" stroke="#C79659" stroke-linecap="round"/>
<path d="M193.5 92.3314L181.5 104.309" stroke="#C79659" stroke-linecap="round"/>
<path d="M189 92.3314L193.5 96.8231" stroke="#C79659" stroke-linecap="round"/>
<path d="M198 91.3333L192 97.3222" stroke="#C79659" stroke-linecap="round"/>
<path d="M192 88.3387L197.5 93.8286" stroke="#C79659" stroke-linecap="round"/>
<path d="M194.5 86.8416L191 90.3351" stroke="#C79659" stroke-linecap="round"/>
</svg>
