<svg width="139" height="126" viewBox="0 0 139 126" fill="none" xmlns="http://www.w3.org/2000/svg">
<path d="M78.3784 8.96127L78.7921 8.13587C79.4453 6.83271 80.4075 5.70918 81.5946 4.86329V4.86329C82.5703 4.16811 83.6758 3.67625 84.8453 3.41698L85.2355 3.33049C86.5979 3.02847 88.0057 2.99087 89.3823 3.21975L91.3109 3.54038C92.3898 3.71976 93.453 3.9832 94.4909 4.32831L101.382 6.61972L106.023 8.27298C107.296 8.72678 108.651 8.90782 109.999 8.80436L112.095 8.64357C113.35 8.54727 114.513 7.94821 115.319 6.9823L115.585 6.66475C116.115 6.03053 116.405 5.23039 116.405 4.404V3.91685C116.405 2.97901 115.912 2.1101 115.107 1.62845V1.62845C114.441 1.22948 113.633 1.14099 112.896 1.38611L112.71 1.4482C111.785 1.75567 111.059 2.48054 110.75 3.40475L110.699 3.55669C110.443 4.32481 110.467 5.15914 110.769 5.91083L110.802 5.99326C111.087 6.70507 111.589 7.30917 112.237 7.72018L114.152 8.93612C115.631 9.87512 117.318 10.4363 119.065 10.5704L120.151 10.6537C121.712 10.7735 123.282 10.6414 124.801 10.2625V10.2625C126.998 9.71474 129.037 8.66376 130.758 7.1926L138 1" stroke="#C7924B" stroke-width="0.940397" stroke-linecap="round"/>
<path d="M92.8557 49.8033V97.3417C92.8557 98.1817 92.7524 99.0185 92.5482 99.8333L92.2899 100.864C92.0068 101.994 91.4217 103.025 90.5972 103.847V103.847C90.1092 104.334 89.546 104.739 88.9292 105.047L88.1564 105.432C87.2988 105.86 86.392 106.181 85.4564 106.389L84.4895 106.603C83.0821 106.915 81.645 107.072 80.2035 107.072H76.8808H70.391H67.2496C66.4423 107.072 65.7255 107.589 65.4697 108.354V108.354C65.4226 108.495 65.359 108.63 65.2801 108.756L62.9028 112.55L60.9059 115.538L59.4082 118.028L58.2852 119.709C57.7041 120.578 57.0384 121.388 56.298 122.127L55.2931 123.129C55.0422 123.379 54.7615 123.598 54.4574 123.78L53.8049 124.171C52.9416 124.687 51.8744 124.728 50.9741 124.279V124.279C50.6102 124.098 50.2878 123.843 50.0271 123.531L48.6393 121.87C48.1648 121.302 47.7385 120.695 47.3649 120.056L44.4318 115.04L40.038 108.904C39.6624 108.379 39.0569 108.068 38.4118 108.068H25.4616L22.0125 107.724C20.9963 107.623 20.0151 107.298 19.1388 106.774L18.9633 106.669C18.3095 106.278 17.7379 105.763 17.28 105.154V105.154C16.7505 104.45 16.3858 103.636 16.2126 102.772L16.1226 102.323C16.0254 101.838 15.9739 101.346 15.9687 100.851L15.4773 53.7872V48.8407M92.8557 49.8033H96.3502H99.9177C100.533 49.8033 101.147 49.7426 101.751 49.6222L102.099 49.5527C102.92 49.389 103.706 49.0856 104.424 48.6558L105.179 48.2041C105.611 47.9455 105.98 47.5941 106.26 47.1754V47.1754C106.634 46.6159 106.834 45.9582 106.834 45.2853V44.5753C106.834 43.7601 106.612 42.9602 106.192 42.2616V42.2616C105.639 41.3438 104.778 40.6537 103.761 40.3157L102.823 40.0038C102.502 39.897 102.189 39.7676 101.886 39.6166L98.3471 37.8515L94.8526 35.8595L90.3596 32.8715L89.6781 32.3956C86.9769 30.5094 85.3675 27.4226 85.3675 24.1281V24.1281C85.3675 23.6497 85.4015 23.172 85.4693 22.6986L86.3659 16.4378L86.8651 9.9639V9.9639C86.8651 9.41384 86.4192 8.96792 85.8691 8.96792H82.8714H77.4333C77.0661 8.96792 76.6999 9.00802 76.3414 9.0875L75.7912 9.20946C73.8029 9.65022 72.3879 11.4133 72.3879 13.4498V13.4498V16.9358V16.9358C72.3879 17.7393 71.4589 18.1864 70.8309 17.6852L69.8918 16.9358L65.898 12.9519L62.0732 9.56035C61.6288 9.16625 61.1486 8.81439 60.6389 8.50933V8.50933C59.4982 7.82657 58.2277 7.38899 56.9085 7.22449L56.7385 7.2033C55.5324 7.0529 54.3093 7.11547 53.1248 7.38814L51.5778 7.74426C49.4907 8.22471 47.4979 9.04825 45.6806 10.1813L40.438 13.4498L3.67258 42.7901C3.22479 43.1475 2.83483 43.5718 2.5165 44.0481L1.47433 45.6076C1.17512 46.0553 1.09989 46.6162 1.27055 47.127V47.127C1.41696 47.5651 1.73148 47.9271 2.14488 48.1333L2.77234 48.4463C3.24832 48.6837 3.77295 48.8073 4.30484 48.8073H9.98588L15.4773 48.8407M92.8557 49.8033V49.8033C92.1988 49.4756 91.4756 49.3029 90.7416 49.2985L15.4773 48.8407" stroke="#C59253" stroke-linecap="round"/>
<rect x="56.4146" y="80.6827" width="15.9718" height="16.9237" rx="4" stroke="#C59253" stroke-width="2"/>
<path d="M57.8218 81.9276C57.8452 82.1616 58.2716 82.5176 58.4306 82.6889C58.7439 83.0264 59.1005 83.3203 59.4263 83.6454C59.7873 84.0054 60.1917 84.299 60.5743 84.6344C60.8509 84.8769 61.1013 85.1482 61.4005 85.3631C61.8415 85.6798 62.207 86.1031 62.6355 86.4389C62.8591 86.6141 63.0274 86.847 63.2617 87.0028" stroke="#C59253" stroke-linecap="round"/>
<path d="M58.1348 83.88C58.1478 83.7632 58.3394 83.6013 58.4174 83.52C58.6066 83.3227 58.8021 83.1362 58.9958 82.943C59.3201 82.6195 59.6454 82.3174 59.9937 82.0234C60.2215 81.8312 60.4445 81.6257 60.6786 81.4422C60.8115 81.338 60.9218 81.182 61.07 81.1082" stroke="#C59253" stroke-linecap="round"/>
<path d="M61.3049 80.9126C62.7706 82.2285 64.3084 83.5183 65.6882 84.8947" stroke="#C59253" stroke-linecap="round"/>
<path d="M63.614 85.4025C63.7819 85.2165 63.9822 85.0712 64.1619 84.895C64.4236 84.6385 64.6607 84.3611 64.9185 84.1012C65.3588 83.6574 65.8012 83.1739 66.197 82.6893C66.5777 82.2232 67.0269 81.8095 67.4667 81.401C67.6435 81.2367 67.7861 81.0455 67.9559 80.8761C68.0158 80.8163 68.119 80.7481 68.1538 80.6787" stroke="#C59253" stroke-linecap="round"/>
<path d="M65.1011 80.7178C65.3879 80.7464 65.6177 81.0993 65.8273 81.2665C66.2222 81.5817 66.5676 81.9421 66.9231 82.2967C67.2133 82.5863 67.5556 82.8134 67.8232 83.1296C67.9401 83.2677 68.1535 83.4111 68.2319 83.5677" stroke="#C59253" stroke-linecap="round"/>
<path d="M56.6477 88.7597C56.8048 88.4776 57.1256 88.2439 57.3522 88.0179C57.7577 87.6134 58.1536 87.196 58.5349 86.7686C58.9006 86.3588 59.2607 85.9769 59.6612 85.5996C60.027 85.2549 60.3217 84.8555 60.6787 84.5043C61.2456 83.9467 61.8457 83.4663 62.4703 82.9818C62.6131 82.8709 62.7246 82.7411 62.8507 82.6152C62.9049 82.5612 62.994 82.5397 63.0269 82.4742" stroke="#C59253" stroke-linecap="round"/>
<path d="M56.9609 85.0118C56.9904 85.1295 57.2991 85.3101 57.3914 85.4022C57.6983 85.7084 58.0307 85.9859 58.3481 86.2806C58.947 86.8369 59.489 87.4571 60.1222 87.9789C60.2435 88.0788 60.5278 88.2876 60.5919 88.4387C60.6372 88.5456 60.767 88.7056 60.8571 88.7792C61.0448 88.9324 61.2943 89.0968 61.3442 89.3453" stroke="#C59253" stroke-linecap="round"/>
<path d="M56.4128 88.6427C56.4314 88.8276 56.6253 89.0393 56.7259 89.1849C56.9448 89.5015 57.1791 89.8322 57.4521 90.1045C58.0653 90.7163 58.6077 91.3984 59.2393 91.9915C59.8427 92.5579 60.4068 93.2217 61.07 93.7179" stroke="#C59253" stroke-linecap="round"/>
<path d="M57.0781 94.7328C57.1081 94.4334 57.5369 94.0981 57.7239 93.8934C58.082 93.5013 58.4082 93.0842 58.7479 92.6767C59.2712 92.0489 59.9077 91.4883 60.4829 90.9068C61.4286 89.951 62.333 88.8827 63.4573 88.135" stroke="#C59253" stroke-linecap="round"/>
<path d="M58.6829 96.2161C58.7924 96.204 58.9135 96.1055 59.0046 96.0513C59.2997 95.8759 59.572 95.6657 59.8265 95.4353C60.3535 94.9584 60.8504 94.3929 61.2876 93.8347C61.6231 93.4063 61.9986 93.0093 62.3421 92.5876C62.478 92.4207 62.6136 92.2357 62.7921 92.1169" stroke="#C59253" stroke-linecap="round"/>
<rect x="34.449" y="80.6827" width="15.9718" height="16.9237" rx="4" stroke="#C59253" stroke-width="2"/>
<path d="M35.8564 81.9276C35.8799 82.1616 36.3063 82.5176 36.4652 82.6889C36.7785 83.0264 37.1351 83.3203 37.461 83.6454C37.822 84.0054 38.2264 84.299 38.609 84.6344C38.8856 84.8769 39.136 85.1482 39.4352 85.3631C39.8761 85.6798 40.2417 86.1031 40.6702 86.4389C40.8937 86.6141 41.0621 86.847 41.2963 87.0028" stroke="#C59253" stroke-linecap="round"/>
<path d="M36.1694 83.88C36.1824 83.7632 36.374 83.6013 36.4521 83.52C36.6412 83.3227 36.8368 83.1362 37.0304 82.943C37.3548 82.6195 37.6801 82.3174 38.0284 82.0234C38.2561 81.8312 38.4791 81.6257 38.7133 81.4422C38.8462 81.338 38.9565 81.182 39.1046 81.1082" stroke="#C59253" stroke-linecap="round"/>
<path d="M39.3394 80.9126C40.805 82.2285 42.3428 83.5183 43.7226 84.8947" stroke="#C59253" stroke-linecap="round"/>
<path d="M41.6484 85.4025C41.8163 85.2165 42.0166 85.0712 42.1963 84.895C42.458 84.6385 42.6952 84.3611 42.953 84.1012C43.3933 83.6574 43.8356 83.1739 44.2314 82.6893C44.6121 82.2232 45.0613 81.8095 45.5012 81.401C45.678 81.2367 45.8205 81.0455 45.9903 80.8761C46.0502 80.8163 46.1534 80.7481 46.1882 80.6787" stroke="#C59253" stroke-linecap="round"/>
<path d="M43.1355 80.7178C43.4223 80.7464 43.6521 81.0993 43.8617 81.2665C44.2566 81.5817 44.602 81.9421 44.9575 82.2967C45.2477 82.5863 45.59 82.8134 45.8576 83.1296C45.9745 83.2677 46.1879 83.4111 46.2664 83.5677" stroke="#C59253" stroke-linecap="round"/>
<path d="M34.6821 88.7597C34.8393 88.4776 35.16 88.2439 35.3866 88.0179C35.7921 87.6134 36.188 87.196 36.5693 86.7686C36.935 86.3588 37.2952 85.9769 37.6956 85.5996C38.0614 85.2549 38.3561 84.8555 38.7131 84.5043C39.28 83.9467 39.8801 83.4663 40.5047 82.9818C40.6476 82.8709 40.759 82.7411 40.8852 82.6152C40.9393 82.5612 41.0285 82.5397 41.0613 82.4742" stroke="#C59253" stroke-linecap="round"/>
<path d="M34.9954 85.0118C35.0249 85.1295 35.3335 85.3101 35.4259 85.4022C35.7327 85.7084 36.0651 85.9859 36.3825 86.2806C36.9814 86.8369 37.5235 87.4571 38.1567 87.9789C38.2779 88.0788 38.5622 88.2876 38.6263 88.4387C38.6717 88.5456 38.8014 88.7056 38.8916 88.7792C39.0792 88.9324 39.3288 89.0968 39.3786 89.3453" stroke="#C59253" stroke-linecap="round"/>
<path d="M34.4475 88.6427C34.466 88.8276 34.66 89.0393 34.7606 89.1849C34.9794 89.5015 35.2138 89.8322 35.4868 90.1045C36.1 90.7163 36.6423 91.3984 37.274 91.9915C37.8773 92.5579 38.4415 93.2217 39.1047 93.7179" stroke="#C59253" stroke-linecap="round"/>
<path d="M35.1125 94.7328C35.1426 94.4334 35.5714 94.0981 35.7583 93.8934C36.1164 93.5013 36.4426 93.0842 36.7823 92.6767C37.3056 92.0489 37.9421 91.4883 38.5174 90.9068C39.463 89.951 40.3674 88.8827 41.4917 88.135" stroke="#C59253" stroke-linecap="round"/>
<path d="M36.7173 96.2161C36.8268 96.204 36.9479 96.1055 37.0391 96.0513C37.3341 95.8759 37.6064 95.6657 37.8609 95.4353C38.3879 94.9584 38.8848 94.3929 39.322 93.8347C39.6575 93.4063 40.033 93.0093 40.3765 92.5876C40.5124 92.4207 40.6481 92.2357 40.8266 92.1169" stroke="#C59253" stroke-linecap="round"/>
<rect x="34.449" y="58.7711" width="15.9718" height="16.9237" rx="4" stroke="#C59253" stroke-width="2"/>
<path d="M35.8564 60.016C35.8799 60.25 36.3063 60.606 36.4652 60.7773C36.7785 61.1148 37.1351 61.4087 37.461 61.7338C37.822 62.0938 38.2264 62.3873 38.609 62.7228C38.8856 62.9652 39.136 63.2366 39.4352 63.4515C39.8761 63.7682 40.2417 64.1915 40.6702 64.5273C40.8937 64.7025 41.0621 64.9354 41.2963 65.0912" stroke="#C59253" stroke-linecap="round"/>
<path d="M36.1694 61.9684C36.1824 61.8516 36.374 61.6897 36.4521 61.6083C36.6412 61.4111 36.8368 61.2246 37.0304 61.0314C37.3548 60.7079 37.6801 60.4058 38.0284 60.1118C38.2561 59.9196 38.4791 59.7141 38.7133 59.5305C38.8462 59.4263 38.9565 59.2704 39.1046 59.1965" stroke="#C59253" stroke-linecap="round"/>
<path d="M39.3394 59.001C40.805 60.3169 42.3428 61.6067 43.7226 62.9831" stroke="#C59253" stroke-linecap="round"/>
<path d="M41.6484 63.4909C41.8163 63.3049 42.0166 63.1596 42.1963 62.9834C42.458 62.7269 42.6952 62.4495 42.953 62.1896C43.3933 61.7458 43.8356 61.2623 44.2314 60.7776C44.6121 60.3115 45.0613 59.8979 45.5012 59.4893C45.678 59.3251 45.8205 59.1339 45.9903 58.9645C46.0502 58.9047 46.1534 58.8365 46.1882 58.7671" stroke="#C59253" stroke-linecap="round"/>
<path d="M43.1355 58.8062C43.4223 58.8348 43.6521 59.1876 43.8617 59.3549C44.2566 59.6701 44.602 60.0305 44.9575 60.3851C45.2477 60.6746 45.59 60.9018 45.8576 61.218C45.9745 61.3561 46.1879 61.4995 46.2664 61.6561" stroke="#C59253" stroke-linecap="round"/>
<path d="M34.6821 66.8481C34.8393 66.5659 35.16 66.3323 35.3866 66.1063C35.7921 65.7017 36.188 65.2844 36.5693 64.857C36.935 64.4472 37.2952 64.0653 37.6956 63.688C38.0614 63.3433 38.3561 62.9439 38.7131 62.5927C39.28 62.0351 39.8801 61.5547 40.5047 61.0701C40.6476 60.9593 40.759 60.8295 40.8852 60.7036C40.9393 60.6496 41.0285 60.6281 41.0613 60.5626" stroke="#C59253" stroke-linecap="round"/>
<path d="M34.9954 63.1002C35.0249 63.2179 35.3335 63.3985 35.4259 63.4906C35.7327 63.7967 36.0651 64.0742 36.3825 64.369C36.9814 64.9253 37.5235 65.5454 38.1567 66.0673C38.2779 66.1671 38.5622 66.376 38.6263 66.5271C38.6717 66.634 38.8014 66.794 38.8916 66.8676C39.0792 67.0208 39.3288 67.1852 39.3786 67.4337" stroke="#C59253" stroke-linecap="round"/>
<path d="M34.4475 66.7311C34.466 66.916 34.66 67.1277 34.7606 67.2733C34.9794 67.5898 35.2138 67.9206 35.4868 68.1929C36.1 68.8046 36.6423 69.4868 37.274 70.0798C37.8773 70.6463 38.4415 71.3101 39.1047 71.8063" stroke="#C59253" stroke-linecap="round"/>
<path d="M35.1125 72.8211C35.1426 72.5217 35.5714 72.1864 35.7583 71.9818C36.1164 71.5897 36.4426 71.1726 36.7823 70.765C37.3056 70.1373 37.9421 69.5767 38.5174 68.9952C39.463 68.0394 40.3674 66.9711 41.4917 66.2234" stroke="#C59253" stroke-linecap="round"/>
<path d="M36.7173 74.3045C36.8268 74.2924 36.9479 74.1939 37.0391 74.1397C37.3341 73.9643 37.6064 73.7541 37.8609 73.5237C38.3879 73.0468 38.8848 72.4813 39.322 71.9231C39.6575 71.4947 40.033 71.0977 40.3765 70.676C40.5124 70.5091 40.6481 70.324 40.8266 70.2053" stroke="#C59253" stroke-linecap="round"/>
<rect x="56.4146" y="58.7711" width="15.9718" height="16.9237" rx="4" stroke="#C59253" stroke-width="2"/>
<path d="M57.8218 60.016C57.8452 60.25 58.2716 60.606 58.4306 60.7773C58.7439 61.1148 59.1005 61.4087 59.4263 61.7338C59.7873 62.0938 60.1917 62.3873 60.5743 62.7228C60.8509 62.9652 61.1013 63.2366 61.4005 63.4515C61.8415 63.7682 62.207 64.1915 62.6355 64.5273C62.8591 64.7025 63.0274 64.9354 63.2617 65.0912" stroke="#C59253" stroke-linecap="round"/>
<path d="M58.1348 61.9684C58.1478 61.8516 58.3394 61.6897 58.4174 61.6083C58.6066 61.4111 58.8021 61.2246 58.9958 61.0314C59.3201 60.7079 59.6454 60.4058 59.9937 60.1118C60.2215 59.9196 60.4445 59.7141 60.6786 59.5305C60.8115 59.4263 60.9218 59.2704 61.07 59.1965" stroke="#C59253" stroke-linecap="round"/>
<path d="M61.3049 59.001C62.7706 60.3169 64.3084 61.6067 65.6882 62.9831" stroke="#C59253" stroke-linecap="round"/>
<path d="M63.614 63.4909C63.7819 63.3049 63.9822 63.1596 64.1619 62.9834C64.4236 62.7269 64.6607 62.4495 64.9185 62.1896C65.3588 61.7458 65.8012 61.2623 66.197 60.7776C66.5777 60.3115 67.0269 59.8979 67.4667 59.4893C67.6435 59.3251 67.7861 59.1339 67.9559 58.9645C68.0158 58.9047 68.119 58.8365 68.1538 58.7671" stroke="#C59253" stroke-linecap="round"/>
<path d="M65.1011 58.8062C65.3879 58.8348 65.6177 59.1876 65.8273 59.3549C66.2222 59.6701 66.5676 60.0305 66.9231 60.3851C67.2133 60.6746 67.5556 60.9018 67.8232 61.218C67.9401 61.3561 68.1535 61.4995 68.2319 61.6561" stroke="#C59253" stroke-linecap="round"/>
<path d="M56.6477 66.8481C56.8048 66.5659 57.1256 66.3323 57.3522 66.1063C57.7577 65.7017 58.1536 65.2844 58.5349 64.857C58.9006 64.4472 59.2607 64.0653 59.6612 63.688C60.027 63.3433 60.3217 62.9439 60.6787 62.5927C61.2456 62.0351 61.8457 61.5547 62.4703 61.0701C62.6131 60.9593 62.7246 60.8295 62.8507 60.7036C62.9049 60.6496 62.994 60.6281 63.0269 60.5626" stroke="#C59253" stroke-linecap="round"/>
<path d="M56.9609 63.1002C56.9904 63.2179 57.2991 63.3985 57.3914 63.4906C57.6983 63.7967 58.0307 64.0742 58.3481 64.369C58.947 64.9253 59.489 65.5454 60.1222 66.0673C60.2435 66.1671 60.5278 66.376 60.5919 66.5271C60.6372 66.634 60.767 66.794 60.8571 66.8676C61.0448 67.0208 61.2943 67.1852 61.3442 67.4337" stroke="#C59253" stroke-linecap="round"/>
<path d="M56.4128 66.7311C56.4314 66.916 56.6253 67.1277 56.7259 67.2733C56.9448 67.5898 57.1791 67.9206 57.4521 68.1929C58.0653 68.8046 58.6077 69.4868 59.2393 70.0798C59.8427 70.6463 60.4068 71.3101 61.07 71.8063" stroke="#C59253" stroke-linecap="round"/>
<path d="M57.0781 72.8211C57.1081 72.5217 57.5369 72.1864 57.7239 71.9818C58.082 71.5897 58.4082 71.1726 58.7479 70.765C59.2712 70.1373 59.9077 69.5767 60.4829 68.9952C61.4286 68.0394 62.333 66.9711 63.4573 66.2234" stroke="#C59253" stroke-linecap="round"/>
<path d="M58.6829 74.3045C58.7924 74.2924 58.9135 74.1939 59.0046 74.1397C59.2997 73.9643 59.572 73.7541 59.8265 73.5237C60.3535 73.0468 60.8504 72.4813 61.2876 71.9231C61.6231 71.4947 61.9986 71.0977 62.3421 70.676C62.478 70.5091 62.6136 70.324 62.7921 70.2053" stroke="#C59253" stroke-linecap="round"/>
<path d="M20.6827 61.1549C20.6827 62.7048 20.6827 64.2547 20.6827 65.8045C20.6827 67.8056 20.6645 69.8067 20.7367 71.8068C20.8014 73.6013 20.7472 75.4126 20.8907 77.2018C21.1883 80.9126 21.2447 84.6457 21.4994 88.3609C21.5335 88.8584 21.5148 89.361 21.5148 89.8596C21.5148 89.9477 21.5326 90.3278 21.4454 90.0671" stroke="#C59253" stroke-linecap="round"/>
<path d="M18.5334 64.2676C19.6416 64.2676 20.7497 64.2676 21.8578 64.2676C22.3771 64.2676 23.2778 64.102 23.7338 64.4065" stroke="#C59253" stroke-linecap="round"/>
<path d="M17.8401 69.2473H23.3178" stroke="#C59253" stroke-linecap="round"/>
<path d="M19.2268 74.5735H24.9818" stroke="#C59253" stroke-linecap="round"/>
<path d="M19.5042 78.9309H24.0804" stroke="#C59253" stroke-linecap="round"/>
<path d="M18.5334 83.0812H21.5843" stroke="#C59253" stroke-linecap="round"/>
<path d="M19.2959 86.816H22.9015" stroke="#C59253" stroke-linecap="round"/>
<path d="M16.0317 40.5289C17.7642 40.5289 19.1083 39.1809 20.4927 38.2603C22.4977 36.9268 24.4181 35.3778 26.3143 33.8975C28.2065 32.4202 30.1769 31.048 32.0387 29.5347C33.6433 28.2304 35.3787 27.1627 36.8495 25.6955C38.1082 24.4399 39.5828 23.3425 41.1355 22.4671C42.5602 21.6638 43.9338 20.3758 45.2466 19.3744C46.8889 18.1215 48.4986 16.8672 49.9699 15.3994" stroke="#C59253" stroke-linecap="round"/>
<path d="M44.4927 16.7626C45.9178 16.9122 47.4363 18.4594 48.4302 19.4234C48.9505 19.928 49.4425 20.4332 49.9544 20.9438" stroke="#C59253" stroke-linecap="round"/>
<path d="M40.5552 19.8036C40.5943 20.9355 41.1763 21.6833 41.6419 22.6545C41.9446 23.2859 42.5626 23.9062 42.9685 24.4846C43.2569 24.8956 43.8272 25.2875 43.9846 25.7587" stroke="#C59253" stroke-linecap="round"/>
<path d="M35.2207 22.5912C35.7214 23.0722 36.4319 23.5275 36.8084 24.1116C36.9557 24.3402 37.4561 24.8915 37.6975 24.9986C38.314 25.2719 38.4828 26.1544 39.0312 26.519" stroke="#C59253" stroke-linecap="round"/>
<path d="M30.394 27.913C30.6266 27.9709 31.0861 28.654 31.3467 28.8562C31.5392 29.0056 31.7322 29.1505 31.9465 29.3067C32.4646 29.6844 33.5437 30.3957 33.8235 30.9539" stroke="#C59253" stroke-linecap="round"/>
<path d="M25.0593 30.0669C25.0593 30.542 25.6714 30.9174 25.9484 31.2706C26.6302 32.1396 27.4089 33.0696 28.2277 33.8047C28.9929 34.4917 29.4244 35.4349 30.14 36.1487" stroke="#C59253" stroke-linecap="round"/>
<path d="M19.2166 34.6281C19.6929 35.5784 20.2746 36.3648 20.8748 37.2255C21.1864 37.6722 21.6473 38.0838 21.8839 38.5559" stroke="#C59253" stroke-linecap="round"/>
<path d="M92.395 65.3947C91.8083 65.8065 91.3148 66.3673 90.8159 66.8759C90.6394 67.0559 90.1835 67.8242 89.9177 67.7358" stroke="#C59253" stroke-linecap="round"/>
<path d="M90.4392 65.5901C90.5885 65.6066 90.779 65.7674 90.8811 65.8647C91.1284 66.1004 91.4061 66.277 91.6634 66.5005C92.0996 66.8795 92.5677 67.3373 92.9165 67.8012" stroke="#C59253" stroke-linecap="round"/>
<path d="M89.6572 72.3532C90.4382 71.8949 90.7856 70.992 91.45 70.4311C91.7859 70.1476 92.1541 69.7876 92.3953 69.4268" stroke="#C59253" stroke-linecap="round"/>
<path d="M90.1785 69.2317C90.457 69.2822 90.7435 69.5864 90.9608 69.7519C91.2916 70.004 91.5484 70.3038 91.8372 70.5974C92.1772 70.9429 92.5084 71.2958 92.8514 71.6379" stroke="#C59253" stroke-linecap="round"/>
<path d="M88.9399 76.6456C89.6195 76.0294 90.2591 75.3586 90.9102 74.7091C91.2741 74.3461 91.5193 73.903 91.9388 73.5891" stroke="#C59253" stroke-linecap="round"/>
<path d="M90.3088 73.329C90.3498 73.2609 90.8861 73.9278 90.9318 73.9829C91.3483 74.4853 91.7725 74.9815 92.1994 75.475C92.54 75.8687 92.8666 76.2743 93.2063 76.6673C93.2977 76.7731 93.4448 76.8541 93.5033 76.9708" stroke="#C59253" stroke-linecap="round"/>
<path d="M89.0051 82.1731C89.0051 81.8111 89.5828 81.3155 89.7911 81.035C90.135 80.5719 90.6184 80.1736 91.0261 79.7669C91.3639 79.4299 91.8039 79.0097 92.2647 78.8564" stroke="#C59253" stroke-linecap="round"/>
<path d="M89.6572 78.9216C90.8374 79.7205 91.7478 80.7491 92.5257 81.9131" stroke="#C59253" stroke-linecap="round"/>
<path d="M89.0051 86.2701C89.0451 86.0709 89.3432 85.8164 89.4651 85.6523C89.6813 85.3611 89.9538 85.1115 90.1786 84.8249C90.5361 84.3693 90.8231 83.8713 91.2362 83.4593C91.4587 83.2372 91.7271 82.974 92.004 82.8234C92.1964 82.7187 92.2807 82.4578 92.4603 82.3682" stroke="#C59253" stroke-linecap="round"/>
<path d="M89.4614 83.7343C90.115 84.321 90.77 84.9095 91.3882 85.5263C91.6544 85.7918 92.5255 86.313 92.5255 86.7257" stroke="#C59253" stroke-linecap="round"/>
<path d="M86.6582 94.2044C87.2727 93.3556 87.8447 92.5266 88.614 91.8018C88.9295 91.5045 89.3035 91.28 89.6208 90.9853C89.912 90.7149 90.1433 90.383 90.4394 90.1218C90.9842 89.641 91.6804 89.2924 92.1742 88.7633C92.4172 88.503 92.7538 88.0154 93.1122 87.8962" stroke="#C59253" stroke-linecap="round"/>
<path d="M88.8093 87.5061C90.1203 88.745 91.3201 90.0436 92.3949 91.4731" stroke="#C59253" stroke-linecap="round"/>
<path d="M87.7012 92.5133C88.0668 92.7159 88.3741 93.054 88.6827 93.3298C89.1807 93.7749 89.6983 94.2093 90.1712 94.6811C90.5548 95.0637 91.0185 95.4334 91.3012 95.895C91.3747 96.015 91.5493 96.132 91.6453 96.2491C91.7378 96.3618 91.8185 96.4649 91.9242 96.5598C92.0587 96.6805 92.1064 96.8303 92.2646 96.9355" stroke="#C59253" stroke-linecap="round"/>
<path d="M81.9644 105.78C82.0088 105.292 82.6628 104.722 82.9785 104.382C83.5661 103.749 84.1567 103.122 84.7169 102.463C85.1608 101.942 85.7644 101.587 86.2091 101.058C86.6143 100.576 87.0596 100.112 87.5057 99.6671C88.1138 99.0605 88.7088 98.467 89.3166 97.8606C89.5654 97.6125 89.803 97.2206 90.1134 97.0658" stroke="#C59253" stroke-linecap="round"/>
<path d="M86.3972 95.7649C87.6642 96.8883 88.8613 98.1269 90.019 99.3742C90.4615 99.851 90.9902 100.308 91.3373 100.859C91.4663 101.064 91.7061 101.219 91.8082 101.423" stroke="#C59253" stroke-linecap="round"/>
<path d="M83.0725 98.3015C83.4599 98.4447 83.805 98.8135 84.1011 99.0964C84.4262 99.4068 84.7097 99.7546 85.0428 100.057C85.7628 100.712 86.3494 101.526 87.0999 102.138C87.8744 102.771 88.4719 103.56 89.2658 104.154" stroke="#C59253" stroke-linecap="round"/>
<path d="M75.9014 105.975C76.1926 105.939 76.5831 105.37 76.7525 105.159C77.2263 104.568 77.7108 103.975 78.2483 103.439C78.9914 102.698 79.7039 101.926 80.4974 101.257C81.0435 100.796 81.5078 100.224 82.015 99.7176C82.4222 99.3114 83.0151 98.9076 83.3333 98.4314" stroke="#C59253" stroke-linecap="round"/>
<path d="M77.2703 100.448C77.5638 100.48 77.8782 100.978 78.0888 101.163C78.4463 101.477 78.7775 101.827 79.1174 102.16C79.7118 102.744 80.2582 103.379 80.8414 103.974C81.195 104.335 81.5345 104.957 81.9641 105.209C82.0897 105.283 82.3658 105.606 82.4205 105.715" stroke="#C59253" stroke-linecap="round"/>
<path d="M71.2075 106.17C71.5197 105.859 71.7589 105.476 72.0876 105.191C72.3103 104.998 72.4974 104.753 72.7069 104.544C72.8852 104.367 73.1428 104.205 73.2937 104.01C73.8439 103.296 74.6312 102.793 75.3183 102.236C75.6172 101.993 75.9378 101.723 76.2128 101.473C76.3487 101.35 76.5049 101.207 76.6185 101.065C76.828 100.804 77.1875 100.613 77.3356 100.317" stroke="#C59253" stroke-linecap="round"/>
<path d="M72.1201 100.838C72.4841 100.858 72.778 101.25 73.0328 101.474C73.4086 101.803 73.8149 102.112 74.1411 102.492C74.6451 103.08 75.186 103.654 75.6731 104.248C75.9327 104.565 76.3751 104.84 76.5532 105.195" stroke="#C59253" stroke-linecap="round"/>
<path d="M62.9282 108.641C63.5761 108.06 64.2229 107.505 64.8043 106.849C65.2704 106.323 65.777 105.746 66.3182 105.296C67.2727 104.502 68.0416 103.49 69.0237 102.723C69.4806 102.367 69.9181 101.994 70.3275 101.585C70.6456 101.268 71.0335 101.04 71.3525 100.722C71.6279 100.447 71.7923 100.129 72.0262 99.8294C72.1547 99.6646 72.4487 99.3408 72.6419 99.2766" stroke="#C59253" stroke-linecap="round"/>
<path d="M67.5569 101.683C68.1901 102.291 68.7784 102.886 69.3497 103.562C69.5353 103.781 69.781 103.938 69.9835 104.14C70.1843 104.34 70.3489 104.58 70.5557 104.772C70.9416 105.129 71.2947 105.477 71.664 105.845" stroke="#C59253" stroke-linecap="round"/>
<path d="M62.0154 103.114C62.9486 103.899 63.7309 104.825 64.5905 105.682C64.9166 106.008 65.2409 106.339 65.5647 106.662C65.6753 106.772 65.8596 106.946 65.9269 107.081" stroke="#C59253" stroke-linecap="round"/>
<path d="M58.0388 106.365C58.9789 107.303 59.8204 108.317 60.6646 109.335C61.0814 109.837 61.6202 110.227 62.0119 110.755C62.1934 110.999 62.3884 111.224 62.6023 111.438" stroke="#C59253" stroke-linecap="round"/>
<path d="M54.4531 109.227C55.9937 110.527 57.1929 112.18 58.7884 113.418C58.9551 113.547 59.1702 113.758 59.2774 113.945C59.329 114.035 59.6033 114.477 59.6033 114.429" stroke="#C59253" stroke-linecap="round"/>
<path d="M51.1936 112.609C51.9582 113.85 53.0148 114.767 53.9317 115.875C54.2871 116.304 54.6993 116.678 55.0725 117.092C55.2706 117.312 55.5483 117.502 55.7064 117.746C55.9831 118.173 56.5551 118.608 56.9957 118.866C57.2403 119.01 57.6476 119.498 57.6476 119.762" stroke="#C59253" stroke-linecap="round"/>
<path d="M48.1946 115.34C48.2271 115.599 48.6807 115.89 48.8537 116.062C49.4929 116.7 50.098 117.369 50.7371 118.006C51.2616 118.529 51.8052 119.039 52.2981 119.592C52.4609 119.775 52.6893 119.865 52.8377 120.051C53.2285 120.542 54.0521 120.903 54.2575 121.518" stroke="#C59253" stroke-linecap="round"/>
<path d="M54.2576 121.453C54.9283 121.453 55.4483 120.497 55.9671 120.152C56.4455 119.834 56.788 119.201 57.1912 118.787C57.571 118.397 57.9315 117.972 58.2343 117.519C58.5705 117.015 59.0671 116.681 59.4078 116.185C59.8908 115.482 60.3188 114.777 61.0376 114.299" stroke="#C59253" stroke-linecap="round"/>
<path d="M49.2378 120.802C49.8443 120.197 50.3802 119.589 50.9255 118.924C51.2857 118.485 51.7318 118.114 52.0918 117.681C52.538 117.144 53.0636 116.639 53.5369 116.12C54.0688 115.536 54.4656 114.811 55.0435 114.27C55.9173 113.453 56.736 112.564 57.7128 111.86C58.5819 111.234 59.3622 110.355 60.3205 109.877" stroke="#C59253" stroke-linecap="round"/>
<path d="M51.5195 114.689C53.2261 112.987 55.0316 111.381 56.7349 109.682C57.8758 108.544 59.0505 107.437 60.1901 106.3C60.6041 105.887 60.9559 105.418 61.3636 105C61.9002 104.449 62.4486 103.875 62.9318 103.273C63.3352 102.77 63.8547 102.207 64.3624 101.813C64.6109 101.62 64.8506 101.325 65.1447 101.228" stroke="#C59253" stroke-linecap="round"/>
</svg>
