<svg width="150" height="124" viewBox="0 0 150 124" fill="none" xmlns="http://www.w3.org/2000/svg">
<path d="M1 116.526L1.99969 114.867C2.33178 114.315 2.73028 113.807 3.18627 113.353L3.33824 113.201C4.10182 112.441 5.03175 111.868 6.05462 111.528V111.528C7.00609 111.212 8.01462 111.106 9.01108 111.216L10.2789 111.357C11.4196 111.483 12.5382 111.762 13.6044 112.187L16.9968 113.539L20.996 115.033L24.1394 116.207C24.7083 116.419 25.2985 116.57 25.8998 116.655L26.7804 116.781C27.8968 116.939 29.035 116.755 30.0443 116.253L30.3787 116.086C31.1071 115.723 31.7169 115.16 32.1368 114.463L32.4143 114.003C32.787 113.384 32.9148 112.648 32.7726 111.94L32.7324 111.739C32.5818 110.99 32.0932 110.351 31.4087 110.011L31.2668 109.94C30.7719 109.693 30.1996 109.653 29.6749 109.827V109.827C29.2339 109.974 28.8541 110.263 28.5956 110.649L28.4644 110.845C28.1581 111.303 27.9946 111.841 27.9946 112.391V112.599C27.9946 113.519 28.3613 114.402 29.0135 115.052L29.4943 115.531L30.6988 116.49C31.5554 117.173 32.5259 117.699 33.5655 118.044V118.044C34.5112 118.358 35.5012 118.518 36.4977 118.518H36.6989C37.5582 118.518 38.4143 118.413 39.2481 118.206L39.923 118.038C41.2963 117.696 42.619 117.175 43.8573 116.49L46.491 115.033L49.1017 113.547C49.6902 113.212 50.3289 112.973 50.9931 112.841V112.841C51.9767 112.645 52.9929 112.686 53.9576 112.961L54.1795 113.024C55.3664 113.361 56.4478 113.996 57.3221 114.867L57.3687 114.913C58.1072 115.649 58.9905 116.223 59.9625 116.599L67.4868 119.514L71.4479 120.728C73.1374 121.246 74.8623 121.64 76.609 121.908V121.908C79.1851 122.303 81.796 122.42 84.3971 122.258L93.9007 121.667C95.6129 121.56 97.3317 121.688 99.0095 122.046V122.046C101.947 122.673 104.992 122.589 107.891 121.802L108.979 121.506" stroke="#C59253" stroke-width="1.44262" stroke-linecap="round"/>
<path d="M114.735 24.6395L118.232 20.4678" stroke="#C79659" stroke-width="1.39885" stroke-linecap="round"/>
<path d="M106.344 21.8589L109.841 17.6871" stroke="#C79659" stroke-width="1.39885" stroke-linecap="round"/>
<path d="M86.7634 30.2015L96.5534 20.4676" stroke="#C79659" stroke-width="1.39885" stroke-linecap="round"/>
<path d="M81.1694 41.3267L92.0774 29.5613" stroke="#C79659" stroke-width="1.39885" stroke-linecap="round"/>
<path d="M81.1692 47.1362L90.9591 37.1548" stroke="#C79659" stroke-width="1.39885" stroke-linecap="round"/>
<path d="M85.3651 57.7714L92.3579 51.0606" stroke="#C79659" stroke-width="1.39885" stroke-linecap="round"/>
<path d="M86.7636 62.5915L93.7563 56.623" stroke="#C79659" stroke-width="1.39885" stroke-linecap="round"/>
<path d="M93.758 105.291L86.351 93.1932C84.7656 90.6039 83.4266 87.8727 82.3512 85.0351L76.8543 70.5297" stroke="#C79659" stroke-width="1.39885" stroke-linecap="round"/>
<path d="M76.9732 77.1535L77.0407 77.0746C78.3808 75.508 80.0231 74.2275 81.8692 73.31V73.31" stroke="#C79659" stroke-width="1.39885" stroke-linecap="round"/>
<path d="M78.3719 83.1784L78.4317 83.1098C79.9732 81.3398 81.8556 79.8984 83.9662 78.8717V78.8717" stroke="#C79659" stroke-width="1.39885" stroke-linecap="round"/>
<path d="M81.1689 88.4205V88.4205C82.7388 86.9515 84.5804 85.8031 86.5901 85.0399L86.7632 84.9742" stroke="#C79659" stroke-width="1.39885" stroke-linecap="round"/>
<path d="M86.0584 95.9758L88.5632 92.7602L91.17 89.9969" stroke="#C79659" stroke-width="1.39885" stroke-linecap="round"/>
<path d="M88.1618 102.208L91.1672 99.4488L94.198 97.1525" stroke="#C79659" stroke-width="1.39885" stroke-linecap="round"/>
<path d="M82.5676 53.5993L90.959 45.498" stroke="#C79659" stroke-width="1.39885" stroke-linecap="round"/>
<path d="M97.9519 24.6392L106.343 16.2958" stroke="#C79659" stroke-width="1.39885" stroke-linecap="round"/>
<path d="M110.539 21.8589L114.036 17.6871" stroke="#C79659" stroke-width="1.39885" stroke-linecap="round"/>
<path d="M124.525 106.684L123.826 105.988M123.826 105.988L126.623 101.817L131.518 95.5591L135.714 89.3015L139.909 82.3487L143.406 74.7005V74.7005C145.268 69.6091 146.74 64.3834 147.809 59.0686L148.301 56.623L148.641 51.8859C148.88 48.5612 148.824 45.2218 148.473 41.9071V41.9071C147.895 36.4506 146.524 31.1076 144.403 26.047L144.105 25.3351L141.891 21.5614C140.111 18.5276 137.947 15.736 135.453 13.256V13.256C133.765 11.5779 131.934 10.0503 129.981 8.69072L129.663 8.46969C127.177 6.7396 124.512 5.28238 121.714 4.12323L121.467 4.02089C118.851 2.93713 116.127 2.13654 113.341 1.63281V1.63281C111.012 1.21178 108.65 1 106.283 1H104.038C101.85 1 99.6661 1.19581 97.5127 1.5851V1.5851C94.5536 2.12005 91.6714 3.01685 88.9311 4.2553L88.8293 4.30133C86.5256 5.34246 84.3329 6.61335 82.2843 8.09468L80.5499 9.34887C78.6348 10.7337 76.831 12.2663 75.1551 13.9327L74.6285 14.4562C72.4698 16.6026 70.5699 18.9945 68.9678 21.583L68.6797 22.0486C66.7613 25.1481 65.3325 28.5249 64.4437 32.06V32.06C63.9402 34.0622 63.6127 36.1046 63.4648 38.1638L62.9878 44.8031V44.8031C63.4532 51.7441 64.4922 58.6346 66.0942 65.4042L66.4842 67.0523L72.0785 82.3487L81.1693 100.426L85.2827 107.379L86.1716 108.882C87.4955 111.119 89.0348 113.222 90.7676 115.16L92.3779 116.962C93.294 117.986 94.322 118.905 95.4427 119.701L96.6615 120.567C97.9733 121.498 99.4806 122.145 101.059 122.459V122.459C101.779 122.602 102.518 122.675 103.252 122.675H103.528C105.371 122.675 107.179 122.177 108.762 121.233V121.233C109.478 120.806 110.139 120.292 110.731 119.704L114.735 115.722L120.329 109.465L123.826 105.988Z" stroke="#C79659" stroke-width="1.39885"/>
<path d="M105.645 16.3002C120.307 16.3003 132.217 28.426 132.217 43.4125C132.217 58.3989 120.307 70.5246 105.645 70.5248C90.9817 70.5248 79.0713 58.399 79.0713 43.4125C79.0713 28.4259 90.9816 16.3002 105.645 16.3002Z" stroke="#C79659" stroke-width="1.39885"/>
<path d="M111.938 17.6871L118.931 24.64" stroke="#C79659" stroke-width="1.39885" stroke-linecap="round"/>
<path d="M104.945 16.2958L110.539 21.8581" stroke="#C79659" stroke-width="1.39885" stroke-linecap="round"/>
<path d="M92.3577 20.4678L96.5542 24.6395" stroke="#C79659" stroke-width="1.39885" stroke-linecap="round"/>
<path d="M86.7632 24.6398L93.7561 31.5926" stroke="#C79659" stroke-width="1.39885" stroke-linecap="round"/>
<path d="M83.9663 28.8118L89.5606 34.3741" stroke="#C79659" stroke-width="1.39885" stroke-linecap="round"/>
<path d="M81.1689 35.7645L88.1618 42.7174" stroke="#C79659" stroke-width="1.39885" stroke-linecap="round"/>
<path d="M79.7708 39.9357L88.1622 48.2791" stroke="#C79659" stroke-width="1.39885" stroke-linecap="round"/>
<path d="M81.1689 48.2797L89.5604 56.6231" stroke="#C79659" stroke-width="1.39885" stroke-linecap="round"/>
<path d="M99.3506 17.6871L104.945 23.2494" stroke="#C79659" stroke-width="1.39885" stroke-linecap="round"/>
<path d="M102.563 116.179L119.012 97.8277" stroke="#C79659" stroke-width="1.39885" stroke-linecap="round"/>
<path d="M112.136 112.15L125.913 96.0408" stroke="#C79659" stroke-width="1.39885" stroke-linecap="round"/>
<path d="M102.282 111.321L110.539 117.808" stroke="#C79659" stroke-width="1.39885" stroke-linecap="round"/>
<path d="M109.022 106.757L116.365 112.605" stroke="#C79659" stroke-width="1.39885" stroke-linecap="round"/>
<path d="M114.246 100.19L121.728 106.683" stroke="#C79659" stroke-width="1.39885" stroke-linecap="round"/>
<path d="M120.248 94.9719L127.322 99.731" stroke="#C79659" stroke-width="1.39885" stroke-linecap="round"/>
<path d="M124.356 93.3436L136.2 80.1304" stroke="#C79659" stroke-width="1.39885" stroke-linecap="round"/>
<path d="M126.828 87.6311L132.916 92.7779" stroke="#C79659" stroke-width="1.39885" stroke-linecap="round"/>
<path d="M128.601 81.9579L135.713 87.2153" stroke="#C79659" stroke-width="1.39885" stroke-linecap="round"/>
<path d="M131.851 77.5936L141.063 67.3166" stroke="#C79659" stroke-width="1.39885" stroke-linecap="round"/>
<path d="M132.428 75.4713L139.909 81.6532" stroke="#C79659" stroke-width="1.39885" stroke-linecap="round"/>
<path d="M135.02 71.8406L141.308 77.4811" stroke="#C79659" stroke-width="1.39885" stroke-linecap="round"/>
<path d="M138.19 66.0879L144.105 70.5283" stroke="#C79659" stroke-width="1.39885" stroke-linecap="round"/>
<path d="M138.848 65.3541L145.427 58.0134" stroke="#C79659" stroke-width="1.39885" stroke-linecap="round"/>
<path d="M140.701 61.0697L145.504 64.9666" stroke="#C79659" stroke-width="1.39885" stroke-linecap="round"/>
<path d="M97.9807 57.8355V32.3202C97.9807 31.5234 98.6266 30.8776 99.4233 30.8776H106.635L109.159 31.2367L109.225 31.2533C111.095 31.719 112.893 32.4385 114.568 33.3918L115.564 34.1006C116.575 34.8204 117.461 35.7027 118.184 36.7117L118.345 36.9355C118.71 37.445 119.02 37.9926 119.267 38.5685C119.735 39.6556 119.976 40.8267 119.976 42.0102V42.7306L119.803 44.1113C119.68 45.0929 119.329 46.0322 118.779 46.8544C118.378 47.4532 117.878 47.9795 117.301 48.4108L116.475 49.0282C115.687 49.6168 114.832 50.1094 113.927 50.4956L112.765 50.9918L112.668 51.0193C111.058 51.4777 109.391 51.7102 107.716 51.7102C105.876 51.7102 104.335 53.1079 104.157 54.9403L103.98 56.7714L103.82 57.9973C103.774 58.3531 103.668 58.6984 103.507 59.019L103.453 59.1272C103.178 59.6752 102.731 60.12 102.182 60.3934C101.791 60.588 101.359 60.6898 100.923 60.6898C100.413 60.6898 99.9132 60.5517 99.4758 60.2903L99.3209 60.1977C98.6937 59.8229 98.2414 59.214 98.0635 58.5054C98.0085 58.2863 97.9807 58.0613 97.9807 57.8355Z" stroke="#C59253" stroke-width="1.44262" stroke-linecap="round"/>
</svg>
