<svg width="106" height="118" viewBox="0 0 106 118" fill="none" xmlns="http://www.w3.org/2000/svg">
<path d="M1 113.815L1.4164 112.982C2.06928 111.676 3.03164 110.55 4.21959 109.701V109.701C5.19783 109.003 6.3068 108.508 7.48032 108.247L7.86699 108.161C9.23208 107.858 10.6428 107.82 12.0222 108.05L13.9531 108.372C15.0335 108.552 16.0981 108.816 17.1372 109.163L22.5175 110.956C23.5056 111.286 24.5739 111.286 25.562 110.956V110.956C26.4112 110.673 27.1646 110.159 27.7377 109.471L28.3902 108.688C28.9212 108.051 29.212 107.248 29.212 106.418V105.923C29.212 104.985 28.7196 104.115 27.9148 103.632V103.632C27.246 103.231 26.4352 103.142 25.6952 103.389L25.5093 103.451C24.5843 103.759 23.8584 104.485 23.55 105.41L23.4971 105.569C23.2403 106.339 23.2649 107.175 23.5665 107.929L23.5997 108.012C23.8859 108.728 24.3896 109.335 25.0397 109.749L26.9526 110.966C28.4361 111.91 30.1291 112.475 31.8823 112.609L32.9186 112.689C34.5122 112.812 36.1151 112.677 37.6657 112.289L40.9192 111.476C40.9509 111.468 40.9835 111.464 41.0163 111.464V111.464C41.3735 111.464 41.5519 111.031 41.2987 110.779L37.5 107L44.8279 113.412C47.1575 115.45 50.1478 116.574 53.2432 116.574V116.574C56.3116 116.574 59.2775 115.47 61.5991 113.464L68.5 107.5" stroke="#C7924B" stroke-width="0.940397" stroke-linecap="round"/>
<path d="M42.7011 99.5691L34.1073 87.8061C32.4792 85.5775 31.0993 83.2163 29.9846 80.7509L23.638 66.7152" stroke="#C79659" stroke-width="1.39885" stroke-linecap="round"/>
<path d="M23.7721 72.9756V72.9756C25.3343 71.4451 27.1751 70.2254 29.1883 69.3868L29.2936 69.3429" stroke="#C79659" stroke-width="1.39885" stroke-linecap="round"/>
<path d="M25.3494 78.6699V78.6699C27.1332 76.9534 29.2278 75.5903 31.5133 74.6586L31.6584 74.5995" stroke="#C79659" stroke-width="1.39885" stroke-linecap="round"/>
<path d="M28.5036 83.6245V83.6245C30.2758 82.2346 32.2801 81.1731 34.4151 80.4937L34.8126 80.3672" stroke="#C79659" stroke-width="1.39885" stroke-linecap="round"/>
<path d="M34.0179 90.7652L36.8426 87.726L39.7825 85.1144" stroke="#C79659" stroke-width="1.39885" stroke-linecap="round"/>
<path d="M36.3901 96.6555L39.7794 94.0477L43.1973 91.8774" stroke="#C79659" stroke-width="1.39885" stroke-linecap="round"/>
<path d="M85.2846 90.3714L79.7643 96.2857C77.6667 98.9076 75.3102 101.312 72.7306 103.461L72.6667 103.514L66.3578 109.429L61.9537 113.098C61.212 113.716 60.4013 114.247 59.5378 114.678C57.7994 115.548 55.8825 116 53.9389 116H53.3843C52.5713 116 51.7596 115.933 50.9576 115.799C49.1481 115.498 47.4106 114.861 45.8343 113.923L44.7195 113.26C43.3766 112.46 42.1241 111.518 40.984 110.449L39.4443 109.006C37.4135 107.102 35.5814 104.997 33.9761 102.723L33.143 101.543L28.5041 94.9714L18.252 77.8857L11.9431 63.4286L10.2447 57.4136C9.27628 53.9842 8.6455 50.4683 8.36131 46.9161L8.32769 46.4959C8.1096 43.77 8.11738 41.0307 8.35093 38.3061L8.52665 36.2562C8.70083 34.2241 9.084 32.2155 9.67007 30.262C10.6523 26.9881 12.1926 23.9085 14.2232 21.159L14.8815 20.2676C16.5966 17.9452 18.5844 15.8373 20.8024 13.9891L21.8374 13.1267C23.6506 11.6158 25.5745 10.243 27.5929 9.01974L29.5621 7.82637C32.0061 6.34523 34.5805 5.09069 37.253 4.07843C40.3493 2.90563 43.5613 2.0642 46.8349 1.56822L46.9868 1.54522C49.3825 1.18225 51.8021 1 54.2251 1H56.8917C59.5185 1 62.1415 1.19757 64.7386 1.59105C67.9143 2.07219 71.039 2.84438 74.0733 3.89787L74.3361 3.98915C77.4219 5.06052 80.3964 6.42872 83.218 8.07452L83.7899 8.4081C85.8343 9.60062 87.7758 10.9615 89.5941 12.4767C92.4915 14.8911 95.0553 17.6797 97.2182 20.7693L97.955 21.8219C98.9701 23.272 99.8772 24.7948 100.669 26.378C102.492 30.0235 103.684 33.9514 104.195 37.995L104.396 39.5878C104.798 42.768 104.862 45.9817 104.588 49.1755L104.539 49.7539C104.321 52.2953 103.913 54.8168 103.317 57.2971L103.123 58.1071C102.273 61.6479 101.113 65.107 99.6568 68.4444L98.6911 70.6571L94.7481 77.8857L90.0163 84.4571L85.2846 90.3714Z" stroke="#C79659" stroke-width="1.39885"/>
<path d="M58 13.6992C75.8701 13.6992 90.3008 27.5196 90.3008 44.5C90.3008 61.4804 75.8701 75.3008 58 75.3008C40.1299 75.3008 25.6992 61.4804 25.6992 44.5C25.6992 27.5196 40.1299 13.6992 58 13.6992Z" stroke="#C79659" stroke-width="1.39885"/>
<path d="M52.0519 109.606L69.9629 92.6779" stroke="#C79659" stroke-width="1.39885" stroke-linecap="round"/>
<path d="M61.9256 106.383L76.9883 91.468" stroke="#C79659" stroke-width="1.39885" stroke-linecap="round"/>
<path d="M52.1738 104.741L59.8662 111.889" stroke="#C79659" stroke-width="1.39885" stroke-linecap="round"/>
<path d="M59.2688 100.75L66.1027 107.186" stroke="#C79659" stroke-width="1.39885" stroke-linecap="round"/>
<path d="M65.0176 94.6377L71.9366 101.728" stroke="#C79659" stroke-width="1.39885" stroke-linecap="round"/>
<path d="M71.4309 89.9342L78.0868 95.2621" stroke="#C79659" stroke-width="1.39885" stroke-linecap="round"/>
<path d="M75.6595 88.6513L88.5554 76.463" stroke="#C79659" stroke-width="1.39885" stroke-linecap="round"/>
<path d="M78.5952 83.1628L84.237 88.7956" stroke="#C79659" stroke-width="1.39885" stroke-linecap="round"/>
<path d="M80.8315 77.6556L87.4847 83.4834" stroke="#C79659" stroke-width="1.39885" stroke-linecap="round"/>
<path d="M84.4312 73.5752L94.4614 64.0954" stroke="#C79659" stroke-width="1.39885" stroke-linecap="round"/>
<path d="M85.1824 71.5079L92.1262 78.2874" stroke="#C79659" stroke-width="1.39885" stroke-linecap="round"/>
<path d="M88.0654 68.104L93.8648 74.2453" stroke="#C79659" stroke-width="1.39885" stroke-linecap="round"/>
<path d="M91.7 62.6332L97.2276 67.5477" stroke="#C79659" stroke-width="1.39885" stroke-linecap="round"/>
<path d="M92.4164 61.9564L99.5808 55.1852" stroke="#C79659" stroke-width="1.39885" stroke-linecap="round"/>
<path d="M94.6177 57.84L99.0823 62.1208" stroke="#C79659" stroke-width="1.39885" stroke-linecap="round"/>
<path d="M66.3579 23.3426L70.3018 19.3998" stroke="#C79659" stroke-width="1.39885" stroke-linecap="round"/>
<path d="M56.8943 20.7145L60.8382 16.7716" stroke="#C79659" stroke-width="1.39885" stroke-linecap="round"/>
<path d="M34.8129 28.5995L45.8535 19.3996" stroke="#C79659" stroke-width="1.39885" stroke-linecap="round"/>
<path d="M28.5043 39.1143L40.8057 27.9944" stroke="#C79659" stroke-width="1.39885" stroke-linecap="round"/>
<path d="M28.504 44.6051L39.5446 35.1713" stroke="#C79659" stroke-width="1.39885" stroke-linecap="round"/>
<path d="M33.2359 54.6569L41.1221 48.3142" stroke="#C79659" stroke-width="1.39885" stroke-linecap="round"/>
<path d="M34.813 59.2124L42.699 53.5714" stroke="#C79659" stroke-width="1.39885" stroke-linecap="round"/>
<path d="M30.081 50.7137L39.5444 43.0568" stroke="#C79659" stroke-width="1.39885" stroke-linecap="round"/>
<path d="M47.4307 23.3424L56.8941 15.4567" stroke="#C79659" stroke-width="1.39885" stroke-linecap="round"/>
<path d="M61.626 20.7145L65.5699 16.7716" stroke="#C79659" stroke-width="1.39885" stroke-linecap="round"/>
<path d="M63.2034 16.7716L71.0896 23.343" stroke="#C79659" stroke-width="1.39885" stroke-linecap="round"/>
<path d="M55.3169 15.4567L61.6258 20.7138" stroke="#C79659" stroke-width="1.39885" stroke-linecap="round"/>
<path d="M41.1218 19.3998L45.8545 23.3426" stroke="#C79659" stroke-width="1.39885" stroke-linecap="round"/>
<path d="M34.8125 23.3429L42.6987 29.9143" stroke="#C79659" stroke-width="1.39885" stroke-linecap="round"/>
<path d="M31.6584 27.286L37.9674 32.5432" stroke="#C79659" stroke-width="1.39885" stroke-linecap="round"/>
<path d="M28.5037 33.8573L36.3898 40.4287" stroke="#C79659" stroke-width="1.39885" stroke-linecap="round"/>
<path d="M26.927 37.7996L36.3904 45.6853" stroke="#C79659" stroke-width="1.39885" stroke-linecap="round"/>
<path d="M28.5037 45.6858L37.9671 53.5715" stroke="#C79659" stroke-width="1.39885" stroke-linecap="round"/>
<path d="M49.0081 16.7716L55.317 22.0287" stroke="#C79659" stroke-width="1.39885" stroke-linecap="round"/>
<path d="M49 59.7828V31.7952C49 31.356 49.356 31 49.7952 31H58.6076C59.8845 31 61.1565 31.1566 62.3952 31.4663C63.2706 31.6851 64.1255 31.9795 64.9501 32.346L65.7548 32.7036C66.7745 33.1568 67.7397 33.7235 68.6324 34.393L68.9907 34.6617C69.971 35.3969 70.8324 36.2786 71.5446 37.2757L71.6279 37.3923C72.1788 38.1636 72.6264 39.0037 72.9592 39.8912L73.1349 40.3597C73.4759 41.2691 73.6506 42.2324 73.6506 43.2037C73.6506 44.0742 73.5103 44.9391 73.235 45.765L73.0693 46.262C72.9269 46.6892 72.7543 47.1058 72.5529 47.5086C71.9658 48.6829 71.1388 49.7257 70.1301 50.5662C69.5645 51.0376 68.9445 51.4434 68.286 51.7727L66.8916 52.4699L66.2548 52.7883C65.0965 53.3674 63.8525 53.756 62.5705 53.9392C62.0061 54.0198 61.4368 54.0602 60.8667 54.0602H58.9398C57.6223 54.0602 56.5542 55.1283 56.5542 56.4458V56.8434C56.5542 58.1654 56.4236 59.4843 56.1643 60.7807L56.1566 60.8193L56.0899 61.086C55.8759 61.9423 55.3736 62.6987 54.6676 63.2282C54.3371 63.4761 53.9689 63.669 53.5771 63.7996L53.5068 63.823C53.1552 63.9402 52.7869 64 52.4163 64H52.1159C51.3937 64 50.7011 63.7131 50.1904 63.2024C49.9296 62.9417 49.7246 62.6307 49.5876 62.2883L49.3849 61.7816C49.1306 61.1459 49 60.4675 49 59.7828Z" stroke="#C59253" stroke-width="1.59036"/>
<path d="M55.3613 40.5422V38.4087C55.3613 37.9927 55.5266 37.5938 55.8207 37.2997C56.0397 37.0807 56.3185 36.9315 56.6222 36.8707L57.6545 36.6643C57.9804 36.5991 58.3118 36.5663 58.6441 36.5663H59.2658C59.8414 36.5663 60.4148 36.6369 60.9731 36.7765C61.4714 36.901 61.9545 37.0798 62.4139 37.3094L62.5959 37.4004C63.0731 37.639 63.5278 37.9201 63.9546 38.2402L64.5564 38.6915C64.7875 38.8648 65.006 39.0543 65.2103 39.2586C65.7948 39.8432 66.2546 40.5404 66.5616 41.308L66.6546 41.5403C66.8122 41.9343 66.9333 42.3419 67.0165 42.758C67.1964 43.6574 67.1964 44.5836 67.0165 45.483L66.8914 46.1085C66.6326 46.8851 66.143 47.5644 65.488 48.0556L65.3766 48.1392C65.0626 48.3747 64.7189 48.5678 64.3545 48.7136L63.7301 48.9634C63.1882 49.1801 62.6276 49.3468 62.0553 49.4612L61.9591 49.4805C61.2731 49.6177 60.5752 49.6868 59.8756 49.6868H58.5421H58.4238C57.7358 49.6868 57.076 49.4135 56.5895 48.927C56.3048 48.6422 56.0902 48.2951 55.9629 47.9131L55.7589 47.3012C55.4949 46.245 55.3613 45.1603 55.3613 44.0716V43.3253V40.5422Z" stroke="#C59253" stroke-width="1.59036"/>
</svg>
