<svg width="104" height="125" viewBox="0 0 104 125" fill="none" xmlns="http://www.w3.org/2000/svg">
<path d="M94.7188 64.7665C95.8186 64.7665 97.1237 64.5743 98.0954 65.0601" stroke="#C59253" stroke-width="3" stroke-linecap="round"/>
<path d="M92.6634 53.0218C91.9766 53.0218 94.0319 52.875 94.7188 52.875" stroke="#C59253" stroke-width="3" stroke-linecap="round"/>
<path d="M85.4697 42.8915C85.9882 42.8338 86.6159 42.1442 87.052 41.8638C87.4251 41.6239 88.2217 41.3513 88.406 40.9829" stroke="#C59253" stroke-width="3" stroke-linecap="round"/>
<path d="M75.6333 35.6981C76.8202 35.5794 77.9694 34.2494 78.5695 33.3491" stroke="#C59253" stroke-width="3" stroke-linecap="round"/>
<path d="M63.448 32.1743V35.551" stroke="#C59253" stroke-width="3" stroke-linecap="round"/>
<path d="M51.1157 35.2577C51.0645 34.7965 50.3202 34.4621 50.0065 34.1484C49.6483 33.7902 49.3526 33.1282 48.9136 32.9087" stroke="#C59253" stroke-width="3" stroke-linecap="round"/>
<path d="M40.8391 40.2489C39.0273 40.2489 37.8177 39.1361 36.5815 37.8999" stroke="#C59253" stroke-width="3" stroke-linecap="round"/>
<path d="M34.2325 53.3153C33.1935 53.3153 32.3763 53.1947 31.443 52.728C31.0384 52.5257 30.2686 52.3983 30.2686 51.8472" stroke="#C59253" stroke-width="3" stroke-linecap="round"/>
<path d="M27.1855 65.7944H30.5622" stroke="#C59253" stroke-width="3" stroke-linecap="round"/>
<path d="M34.3794 79.0073C32.5903 79.0073 31.4164 79.5146 29.9751 80.4754" stroke="#C59253" stroke-width="3" stroke-linecap="round"/>
<path d="M41.5731 87.5225C41.043 87.5225 40.6026 88.6192 40.2518 88.9906C39.6198 89.6598 39.2998 90.7122 38.7837 91.4864" stroke="#C59253" stroke-width="3" stroke-linecap="round"/>
<path d="M52.7308 94.4224C52.1723 95.0429 51.8409 95.8916 51.328 96.5511C50.9248 97.0695 50.4027 97.4846 49.9414 97.9458" stroke="#C59253" stroke-width="3" stroke-linecap="round"/>
<path d="M62.8609 96.3311C62.8609 97.7502 62.8609 99.1694 62.8609 100.589C62.8609 101.117 62.8434 101.564 63.0077 102.057" stroke="#C59253" stroke-width="3" stroke-linecap="round"/>
<path d="M75.1929 92.6606C75.2392 93.0772 76.1496 93.5464 76.3674 93.9819" stroke="#C59253" stroke-width="3" stroke-linecap="round"/>
<path d="M84.8824 85.9072C84.5097 85.9072 85.6316 86.1001 85.9101 86.3477C86.2403 86.6411 86.5773 86.9882 86.9378 87.2285" stroke="#C59253" stroke-width="3" stroke-linecap="round"/>
<path d="M91.6357 76.8052C92.6855 76.8052 93.8073 77.4779 94.2784 78.4201" stroke="#C59253" stroke-width="3" stroke-linecap="round"/>
<path d="M76.864 124.449C78.925 124.449 80.8068 123.07 82.4309 121.987C84.4884 120.616 86.6424 119.42 88.5586 117.829C89.7696 116.824 90.9925 115.819 92.2516 114.875C93.1272 114.218 93.957 113.676 94.7136 112.878C95.339 112.218 95.7648 111.44 96.5327 110.908C97.0656 110.539 97.4797 109.956 98.0373 109.677" stroke="#C59253" stroke-linecap="round"/>
<path d="M92.9902 109.677C94.4794 109.752 95.4261 111.36 96.4986 112.194C97.2074 112.745 97.762 113.341 98.4067 113.986" stroke="#C59253" stroke-linecap="round"/>
<path d="M88.8047 112.878C89.8662 112.984 91.0358 114.494 91.7317 115.189C92.3043 115.762 92.9494 116.503 93.6056 116.94" stroke="#C59253" stroke-linecap="round"/>
<path d="M85.3579 117.309C86.9638 117.309 88.8281 118.563 89.9126 119.648" stroke="#C59253" stroke-linecap="round"/>
<path d="M80.8032 118.664C80.9258 119.276 82.0778 119.987 82.554 120.387C83.0928 120.84 83.5511 121.48 84.1269 121.864" stroke="#C59253" stroke-linecap="round"/>
<path d="M77.7258 120.018C77.7258 121.847 80.1387 122.825 80.6802 124.449" stroke="#C59253" stroke-linecap="round"/>
<path d="M8.78491 66.4155C8.78491 67.0773 8.78491 67.7391 8.78491 68.4008C8.78491 69.5822 9.25037 70.5533 9.71824 71.62C11.0757 74.7151 12.7103 77.664 14.2663 80.6607C15.808 83.6301 17.5234 86.4837 19.099 89.4324C19.4858 90.1563 20.1839 92.332 21.029 92.7545" stroke="#C59253" stroke-linecap="round"/>
<path d="M7.21875 70.4018C8.41298 70.4018 9.364 70.2021 10.4775 69.7691C11.1651 69.5017 12.1013 69.221 12.6289 68.6934" stroke="#C59253" stroke-linecap="round"/>
<path d="M8.64258 75.3848C8.92829 75.3214 9.04587 74.8951 9.24371 74.7046C9.51168 74.4466 9.91074 74.3017 10.2087 74.0719C10.8172 73.6024 11.5011 73.0191 11.9171 72.395" stroke="#C59253" stroke-linecap="round"/>
<path d="M10.4934 79.7984C11.7495 78.5422 13.0706 77.3636 14.3375 76.0967" stroke="#C59253" stroke-linecap="round"/>
<path d="M13.0562 84.6391C14.4189 83.9577 16.485 82.622 17.185 81.2222" stroke="#C59253" stroke-linecap="round"/>
<path d="M14.7646 89.9067C14.8385 89.1679 15.9573 88.714 16.4415 88.2299C16.9055 87.7659 17.317 87.3187 17.9048 86.9881C18.4881 86.66 19.5869 86.0995 19.8901 85.4932" stroke="#C59253" stroke-linecap="round"/>
<path d="M23.0222 95.3169C23.4231 95.3614 24.8268 96.3634 25.0154 96.7406" stroke="#C59253" stroke-linecap="round"/>
<path d="M3.61914 30.4025C3.61914 29.3241 4.79445 28.2332 5.27041 27.3063C5.77851 26.3169 6.40982 25.0768 7.17396 24.256C9.21974 22.0587 10.9404 19.5722 13.0681 17.4446C14.5389 15.9737 15.7552 14.7784 17.4944 13.6833C18.2769 13.1907 19.4707 12.83 20.1319 12.2385C20.6118 11.809 21.1775 11.2019 21.7831 11" stroke="#C59253" stroke-linecap="round"/>
<path d="M17.2422 11.6191C18.312 12.689 19.6055 14.4521 20.9576 15.1281" stroke="#C59253" stroke-linecap="round"/>
<path d="M13.9395 14.3027C16.0085 14.8348 17.3257 16.0991 19.0997 16.9861" stroke="#C59253" stroke-linecap="round"/>
<path d="M10.0178 17.3989C11.8702 17.3989 13.4537 18.2447 14.9716 19.2566" stroke="#C59253" stroke-linecap="round"/>
<path d="M6.09595 22.7651C8.66481 22.7651 10.39 24.2653 12.701 25.0356" stroke="#C59253" stroke-linecap="round"/>
<path d="M3 25.6553C4.43189 25.6553 7.44468 26.2883 8.16023 27.7194" stroke="#C59253" stroke-linecap="round"/>
<path d="M77.5 52L76.8077 58M76 65L76.8077 58M76.8077 58V58C77.265 57.6697 77.7812 57.4297 78.3285 57.2929L79.0815 57.1046C79.3595 57.0351 79.6449 57 79.9314 57H79.9923C80.3286 57 80.6626 57.0542 80.9816 57.1605L81.0915 57.1972C81.6803 57.3934 82.1869 57.7804 82.5312 58.2968V58.2968C82.8369 58.7553 83 59.2941 83 59.8451V60.5071C83 60.8349 82.9676 61.1619 82.9033 61.4833L82.5 63.5L82 65.5" stroke="#C59253" stroke-width="2" stroke-linecap="round"/>
<path d="M101.616 79.9201L102.479 75.604C102.493 75.5348 102.5 75.4645 102.5 75.3939C102.5 74.1053 100.643 73.9139 100.38 75.1755L100.026 76.8775C100.009 76.959 99.9835 77.0385 99.9507 77.115L98.5 80.5L96.5 85C94.8358 87.9956 92.9434 90.8585 90.8395 93.5634L90.5 94C88.842 95.9896 86.9056 97.7296 84.7507 99.1662L83.5 100C80.5209 101.986 77.3243 103.67 74 105L69.5 106.5L66.8896 107.283C65.3006 107.76 63.6676 108.076 62.0154 108.226C60.0126 108.408 57.9951 108.345 56.0074 108.04L54.9767 107.881C53.3279 107.627 51.7005 107.25 50.1083 106.753L47.4161 105.911C45.4752 105.305 43.5862 104.543 41.7674 103.634C39.5942 102.547 37.5304 101.254 35.6045 99.7727L35.3246 99.5574C33.1138 97.8568 31.0797 95.9381 29.253 93.8303L28.6557 93.1412C26.5587 90.7216 24.7436 88.0713 23.2455 85.2415L23.0052 84.7877C21.6727 82.2707 20.6296 79.6108 19.8957 76.859C19.2998 74.6244 18.9107 72.3397 18.7334 70.0339L18.5 67L18.7749 61.2277C18.9241 58.0932 19.5364 54.998 20.5919 52.0427C21.1962 50.3506 21.9428 48.7128 22.8237 47.1468L24.5729 44.037C25.5231 42.3479 26.5931 40.729 27.7748 39.1928L27.9452 38.9712C29.9732 36.3349 32.3349 33.9732 34.9712 31.9452C36.6542 30.6506 38.4416 29.4978 40.3151 28.4986L43.0443 27.0431C44.3463 26.3486 45.6977 25.7508 47.0874 25.2545L51.7219 23.5993C51.9059 23.5336 52.0999 23.5 52.2953 23.5C53.2368 23.5 54 24.2632 54 25.2047V28.6126C54 28.8692 54.0414 29.1241 54.1225 29.3675L54.2 29.6C54.3889 30.1666 54.8334 30.6111 55.4 30.8C55.7895 30.9298 56.2105 30.9298 56.6 30.8L57.1329 30.6224C57.3769 30.541 57.6115 30.4337 57.8325 30.3021L77.936 18.3357C78.2998 18.1192 78.5737 17.779 78.7076 17.3773C78.8907 16.8279 78.7926 16.2235 78.4452 15.7602L77.8857 15.0142C77.6306 14.6742 77.3165 14.3828 76.9583 14.1539L59.5 3L57.7161 1.5729C57.2526 1.20204 56.6766 1 56.0829 1H55.7071C55.2544 1 54.8201 1.17986 54.5 1.5C54.1799 1.82014 54 2.25435 54 2.70711V3.5V8.03822C54 8.29325 53.7933 8.5 53.5382 8.5C53.5128 8.5 53.4874 8.5021 53.4623 8.50628L47.5 9.5L44.0111 10.4691C40.3441 11.4878 36.7734 12.8258 33.34 14.4678L32.8332 14.7102C28.9557 16.5647 25.2888 18.8309 21.896 21.4697L21.3902 21.8632C19.1339 23.6181 17.0257 25.5555 15.0868 27.6559L14.6224 28.1591C12.8774 30.0494 11.3005 32.0882 9.90931 34.2522C8.30714 36.7444 6.95901 39.3911 5.88515 42.1525L4 47L2.79793 51.3274C1.93516 54.4334 1.40981 57.6234 1.231 60.842C1.07733 63.6081 1.18031 66.3824 1.53862 69.1294L1.87229 71.6875C2.28961 74.887 3.04138 78.0339 4.11526 81.0766C5.03655 83.6869 6.19087 86.209 7.56425 88.6124L11.5 95.5L14.1014 99.0474C16.0271 101.673 18.2559 104.063 20.7417 106.166C22.5771 107.719 24.5443 109.109 26.621 110.321L29.5 112L35.2535 114.466C38.4085 115.818 41.7009 116.824 45.0728 117.466C48.6788 118.153 52.3522 118.419 56.0195 118.26L56.5905 118.235C60.1856 118.079 63.7521 117.522 67.2238 116.575C71.06 115.529 74.7526 114.014 78.2183 112.065L81 110.5L82.4786 109.476C85.8108 107.169 88.8152 104.422 91.4098 101.308C93.794 98.4472 95.8128 95.3005 97.4196 91.9408L98.0449 90.6335C99.6753 87.2244 100.875 83.6256 101.616 79.9201Z" stroke="#C59253" stroke-width="1.44262" stroke-linecap="round"/>
<path d="M42.5 57V56.8251C42.5 55.9537 42.7029 55.0942 43.0926 54.3148V54.3148C43.3624 53.7751 43.7175 53.2825 44.1441 52.8559L44.3559 52.6441C44.7825 52.2175 45.2751 51.8624 45.8148 51.5926L46.0148 51.4926C46.6627 51.1686 47.3771 51 48.1014 51V51C48.695 51 49.2832 51.1133 49.8343 51.3337L50.0179 51.4072C50.9873 51.7949 51.8313 52.4418 52.4578 53.277L52.635 53.5134C52.8778 53.8371 53.0922 54.1845 53.2732 54.5465V54.5465C53.7491 55.4982 54 56.554 54 57.618V58.2213C54 58.7395 53.9572 59.2569 53.872 59.7681L53.8418 59.949C53.6157 61.3056 53.1507 62.6113 52.4684 63.8053L51.5 65.5L49 69.5L46.5 72.5L45.0547 74.6679C44.8176 75.0236 45.0726 75.5 45.5 75.5V75.5H49H56H57" stroke="#C59253" stroke-width="2" stroke-linecap="round"/>
<path d="M63.5 50.5L58.3293 67.3049C57.924 68.6219 58.9408 69.9446 60.3177 69.8916L67.2544 69.6248M70.5 69.5L67.2544 69.6248M67.2544 69.6248L70.5 56.5L65 79" stroke="#C59253" stroke-width="2" stroke-linecap="round"/>
</svg>
