<svg width="104" height="109" viewBox="0 0 104 109" fill="none" xmlns="http://www.w3.org/2000/svg">
<path d="M98.9805 85L100.017 86.0363C100.325 86.3447 100.602 86.6828 100.844 87.0456V87.0456C101.265 87.6772 101.575 88.3764 101.759 89.1128L101.98 90L102.291 91.2434C102.417 91.7459 102.48 92.2619 102.48 92.7799V92.7799C102.48 93.5859 102.327 94.3845 102.027 95.1328L101.814 95.6665C101.593 96.2198 101.299 96.7415 100.942 97.2182V97.2182C100.31 98.0611 99.4898 98.7453 98.5473 99.2166L97.7449 99.6178C97.2375 99.8715 96.6986 100.056 96.1424 100.168L95.3013 100.336C94.7634 100.443 94.2067 100.409 93.6864 100.235L93.6513 100.224C93.2101 100.077 92.8093 99.8288 92.4805 99.5L92.444 99.4635C92.1392 99.1587 91.9095 98.7871 91.7732 98.3781V98.3781C91.5832 97.8081 91.5832 97.1919 91.7732 96.6219L91.8181 96.487C91.9249 96.1668 92.1048 95.8757 92.3435 95.637L92.4501 95.5303C92.7897 95.1908 93.2503 95 93.7305 95V95C94.2107 95 94.6712 95.1908 95.0108 95.5303L95.4805 96L95.8049 96.3244C96.2374 96.757 96.4805 97.3437 96.4805 97.9555V97.9555C96.4805 98.3136 96.3971 98.6668 96.2369 98.987L95.6434 100.174C95.5351 100.391 95.4508 100.619 95.3921 100.853V100.853C95.1336 101.887 94.3943 102.734 93.4047 103.13L92.9553 103.31C92.6399 103.436 92.3105 103.524 91.9742 103.572L88.9805 104L86.4609 104.36C85.8111 104.453 85.151 104.445 84.5036 104.337L83.6854 104.201C82.9017 104.07 82.1785 103.698 81.6167 103.136V103.136C81.1983 102.718 80.883 102.208 80.6959 101.646L80.6842 101.611C80.5492 101.206 80.4805 100.783 80.4805 100.356V99.7906C80.4805 99.5981 80.5115 99.4069 80.5724 99.2243V99.2243C80.8161 98.4932 81.5003 98 82.271 98H82.4805H83.6013C83.8506 98 84.0966 98.0581 84.3196 98.1696V98.1696C84.7391 98.3793 85.0459 98.7618 85.1597 99.2168L85.3749 100.078C85.445 100.358 85.4805 100.646 85.4805 100.935V102.5V102.5C85.4805 103.444 85.0359 104.333 84.2805 104.9L83.9261 105.166C83.6305 105.387 83.3049 105.566 82.9589 105.696L81.385 106.286C80.1207 106.76 78.8001 107.068 77.4565 107.202L74.4805 107.5H69.0358C68.0096 107.5 66.9941 107.292 66.0509 106.887L64.8014 106.352C64.2657 106.122 63.8083 105.742 63.4851 105.257V105.257C63.156 104.763 62.9805 104.183 62.9805 103.59V103.455C62.9805 102.242 63.6167 101.118 64.6566 100.494L64.7932 100.412C65.2429 100.143 65.7575 100 66.2819 100H66.4198C67.0989 100 67.7503 100.27 68.2305 100.75L68.2734 100.793C68.7261 101.246 68.9805 101.86 68.9805 102.5V102.5C68.9805 103.14 68.7261 103.754 68.2734 104.207L67.7819 104.699C67.2575 105.223 66.6004 105.595 65.8809 105.775L64.4152 106.141C63.4644 106.379 62.4826 106.469 61.5044 106.408L54.9805 106L47.9805 105L40.4805 103.5L34.6531 102.205C32.5443 101.736 30.3906 101.5 28.2305 101.5H27.4713C25.8157 101.5 24.1651 101.681 22.5489 102.04V102.04C21.1729 102.346 19.8285 102.779 18.5329 103.335L13.4805 105.5" stroke="#C79659" stroke-width="2" stroke-linecap="round"/>
<path d="M45.9805 70.5L39.4805 64L28.4805 50L23.9805 43.5L23.3709 42.4841C22.7883 41.513 22.4805 40.4018 22.4805 39.2692V38.9979C22.4805 38.6672 22.521 38.3378 22.6012 38.017L22.7353 37.4808C22.893 36.8497 23.2804 36.3001 23.8217 35.9392C24.2512 35.6528 24.756 35.5 25.2722 35.5H26.3141C27.0846 35.5 27.848 35.353 28.5634 35.0668L28.8933 34.9349C29.6141 34.6465 30.2886 34.2535 30.8948 33.7685L32.4805 32.5L33.122 31.8585C34.0078 30.9727 34.6116 29.8445 34.8572 28.6161C34.9392 28.2064 34.9805 27.7895 34.9805 27.3717V27.1135C34.9805 25.7236 34.6569 24.3528 34.0353 23.1096L33.9805 23C33.3149 21.336 32.5172 19.7279 31.5951 18.1911L31.4805 18L27.4805 13L21.9805 7L19.7002 5.0455C18.8901 4.35112 17.9979 3.75872 17.0436 3.28155L16.7915 3.1555C15.9214 2.72044 14.9971 2.40333 14.0432 2.21255L13.7049 2.14488C13.2231 2.04853 12.7259 2 12.2346 2C11.092 2 9.94839 2.26604 8.92638 2.77704C7.97379 3.25334 7.13592 3.93069 6.4706 4.76234L6.00437 5.34512C5.65563 5.78105 5.34135 6.24345 5.06438 6.72816L4.32456 8.02283C3.76274 9.00603 3.2807 10.0327 2.88309 11.093C2.28355 12.6918 1.87962 14.3572 1.68011 16.0531L1.42519 18.2199C1.12941 20.734 1.07823 23.2709 1.27239 25.795L1.48047 28.5L2.48047 35L3.98047 41L6.98047 48.5L10.9805 56.5L14.9805 63L19.9805 69.5L24.4805 74.5L28.9805 79L34.4805 83.5C37.8093 86.1631 41.3291 88.5783 45.0113 90.7263L45.4805 91L47.3579 91.9387C49.4361 92.9778 51.5965 93.8434 53.8172 94.5267C55.9228 95.1746 58.0759 95.6565 60.2569 95.9681L60.6535 96.0247C62.8687 96.3412 65.1035 96.5 67.3412 96.5H70.9805L75.9805 96L77.7418 95.6477C81.5621 94.8837 85.3191 93.8314 88.9805 92.5L91.2019 91.3893C92.3831 90.7987 93.4875 90.0654 94.4903 89.2059L95.4942 88.3454C96.1474 87.7855 96.7061 87.1239 97.1488 86.3861C97.6977 85.4713 98.0582 84.4559 98.2091 83.3998L98.2237 83.2976C98.393 82.1125 98.3105 80.9051 97.9816 79.754L97.9279 79.566C97.6318 78.5297 97.1603 77.5518 96.5339 76.6747L95.9871 75.9092C95.3183 74.9729 94.5431 74.1173 93.6771 73.3596L92.6134 72.4288C91.5265 71.4778 90.3652 70.6154 89.1405 69.85L86.9805 68.5L83.7822 66.4647C82.2535 65.4919 80.6112 64.7103 78.8923 64.1373L77.5173 63.6789C76.1682 63.2293 74.7555 63 73.3335 63C72.1041 63 70.8808 63.1713 69.6988 63.5091L69.1666 63.6611C68.3792 63.8861 67.6248 64.2134 66.9227 64.6347C65.9688 65.207 65.1247 65.9447 64.4298 66.8133L63.4805 68L60.9805 71L59.6972 72.6041C59.2232 73.1966 58.6473 73.6999 57.9967 74.0903L57.9043 74.1457C56.9726 74.7047 55.9065 75 54.82 75C54.263 75 53.7088 74.9224 53.1732 74.7693L52.5119 74.5804C51.1701 74.197 49.9143 73.5597 48.8128 72.7029L45.9805 70.5Z" stroke="#C79659" stroke-width="2"/>
<path d="M39.9805 26.5L50.3973 31.842C56.3221 34.8803 61.2244 39.5915 64.4958 45.3908L70.4805 56" stroke="#C79659" stroke-width="1.5" stroke-linecap="round"/>
<path d="M44.4805 12L57.4805 18L63.2791 21.1687C68.148 23.8293 72.2919 27.6411 75.3489 32.2715L77.4805 35.5L85.4805 51" stroke="#C79659" stroke-width="1.5" stroke-linecap="round"/>
<path d="M46.4805 1L66.9805 9.5L73.261 12.539C79.2739 15.4484 84.2965 20.0646 87.7019 25.8111L90.4805 30.5L102.48 52" stroke="#C79659" stroke-width="1.5" stroke-linecap="round"/>
<path d="M26.152 89.717L18.6 82.8981C16.9856 81.4404 15.5111 79.8353 14.1955 78.1036L7.46028 69.2378" stroke="#C79659" stroke-linecap="round"/>
<path d="M8.89706 73.7717L8.9286 73.7004C9.52582 72.3518 10.3891 71.1375 11.4666 70.1303V70.1303" stroke="#C79659" stroke-linecap="round"/>
<path d="M11.0882 77.6332L11.1167 77.5704C11.8105 76.0409 12.8055 74.667 14.0423 73.5308V73.5308" stroke="#C79659" stroke-linecap="round"/>
<path d="M14.0773 80.67V80.67C14.853 79.3395 15.8815 78.1737 17.1047 77.238L17.2073 77.1596" stroke="#C79659" stroke-linecap="round"/>
<path d="M18.9732 84.8732L20.0327 82.1507L21.2546 79.7185" stroke="#C79659" stroke-linecap="round"/>
<path d="M21.687 88.7324L23.1829 86.2219L24.7909 84.0248" stroke="#C79659" stroke-linecap="round"/>
<path d="M25.2874 27.2547L21.6313 22.0041C20.4321 20.2818 19.0743 18.6862 17.5752 17.2374L12.5439 12.3751" stroke="#C79659" stroke-linecap="round"/>
<path d="M15.5927 13.6795V13.6795C14.5736 14.0558 13.625 14.6358 12.8299 15.3751V15.3751" stroke="#C79659" stroke-linecap="round"/>
<path d="M18.1076 15.5024V15.5024C16.9506 15.9417 15.8888 16.6067 14.99 17.4563V17.4563" stroke="#C79659" stroke-linecap="round"/>
<path d="M19.98 17.8683V17.8683C18.984 18.3678 18.0918 19.0516 17.3519 19.8824L17.2616 19.9838" stroke="#C79659" stroke-linecap="round"/>
<path d="M22.5052 21.7023L20.5122 22.3353L18.7086 23.1037" stroke="#C79659" stroke-linecap="round"/>
<path d="M24.9758 23.9116L23.0943 24.8776L21.4225 25.9431" stroke="#C79659" stroke-linecap="round"/>
</svg>
